<svg width="88" height="88" viewBox="0 0 88 88" fill="none" xmlns="http://www.w3.org/2000/svg">
<path fill-rule="evenodd" clip-rule="evenodd" d="M4.79573 43.0804C4.78053 45.9705 6.89967 47.6933 10.2814 46.91V39.2509C6.85692 38.208 4.81005 40.3179 4.79573 43.0804ZM10.3848 28.1761H15.0424V50.2221C10.5779 50.952 6.3021 51.4149 3.24319 49.7045C-0.695422 47.5024 -1.01206 40.5045 2.10458 37.3878C3.68476 35.8077 6.86595 34.6953 10.2814 35.4212V28.4866C10.2724 28.3397 10.2642 28.1934 10.3848 28.1761Z" fill="#192533"/>
<path fill-rule="evenodd" clip-rule="evenodd" d="M22.5985 33.0406H17.9409V28.176H22.5985V33.0406Z" fill="#192533"/>
<path fill-rule="evenodd" clip-rule="evenodd" d="M78.4896 47.117C83.567 49.0901 84.1288 38.0287 79.0071 39.0437C75.8265 39.6741 75.9286 46.1218 78.4896 47.117ZM78.6966 35.2142C82.574 34.7996 85.4993 36.5107 86.6664 39.1473C88.6576 43.6459 86.5568 48.8079 83.3543 50.3256C81.6944 51.1122 79.9564 51.1871 78.3861 51.0501C73.5326 50.6268 70.4716 45.6806 72.176 40.1822C72.4427 39.3217 72.7424 38.7953 72.9006 38.5263C73.9556 36.7324 75.7367 35.5307 78.6966 35.2142Z" fill="#192533"/>
<path fill-rule="evenodd" clip-rule="evenodd" d="M29.0156 45.3573C27.7273 47.5223 30.964 48.041 33.052 47.4274V44.2188C31.4477 44.4428 29.6216 44.3386 29.0156 45.3573ZM37.1921 50.4289C33.3447 50.6503 27.4977 51.9609 25.3929 49.394C24.1563 47.8857 24.2893 45.0091 25.3929 43.5978C26.8191 41.7742 29.9323 41.3765 32.7415 41.1138C32.9966 40.4858 32.8246 39.4641 32.5345 39.0435C29.9649 38.389 27.4118 39.4032 25.6 40.182V36.5596C28.3365 35.3023 34.6748 33.9785 36.5712 36.8701C37.5672 38.3888 37.1921 41.0374 37.1921 43.3907V50.4289Z" fill="#192533"/>
<path fill-rule="evenodd" clip-rule="evenodd" d="M53.5452 50.636H48.8876V44.6328C48.8876 42.6562 49.2073 40.1499 48.1629 39.3541C47.345 38.7306 45.4045 39.0434 44.23 39.3541V50.636H39.5723V36.2491C44.3335 35.0123 52.9279 33.6863 53.5452 39.6646C53.8496 42.6121 53.3196 47.0343 53.5452 50.636Z" fill="#192533"/>
<path fill-rule="evenodd" clip-rule="evenodd" d="M60.48 45.6677C61.2638 46.9358 63.3861 47.4113 65.1375 46.5992C65.0414 44.1769 65.0077 41.692 65.0341 39.147C61.0089 38.0835 58.61 42.6429 60.48 45.6677ZM72.1758 35.835C71.7612 37.0766 71.1545 38.1257 70.6233 39.2507C70.1433 39.3582 69.7273 39.0599 69.4847 39.2507C69.3785 44.296 70.5592 51.1356 68.5532 54.7759C67.3454 56.9676 65.1217 58.3738 61.722 58.6056C59.2455 58.7744 57.3233 58.3698 55.5119 57.6741V53.3269C57.6365 54.5674 63.0053 55.5788 64.5166 53.0163C64.9613 52.2624 64.9331 51.4832 65.1375 50.3253C64.1645 50.3764 63.2199 50.827 62.0326 50.8429C57.1512 50.9077 54.1313 47.0209 55.3049 41.631C55.7588 39.5462 56.9803 37.8675 58.6171 36.87C62.0163 34.7982 67.2414 34.9555 72.1758 35.835Z" fill="#192533"/>
<path fill-rule="evenodd" clip-rule="evenodd" d="M22.5979 35.5039C22.5926 38.9336 22.5934 41.3982 22.5931 45.5648C22.3952 49.6596 22.4412 52.9203 20.9419 54.8796C20.6462 55.266 20.0183 55.8296 19.4928 56.2252C19.0516 56.5574 18.2107 57.231 17.7333 57.2603C17.2521 57.2898 16.0157 56.5922 15.4562 56.3287C14.7214 55.9826 14.0422 55.5231 13.2827 55.2937C15.0544 54.1959 16.7361 53.3728 17.4227 51.1536C18.0199 49.2236 17.9403 46.4269 17.9403 43.7014C17.9403 41.0102 17.9523 37.8813 17.9523 35.5051L22.5979 35.5039Z" fill="#192533"/>
</svg>
