<svg width="170" height="32" viewBox="0 0 170 32" fill="none" xmlns="http://www.w3.org/2000/svg">
<path d="M29.6153 6.97727C29.4298 6.38346 28.9844 5.90099 28.4277 5.60408L17.1082 0.185566C16.8113 0.0371131 16.4773 0 16.1804 0C15.8835 0 15.5494 0 15.2525 0.0742262L3.93304 5.52985C3.37634 5.78965 2.9681 6.27212 2.81965 6.90304L0.0361615 19.1133C-0.0751779 19.7442 0.0732746 20.3751 0.444406 20.8947L8.27527 30.5812C8.72063 31.0266 9.35155 31.3235 9.98248 31.3606H22.4525C23.1205 31.4348 23.7514 31.1379 24.1597 30.5812L31.9906 20.8947C32.3617 20.3751 32.5101 19.7442 32.4359 19.1133L29.6153 6.97727Z" fill="#326DE6"/>
<path d="M27.8705 18.6307C27.8334 18.6307 27.7963 18.6307 27.7963 18.5935C27.7963 18.5564 27.7221 18.5564 27.6478 18.5564C27.4994 18.5193 27.3509 18.5193 27.2025 18.5193C27.1283 18.5193 27.054 18.5193 26.9798 18.4822H26.9427C26.5345 18.4451 26.0891 18.3709 25.6809 18.2595C25.5695 18.2224 25.4582 18.1111 25.4211 17.9997L25.1242 17.9255C25.2726 16.8492 25.1984 15.7358 24.9757 14.6596C24.7159 13.5833 24.2706 12.5441 23.6767 11.6163L23.8994 11.3936V11.3565C23.8994 11.2452 23.9365 11.0967 24.0108 11.0225C24.3448 10.7256 24.6788 10.5029 25.0499 10.2802C25.1242 10.2431 25.1984 10.206 25.2726 10.1689C25.4211 10.0946 25.5324 10.0204 25.6809 9.94619C25.718 9.90908 25.7551 9.90908 25.7922 9.87196C25.8293 9.83485 25.7922 9.83485 25.7922 9.79774C26.1262 9.53795 26.2004 9.09259 25.9406 8.75857C25.8293 8.61012 25.6066 8.49878 25.4211 8.49878C25.2355 8.49878 25.0499 8.57301 24.9015 8.68434L24.8644 8.72146C24.8272 8.75857 24.7901 8.79568 24.753 8.79568C24.6417 8.90702 24.5303 9.01836 24.4561 9.1297C24.419 9.20393 24.3448 9.24104 24.3077 9.27815C24.0479 9.57506 23.7139 9.87197 23.3798 10.0946C23.3056 10.1318 23.2314 10.1689 23.1572 10.1689C23.12 10.1689 23.0458 10.1689 23.0087 10.1318H22.9716L22.6747 10.3173C22.3778 10.0204 22.0438 9.72351 21.7469 9.42661C20.3737 8.35033 18.6665 7.68229 16.9222 7.49673L16.885 7.19982V7.23693C16.7737 7.16271 16.7366 7.05137 16.6995 6.94003C16.6995 6.53178 16.6995 6.12354 16.7737 5.67818V5.64107C16.7737 5.56684 16.8108 5.49262 16.8108 5.41839C16.8479 5.26994 16.8479 5.12148 16.885 4.97303V4.75035C16.9222 4.37922 16.6252 4.00809 16.2541 3.97098C16.0314 3.93387 15.8088 4.0452 15.6232 4.23077C15.4747 4.37922 15.4005 4.56479 15.4005 4.75035V4.93592C15.4005 5.08437 15.4376 5.23282 15.4747 5.38128C15.5119 5.4555 15.5119 5.52973 15.5119 5.60396V5.64107C15.5861 6.04931 15.5861 6.45756 15.5861 6.90292C15.549 7.01425 15.5119 7.12559 15.4005 7.19982V7.27405L15.3634 7.57095C14.9552 7.60806 14.5469 7.68229 14.1016 7.75652C12.3572 8.12765 10.7614 9.05548 9.53664 10.3544L9.31397 10.206H9.27685C9.23974 10.206 9.20263 10.2431 9.1284 10.2431C9.05417 10.2431 8.97995 10.206 8.90572 10.1689C8.5717 9.90908 8.23769 9.61217 7.97789 9.31527C7.94078 9.24104 7.86655 9.20393 7.82944 9.16682C7.7181 9.05548 7.64388 8.94414 7.53254 8.8328C7.49542 8.79568 7.45831 8.79568 7.4212 8.75857C7.38408 8.72146 7.38408 8.72146 7.38408 8.72146C7.23563 8.61012 7.05007 8.53589 6.8645 8.53589C6.64182 8.53589 6.45626 8.61012 6.34492 8.79568C6.12224 9.1297 6.19646 9.57506 6.49337 9.83485C6.53048 9.83485 6.53048 9.87196 6.53048 9.87196C6.53048 9.87196 6.60471 9.94619 6.64182 9.94619C6.75316 10.0204 6.90161 10.0946 7.05007 10.1689C7.12429 10.206 7.19852 10.2431 7.27274 10.2802C7.64388 10.5029 8.01501 10.7256 8.31191 11.0225C8.38614 11.0967 8.46036 11.2452 8.42325 11.3565V11.3194L8.64593 11.5421C8.60882 11.6163 8.5717 11.6534 8.53459 11.7276C7.38408 13.5462 6.90161 15.6987 7.23563 17.8142L6.93873 17.8884C6.93873 17.9255 6.90161 17.9255 6.90161 17.9255C6.8645 18.0369 6.75316 18.1111 6.64182 18.1853C6.23358 18.2966 5.82533 18.3709 5.37998 18.408C5.30575 18.408 5.23152 18.408 5.1573 18.4451C5.00884 18.4451 4.86039 18.4822 4.71194 18.4822C4.67483 18.4822 4.63771 18.5193 4.56349 18.5193C4.52637 18.5193 4.52637 18.5193 4.48926 18.5564C4.08102 18.6307 3.82122 19.0018 3.89545 19.41C3.96968 19.7441 4.30369 19.9667 4.63771 19.9296C4.71194 19.9296 4.74905 19.9296 4.82328 19.8925C4.86039 19.8925 4.86039 19.8925 4.86039 19.8554C4.86039 19.8183 4.97173 19.8554 5.00884 19.8554C5.1573 19.8183 5.30575 19.7441 5.41709 19.7069C5.49131 19.6698 5.56554 19.6327 5.63977 19.6327H5.67688C6.08512 19.4843 6.45626 19.3729 6.90161 19.2987H6.93873C7.05007 19.2987 7.16141 19.3358 7.23563 19.41C7.27274 19.41 7.27274 19.4472 7.27274 19.4472L7.60676 19.41C8.16346 21.1172 9.20263 22.6389 10.65 23.7523C10.9841 24.0121 11.281 24.2347 11.6521 24.4203L11.4665 24.6801C11.4665 24.7172 11.5036 24.7172 11.5036 24.7172C11.5779 24.8286 11.5779 24.977 11.5408 25.0883C11.3923 25.4595 11.1696 25.8306 10.9469 26.1646V26.2017C10.9098 26.276 10.8727 26.3131 10.7985 26.3873C10.7243 26.4615 10.65 26.61 10.5387 26.7584C10.5016 26.7955 10.5016 26.8327 10.4645 26.8698C10.4645 26.8698 10.4645 26.9069 10.4274 26.9069C10.2418 27.278 10.3902 27.7234 10.7243 27.9089C10.7985 27.9461 10.9098 27.9832 10.9841 27.9832C11.281 27.9832 11.5408 27.7976 11.6892 27.5378C11.6892 27.5378 11.6892 27.5007 11.7263 27.5007C11.7263 27.4636 11.7634 27.4265 11.8005 27.3894C11.8377 27.2409 11.9119 27.1296 11.949 26.9811L12.0232 26.7584C12.1346 26.3502 12.3201 25.9791 12.5057 25.6079C12.5799 25.4966 12.6913 25.4224 12.8026 25.3853C12.8397 25.3853 12.8397 25.3853 12.8397 25.3481L12.9882 25.0512C14.0273 25.4595 15.1036 25.645 16.217 25.645C16.885 25.645 17.5531 25.5708 18.2211 25.3853C18.6294 25.311 19.0376 25.1626 19.4087 25.0512L19.5572 25.311C19.5943 25.311 19.5943 25.311 19.5943 25.3481C19.7056 25.3853 19.817 25.4595 19.8912 25.5708C20.0768 25.9419 20.2623 26.3131 20.3737 26.7213V26.7584L20.4479 26.9811C20.485 27.1296 20.5221 27.278 20.5964 27.3894C20.6335 27.4265 20.6335 27.4636 20.6706 27.5007C20.6706 27.5007 20.6706 27.5378 20.7077 27.5378C20.8561 27.7976 21.1159 27.9832 21.4128 27.9832C21.5242 27.9832 21.5984 27.9461 21.7097 27.9089C21.8582 27.8347 22.0067 27.6863 22.0438 27.5007C22.0809 27.3151 22.0809 27.1296 22.0067 26.944C22.0067 26.9069 21.9695 26.9069 21.9695 26.9069C21.9695 26.8698 21.9324 26.8327 21.8953 26.7955C21.8211 26.6471 21.7469 26.5358 21.6355 26.4244C21.5984 26.3502 21.5613 26.3131 21.4871 26.2389V26.1646C21.2273 25.8306 21.0417 25.4595 20.8933 25.0883C20.8561 24.977 20.8561 24.8286 20.9304 24.7172C20.9304 24.6801 20.9675 24.6801 20.9675 24.6801L20.8561 24.3832C22.7489 23.2327 24.1963 21.4513 24.8644 19.3358L25.1613 19.3729C25.1984 19.3729 25.1984 19.3358 25.1984 19.3358C25.2726 19.2616 25.3839 19.2245 25.4953 19.2245H25.5324C25.9406 19.2987 26.3489 19.41 26.72 19.5585H26.7571C26.8314 19.5956 26.9056 19.6327 26.9798 19.6327C27.1283 19.7069 27.2396 19.7812 27.3881 19.8183C27.4252 19.8183 27.4623 19.8554 27.5365 19.8554C27.5736 19.8554 27.5736 19.8554 27.6107 19.8925C27.685 19.9296 27.7221 19.9296 27.7963 19.9296C28.1303 19.9296 28.4272 19.7069 28.5386 19.41C28.5014 19.0018 28.2045 18.7049 27.8705 18.6307ZM17.1448 17.4802L16.1428 17.9626L15.1407 17.4802L14.8809 16.4039L15.5861 15.5132H16.6995L17.4046 16.4039L17.1448 17.4802ZM23.1943 15.0678C23.3798 15.8472 23.417 16.6266 23.3427 17.4059L19.817 16.4039C19.483 16.3296 19.2974 15.9956 19.3716 15.6616C19.4087 15.5503 19.4458 15.476 19.5201 15.4018L22.3036 12.8781C22.7118 13.5462 23.0087 14.2884 23.1943 15.0678ZM21.1902 11.5049L18.1469 13.6575C17.8871 13.806 17.516 13.7688 17.3304 13.5091C17.2562 13.4348 17.2191 13.3606 17.2191 13.2493L16.9964 9.50083C18.6294 9.6864 20.0768 10.3915 21.1902 11.5049ZM14.4727 9.61217L15.215 9.46372L15.0294 13.175C15.0294 13.5091 14.7325 13.7688 14.3985 13.7688C14.2871 13.7688 14.2129 13.7317 14.1016 13.6946L11.0212 11.5049C11.9861 10.5771 13.1737 9.90908 14.4727 9.61217ZM9.94489 12.8781L12.6913 15.3276C12.9511 15.5503 12.9882 15.9214 12.7655 16.1812C12.6913 16.2925 12.617 16.3296 12.4686 16.3668L8.86861 17.4059C8.75727 15.8472 9.1284 14.2513 9.94489 12.8781ZM9.31397 19.1502L12.9882 18.5193C13.2851 18.5193 13.582 18.7049 13.6191 19.0018C13.6562 19.1131 13.6562 19.2616 13.582 19.3729L12.1717 22.7873C10.8727 21.9337 9.83355 20.6348 9.31397 19.1502ZM17.7386 23.7523C17.2191 23.8636 16.6995 23.9378 16.1428 23.9378C15.3634 23.9378 14.5469 23.7894 13.8047 23.5667L15.6232 20.2636C15.8088 20.041 16.1057 19.9667 16.3655 20.1152C16.4768 20.1894 16.551 20.2636 16.6624 20.375L18.4438 23.6038C18.2211 23.6409 17.9984 23.678 17.7386 23.7523ZM22.2664 20.5234C21.7097 21.4141 20.9304 22.1935 20.0397 22.7502L18.5922 19.2616C18.518 18.9647 18.6665 18.6678 18.9263 18.5564C19.0376 18.5193 19.1489 18.4822 19.2603 18.4822L22.9716 19.1131C22.786 19.6327 22.5633 20.1152 22.2664 20.5234Z" fill="white"/>
<path d="M164.258 22.6178C164.724 22.6511 165.223 22.5846 165.655 22.4182C165.921 22.2851 166.088 21.9857 166.055 21.6863C166.021 21.3536 165.822 21.0542 165.522 20.9544C165.023 20.655 164.458 20.3888 163.892 20.2225C163.326 20.0228 162.827 19.79 162.362 19.5571C161.929 19.3575 161.563 19.0913 161.197 18.7586C160.865 18.4259 160.632 18.06 160.465 17.6275C160.266 17.1284 160.199 16.5961 160.199 16.0638C160.166 14.9659 160.665 13.9013 161.53 13.2359C162.428 12.5373 163.626 12.2046 165.156 12.2046C165.888 12.2046 166.653 12.2711 167.385 12.4375C167.951 12.5373 168.516 12.6704 169.082 12.87L168.45 15.6979C167.984 15.5315 167.552 15.4317 167.086 15.2986C166.554 15.1655 165.988 15.1323 165.456 15.1323C164.325 15.1323 163.759 15.4317 163.759 16.0638C163.759 16.1969 163.792 16.33 163.825 16.463C163.892 16.5961 163.992 16.6959 164.125 16.7957C164.258 16.8955 164.458 16.9954 164.69 17.1284C164.923 17.2615 165.256 17.3946 165.655 17.5277C166.321 17.7605 166.986 18.06 167.585 18.3927C168.051 18.6255 168.45 18.925 168.783 19.3242C169.082 19.6236 169.282 19.9896 169.415 20.4221C169.548 20.8878 169.614 21.3536 169.614 21.8194C169.681 22.9505 169.149 24.0484 168.184 24.6805C167.252 25.3126 165.921 25.6453 164.191 25.6453C163.227 25.6786 162.295 25.5788 161.364 25.3459C160.831 25.2128 160.332 25.0465 159.833 24.8801L160.432 21.9525C161.031 22.1853 161.663 22.385 162.295 22.518C162.96 22.5513 163.593 22.6178 164.258 22.6178ZM145.927 18.9582C145.893 17.9602 146.093 16.9621 146.426 16.0305C146.725 15.2321 147.191 14.5334 147.79 13.9013C148.355 13.3357 148.987 12.9032 149.719 12.6371C150.451 12.3377 151.216 12.2046 151.982 12.2046C153.778 12.2046 155.209 12.7702 156.24 13.8681C157.271 14.9659 157.804 16.5961 157.804 18.7253C157.804 18.925 157.804 19.1578 157.771 19.424C157.771 19.6902 157.737 19.8898 157.737 20.0894H149.62C149.686 20.788 150.052 21.4534 150.651 21.8526C151.383 22.3184 152.248 22.5513 153.113 22.518C153.745 22.518 154.41 22.4515 155.042 22.3517C155.575 22.2519 156.107 22.0855 156.606 21.8526L157.105 24.7803C156.872 24.9134 156.606 24.9799 156.34 25.0798C155.974 25.1796 155.608 25.2794 155.242 25.3126C154.843 25.3792 154.444 25.4457 153.978 25.5123C153.545 25.5455 153.08 25.5788 152.614 25.5788C151.582 25.6121 150.584 25.4457 149.62 25.0798C148.821 24.7803 148.122 24.3146 147.524 23.7157C146.958 23.1169 146.559 22.385 146.293 21.6198C146.06 20.7215 145.927 19.8232 145.927 18.9582ZM154.344 17.5942C154.344 17.2948 154.277 16.9954 154.177 16.6959C154.111 16.3965 153.945 16.1636 153.778 15.9307C153.579 15.6979 153.346 15.4982 153.08 15.3652C152.747 15.1988 152.414 15.1323 152.048 15.1323C151.682 15.1323 151.35 15.1988 151.017 15.3652C150.751 15.4982 150.485 15.6646 150.285 15.8975C150.085 16.1304 149.919 16.3965 149.819 16.6959C149.719 16.9954 149.653 17.2948 149.62 17.5942H154.344ZM136.179 9.34345L139.772 8.77787V12.504H144.097V15.4982H139.772V19.9563C139.739 20.5884 139.872 21.2205 140.171 21.7528C140.437 22.1853 140.97 22.4182 141.801 22.4182C142.201 22.4182 142.6 22.385 142.966 22.3184C143.365 22.2519 143.731 22.1521 144.097 22.019L144.596 24.8136C144.13 25.0132 143.631 25.1463 143.132 25.2794C142.5 25.4124 141.835 25.479 141.169 25.479C140.337 25.5123 139.506 25.3792 138.741 25.0798C138.142 24.8469 137.609 24.4476 137.21 23.9819C136.811 23.4828 136.545 22.884 136.378 22.2519C136.212 21.52 136.146 20.7548 136.179 20.0228V9.34345ZM121.64 18.9582C121.607 17.9602 121.807 16.9621 122.139 16.0305C122.439 15.2321 122.904 14.5334 123.503 13.9013C124.069 13.3357 124.701 12.9032 125.433 12.6371C126.165 12.3377 126.93 12.2046 127.695 12.2046C129.492 12.2046 130.922 12.7702 131.954 13.8681C132.985 14.9659 133.517 16.5961 133.517 18.7253C133.517 18.925 133.517 19.1578 133.484 19.424C133.451 19.6902 133.451 19.8898 133.451 20.0894H125.3C125.366 20.788 125.732 21.4534 126.331 21.8526C127.063 22.3184 127.928 22.5513 128.793 22.518C129.425 22.518 130.091 22.4515 130.723 22.3517C131.255 22.2519 131.787 22.0855 132.32 21.8526L132.819 24.7803C132.586 24.9134 132.32 24.9799 132.053 25.0798C131.687 25.1796 131.322 25.2794 130.956 25.3126C130.556 25.3792 130.157 25.4457 129.691 25.5123C129.259 25.5455 128.793 25.5788 128.327 25.5788C127.296 25.6121 126.298 25.4457 125.333 25.0798C124.535 24.7803 123.836 24.3146 123.237 23.7157C122.672 23.1169 122.272 22.385 122.006 21.6198C121.74 20.7215 121.607 19.8232 121.64 18.9582ZM130.057 17.5942C130.057 17.2948 129.991 16.9954 129.891 16.6959C129.824 16.3965 129.658 16.1636 129.492 15.9307C129.292 15.6979 129.059 15.4982 128.793 15.3652C128.46 15.1988 128.128 15.1323 127.762 15.1323C127.396 15.1323 127.063 15.1988 126.73 15.3652C126.464 15.4982 126.231 15.6646 126.032 15.8975C125.832 16.1304 125.666 16.3965 125.566 16.6959C125.466 16.9954 125.4 17.2948 125.366 17.5942H130.057ZM108 12.9365C108.765 12.7369 109.563 12.5706 110.362 12.4375C111.36 12.2711 112.391 12.2046 113.389 12.2046C114.288 12.1713 115.186 12.3377 116.051 12.6371C116.716 12.87 117.315 13.2692 117.748 13.8015C118.18 14.3338 118.48 14.9659 118.646 15.6313C118.846 16.3965 118.912 17.195 118.912 17.9934V25.1463H115.352V18.4592C115.352 17.2948 115.186 16.4963 114.887 15.9973C114.587 15.5315 114.022 15.2654 113.19 15.2654C112.924 15.2654 112.658 15.2654 112.358 15.2986C112.059 15.2986 111.826 15.3319 111.593 15.3652V25.1463H108V12.9365ZM105.471 15.6979C105.139 15.6313 104.773 15.5315 104.34 15.465C103.874 15.3652 103.409 15.3319 102.943 15.3319C102.677 15.3319 102.411 15.3652 102.111 15.3984C101.878 15.4317 101.645 15.465 101.413 15.5315V25.2128H97.8195V13.1694C98.5514 12.9032 99.3166 12.7036 100.082 12.5373C101.047 12.3044 102.045 12.2046 103.009 12.2379C103.242 12.2379 103.475 12.2711 103.708 12.2711C103.974 12.2711 104.24 12.3044 104.54 12.3709C104.806 12.4042 105.072 12.4375 105.372 12.504C105.604 12.5373 105.837 12.6038 106.07 12.7036L105.471 15.6979ZM83.1478 18.9582C83.1145 17.9602 83.3141 16.9621 83.6468 16.0305C83.9462 15.2321 84.412 14.5334 85.0108 13.9013C85.5764 13.3357 86.2085 12.9032 86.9405 12.6371C87.6724 12.3377 88.4376 12.2046 89.2028 12.2046C90.9993 12.2046 92.4299 12.7702 93.4612 13.8681C94.4926 14.9659 95.0249 16.5961 95.0249 18.6921C95.0249 18.8917 95.0249 19.1246 94.9916 19.3907C94.9583 19.6569 94.9583 19.8565 94.9583 20.0561H86.8074C86.8739 20.7548 87.2399 21.4201 87.8387 21.8194C88.5706 22.2851 89.4356 22.518 90.3006 22.4848C90.9328 22.4848 91.5981 22.4182 92.2303 22.3184C92.7626 22.2186 93.2949 22.0523 93.7939 21.8526L94.2929 24.7803C94.0601 24.9134 93.7939 24.9799 93.5277 25.0798C93.1618 25.1796 92.7958 25.2794 92.4299 25.3126C92.0306 25.3792 91.6314 25.4457 91.1656 25.5123C90.7331 25.5455 90.2674 25.5788 89.8016 25.5788C88.7703 25.6121 87.7722 25.4457 86.8074 25.0798C86.0089 24.7803 85.3103 24.3146 84.7114 23.7157C84.1458 23.1169 83.7466 22.385 83.4805 21.6198C83.2808 20.7215 83.1478 19.8565 83.1478 18.9582ZM91.5981 17.5942C91.5981 17.2948 91.5316 16.9954 91.4318 16.6959C91.3653 16.3965 91.1989 16.1636 91.0326 15.9307C90.8329 15.6979 90.6001 15.4982 90.3339 15.3652C90.0012 15.1988 89.6685 15.1323 89.3026 15.1323C88.9366 15.1323 88.6039 15.1988 88.2712 15.3652C88.0051 15.4982 87.7389 15.6646 87.5393 15.8975C87.3397 16.1304 87.1733 16.3965 87.0735 16.6959C86.9737 16.9954 86.9072 17.2948 86.8739 17.5942H91.5981ZM77.3257 18.7586C77.3257 16.4298 76.4607 15.2986 74.7639 15.2986C74.398 15.2986 74.032 15.3319 73.6661 15.4317C73.3666 15.4982 73.0672 15.6313 72.8011 15.7977V22.3184C72.9674 22.3517 73.2003 22.385 73.4664 22.4182C73.7326 22.4515 74.032 22.4515 74.3647 22.4515C75.2297 22.518 76.0614 22.1521 76.5937 21.4534C77.0928 20.655 77.3589 19.7234 77.3257 18.7586ZM80.9853 18.8917C80.9853 19.8232 80.8522 20.7548 80.5195 21.653C80.2534 22.4515 79.8209 23.1501 79.2553 23.749C78.6564 24.3478 77.9578 24.8136 77.1926 25.113C76.2943 25.4457 75.3628 25.5788 74.398 25.5788C73.9655 25.5788 73.4997 25.5455 73.0339 25.5123C72.5682 25.479 72.1024 25.4124 71.6366 25.3792C71.2041 25.3126 70.7716 25.2461 70.3391 25.1463C69.9066 25.0798 69.5407 24.9799 69.2413 24.8469V7.04788L72.8343 6.4823V12.8034C73.2336 12.6371 73.6661 12.504 74.0986 12.4042C74.5643 12.3044 75.0301 12.2711 75.4959 12.2711C76.3276 12.2711 77.1261 12.4042 77.8912 12.7702C78.5566 13.0696 79.1555 13.5354 79.6212 14.1009C80.1203 14.7331 80.4862 15.4317 80.6859 16.1969C80.8855 17.0286 80.9853 17.9602 80.9853 18.8917ZM65.8145 24.7471C65.0494 24.9467 64.2509 25.113 63.4524 25.2128C62.4544 25.3792 61.423 25.4457 60.4249 25.4457C59.4934 25.479 58.5951 25.3126 57.7301 25.0132C57.0648 24.7471 56.4992 24.3478 56.0334 23.8155C55.6009 23.25 55.3015 22.6178 55.1351 21.9192C54.9355 21.154 54.869 20.3223 54.869 19.5238V12.504H58.4621V19.1246C58.4621 20.289 58.6284 21.1207 58.9278 21.6198C59.2272 22.1188 59.7928 22.385 60.6245 22.385C60.8907 22.385 61.1569 22.385 61.4563 22.3517C61.7557 22.3184 61.9886 22.3184 62.2215 22.2519V12.504H65.8145V24.7471ZM44.855 17.0952C45.2209 16.6959 45.5536 16.2967 45.9529 15.8975C46.3188 15.465 46.6848 15.0657 47.0507 14.6665C47.4167 14.234 47.7494 13.8681 48.0488 13.5021C48.3482 13.1361 48.6477 12.8034 48.8805 12.5373H53.139C52.274 13.5021 51.4423 14.4669 50.6438 15.3652C49.8121 16.2634 48.9471 17.195 47.9823 18.1265C48.5146 18.6255 49.0136 19.1246 49.4794 19.6902C49.9784 20.289 50.4775 20.8878 50.9765 21.5532C51.4423 22.1853 51.908 22.8507 52.3073 23.4828C52.7065 24.115 53.0392 24.7138 53.3053 25.2461H49.18C48.9138 24.8136 48.6144 24.3811 48.2817 23.8821C47.949 23.383 47.583 22.884 47.2504 22.3517C46.8844 21.8526 46.4852 21.3536 46.0527 20.8878C45.6867 20.4553 45.2875 20.0561 44.855 19.7234V25.2794H41.2619V7.04788L44.855 6.4823V17.0952Z" fill="#192533"/>
</svg>
