<svg width="103" height="64" viewBox="0 0 103 64" fill="none" xmlns="http://www.w3.org/2000/svg">
<g clip-path="url(#clip0_1064_2101)">
<path d="M50.9178 63.099C50.5692 63.099 50.2437 63.0059 49.9414 62.8429L46.8496 61.0029C46.3846 60.7466 46.6171 60.6534 46.7567 60.6069C47.3843 60.3973 47.5005 60.3505 48.1514 59.9781C48.2212 59.9314 48.3144 59.9547 48.384 60.0013L50.7553 61.4221C50.8482 61.4686 50.9644 61.4686 51.034 61.4221L60.3099 56.0416C60.4028 55.995 60.4495 55.9017 60.4495 55.7854V45.0478C60.4495 44.9311 60.4028 44.8382 60.3099 44.7915L51.034 39.4343C50.9411 39.3876 50.8249 39.3876 50.7553 39.4343L41.4794 44.7915C41.3865 44.838 41.3398 44.9545 41.3398 45.0476V55.7852C41.3398 55.8785 41.3865 55.9948 41.4794 56.0416L44.0135 57.5089C45.3851 58.2077 46.2452 57.3925 46.2452 56.5773V45.9793C46.2452 45.8396 46.3614 45.6998 46.5242 45.6998H47.7097C47.8493 45.6998 47.9887 45.8163 47.9887 45.9793V56.5773C47.9887 58.4172 46.989 59.4888 45.2455 59.4888C44.7108 59.4888 44.2925 59.4888 43.1067 58.9064L40.6658 57.5089C40.0614 57.1597 39.6895 56.5073 39.6895 55.8086V45.071C39.6895 44.3723 40.0614 43.7199 40.6658 43.3707L49.9414 37.9902C50.5227 37.6641 51.3132 37.6641 51.8943 37.9902L61.17 43.3707C61.7744 43.7199 62.1465 44.3723 62.1465 45.071V55.8086C62.1465 56.5073 61.7744 57.1597 61.17 57.5089L51.8943 62.8894C51.592 63.0293 51.2432 63.099 50.9178 63.099ZM53.7773 55.7155C49.7091 55.7155 48.8721 53.8521 48.8721 52.2683C48.8721 52.1284 48.9884 51.9888 49.1511 51.9888H50.36C50.4994 51.9888 50.6157 52.0819 50.6157 52.2218C50.8017 53.4561 51.3364 54.0617 53.8006 54.0617C55.7533 54.0617 56.5905 53.6192 56.5905 52.571C56.5905 51.9654 56.3578 51.523 53.3124 51.2201C50.7784 50.9638 49.1976 50.4049 49.1976 48.3785C49.1976 46.4918 50.7786 45.3737 53.4287 45.3737C56.4042 45.3737 57.869 46.3987 58.055 48.6345C58.055 48.7046 58.0317 48.7743 57.9852 48.8443C57.9386 48.8908 57.869 48.9374 57.7992 48.9374H56.5903C56.474 48.9374 56.3578 48.8443 56.3346 48.7278C56.0556 47.4469 55.3349 47.0275 53.4287 47.0275C51.2899 47.0275 51.034 47.7729 51.034 48.3318C51.034 49.0073 51.3364 49.2169 54.219 49.5895C57.0785 49.9624 58.4269 50.498 58.4269 52.5011C58.4036 54.5509 56.7299 55.7155 53.7773 55.7155Z" fill="#539E43"/>
<path d="M22.1379 21.1034C22.1379 20.6842 21.9054 20.288 21.5334 20.0784L11.6765 14.3952C11.5136 14.3019 11.3277 14.2553 11.1419 14.2319H11.0487C10.8629 14.2319 10.6768 14.3019 10.5141 14.3952L0.657176 20.0784C0.285057 20.288 0.0527344 20.684 0.0527344 21.1034L0.0760672 36.3829C0.0760672 36.5925 0.192329 36.8021 0.378187 36.8954C0.564247 37.0119 0.796569 37.0119 0.959497 36.8954L6.81785 33.5413C7.18977 33.3317 7.42229 32.9357 7.42229 32.5165V25.3658C7.42229 24.9466 7.65462 24.5506 8.02673 24.341L10.5141 22.8968C10.7002 22.7803 10.9093 22.7335 11.1185 22.7335C11.3277 22.7335 11.5369 22.7803 11.6998 22.8968L14.1872 24.341C14.5593 24.5506 14.7916 24.9464 14.7916 25.3658V32.5165C14.7916 32.9357 15.0242 33.3317 15.3961 33.5413L21.2544 36.8954C21.4405 37.0119 21.6728 37.0119 21.8589 36.8954C22.0449 36.8021 22.1612 36.5925 22.1612 36.3829L22.1379 21.1034ZM69.5162 0.0704703C69.3304 -0.022839 69.0978 -0.022839 68.9349 0.0704703C68.7491 0.186956 68.6328 0.373171 68.6328 0.582765V15.7229C68.6328 15.8625 68.5632 16.0022 68.4236 16.0955C68.2842 16.1652 68.1446 16.1652 68.0052 16.0955L65.541 14.6747C65.3603 14.5716 65.156 14.5174 64.9481 14.5174C64.7402 14.5174 64.5359 14.5716 64.3552 14.6747L54.4983 20.3813C54.1264 20.5909 53.8939 20.9869 53.8939 21.4061V32.7958C53.8939 33.215 54.1264 33.6112 54.4983 33.8208L64.3552 39.5274C64.5359 39.6305 64.7402 39.6847 64.9481 39.6847C65.156 39.6847 65.3603 39.6305 65.541 39.5274L75.3979 33.8208C75.7698 33.6112 76.0023 33.2152 76.0023 32.7958V4.4028C76.0023 3.96024 75.7698 3.56443 75.3979 3.35464L69.5162 0.0704703ZM68.6097 29.0459C68.6097 29.1624 68.5632 29.2555 68.4701 29.3021L65.0993 31.2586C65.0522 31.2816 65.0005 31.2935 64.9481 31.2935C64.8957 31.2935 64.844 31.2816 64.797 31.2586L61.4262 29.3021C61.333 29.2555 61.2866 29.139 61.2866 29.0459V25.1328C61.2866 25.0163 61.333 24.9232 61.4262 24.8766L64.797 22.92C64.844 22.897 64.8957 22.885 64.9481 22.885C65.0005 22.885 65.0522 22.897 65.0993 22.92L68.4701 24.8766C68.5632 24.923 68.6097 25.0397 68.6097 25.1328V29.0459ZM102.318 25.0397C102.691 24.8301 102.9 24.4341 102.9 24.0147V21.243C102.9 20.8238 102.667 20.4278 102.318 20.2182L92.5313 14.535C92.3506 14.432 92.1463 14.3778 91.9385 14.3778C91.7306 14.3778 91.5263 14.432 91.3457 14.535L81.4888 20.2414C81.1167 20.451 80.8844 20.847 80.8844 21.2664V32.6562C80.8844 33.0754 81.1167 33.4714 81.4888 33.681L91.2759 39.2711C91.648 39.4807 92.0895 39.4807 92.4383 39.2711L98.3663 35.9639C98.5523 35.8706 98.6686 35.661 98.6686 35.4514C98.6686 35.2418 98.5523 35.0322 98.3663 34.9389L88.4629 29.2324C88.277 29.1161 88.1608 28.9296 88.1608 28.7201V25.1564C88.1608 24.9468 88.277 24.7372 88.4629 24.6439L91.5549 22.8736C91.6454 22.8165 91.7502 22.7863 91.8571 22.7863C91.9641 22.7863 92.0688 22.8165 92.1593 22.8736L95.2511 24.6439C95.4372 24.7604 95.5535 24.9466 95.5535 25.1564V27.9514C95.5535 28.161 95.6697 28.3706 95.8556 28.4637C96.0416 28.5802 96.274 28.5802 96.46 28.4637L102.318 25.0397Z" fill="#333333"/>
<path d="M91.7884 24.5041C91.8229 24.4814 91.8633 24.4692 91.9046 24.4692C91.9459 24.4692 91.9863 24.4814 92.0208 24.5041L93.9039 25.5988C93.9737 25.6452 94.0202 25.7151 94.0202 25.8084V27.9979C94.0202 28.091 93.9737 28.1609 93.9039 28.2075L92.0208 29.3022C91.9863 29.3249 91.9459 29.3371 91.9046 29.3371C91.8633 29.3371 91.8229 29.3249 91.7884 29.3022L89.9053 28.2075C89.8355 28.1609 89.7891 28.091 89.7891 27.9979V25.8084C89.7891 25.7151 89.8355 25.6452 89.9053 25.5988L91.7884 24.5041Z" fill="#539E43"/>
<path d="M38.6204 14.581C38.4397 14.478 38.2355 14.4238 38.0276 14.4238C37.8198 14.4238 37.6155 14.478 37.4348 14.581L27.6477 20.2407C27.2756 20.4502 27.0664 20.8463 27.0664 21.2654V32.6089C27.0664 33.0281 27.2989 33.4241 27.6477 33.6337L37.4348 39.2937C37.6155 39.3967 37.8198 39.4509 38.0276 39.4509C38.2355 39.4509 38.4397 39.3967 38.6204 39.2937L48.4077 33.6337C48.7796 33.4241 48.989 33.0281 48.989 32.6089V21.2656C48.989 20.8465 48.7563 20.4504 48.4077 20.2409L38.6204 14.581Z" fill="url(#paint0_linear_1064_2101)"/>
</g>
<defs>
<linearGradient id="paint0_linear_1064_2101" x1="1521.93" y1="452.072" x2="446.226" y2="2139.07" gradientUnits="userSpaceOnUse">
<stop stop-color="#41873F"/>
<stop offset="0.3288" stop-color="#418B3D"/>
<stop offset="0.6352" stop-color="#419637"/>
<stop offset="0.9319" stop-color="#3FA92D"/>
<stop offset="1" stop-color="#3FAE2A"/>
</linearGradient>
<clipPath id="clip0_1064_2101">
<rect width="103" height="63.281" fill="white"/>
</clipPath>
</defs>
</svg>
