<svg width="88" height="88" viewBox="0 0 88 88" fill="none" xmlns="http://www.w3.org/2000/svg">
<g style="mix-blend-mode:luminosity" clip-path="url(#clip0_425_12120)">
<path d="M31.6302 61.5433L20.0903 41.5566L31.6302 21.5695H54.7089L66.2485 41.5566L54.7087 61.5433H31.6302Z" fill="#CAC9C2"/>
<path d="M43.5552 50.6799C38.5954 50.6799 34.5605 46.6448 34.5605 41.685C34.5605 36.7255 38.5954 32.6906 43.5552 32.6906C48.5147 32.6906 52.5495 36.7255 52.5495 41.685C52.5495 46.6448 48.5147 50.6799 43.5552 50.6799Z" fill="white"/>
<path d="M61.6502 14.869C60.9427 13.6441 59.2069 12.6421 57.7928 12.6421H29.3557C27.9414 12.6421 26.2055 13.6443 25.4986 14.869L17.1893 29.2612C17.1241 30.191 17.2946 31.1621 17.7047 31.8719L23.3293 41.4885L33.3698 24.1424H65.1057C65.8565 24.1424 66.6967 24.4267 67.427 24.8745L61.6502 14.869Z" fill="#5072AA"/>
<path d="M17.5505 28.6311L17.1869 29.261C17.1216 30.1908 17.2921 31.162 17.702 31.8717L23.3266 41.4883L26.3191 36.319L17.5505 28.6311Z" fill="#4D6796"/>
<path d="M30.0889 20.0357C29.6288 20.0352 29.1877 19.8521 28.8624 19.5268C28.5371 19.2015 28.3541 18.7604 28.3535 18.3003C28.3541 17.8403 28.5371 17.3992 28.8624 17.0739C29.1877 16.7486 29.6288 16.5655 30.0889 16.565C30.549 16.5654 30.9902 16.7484 31.3156 17.0737C31.641 17.3991 31.824 17.8402 31.8245 18.3003C31.8239 18.7605 31.6409 19.2016 31.3155 19.5269C30.9901 19.8522 30.549 20.0352 30.0889 20.0357ZM58.5256 18.3003C58.5283 18.5131 58.4887 18.7242 58.4092 18.9215C58.3297 19.1188 58.2117 19.2984 58.0623 19.4497C57.9128 19.6011 57.7347 19.7213 57.5384 19.8033C57.3422 19.8854 57.1315 19.9276 56.9188 19.9276C56.7061 19.9276 56.4954 19.8854 56.2992 19.8033C56.1029 19.7213 55.9248 19.6011 55.7754 19.4497C55.6259 19.2984 55.508 19.1188 55.4284 18.9215C55.3489 18.7242 55.3093 18.5131 55.312 18.3003C55.3173 17.8777 55.489 17.4742 55.7897 17.1772C56.0905 16.8802 56.4961 16.7137 56.9188 16.7137C57.3415 16.7137 57.7471 16.8802 58.0479 17.1772C58.3486 17.4742 58.5203 17.8777 58.5256 18.3003Z" fill="white"/>
<path d="M75.8688 39.4964L67.427 24.8741C66.6967 24.4262 65.8565 24.1422 65.1057 24.1422H53.6613L63.557 41.584L47.8901 69.2638C47.5453 69.8606 46.9557 70.4037 46.2788 70.8045H57.7927C59.2071 70.8045 60.943 69.8023 61.6502 68.5777L75.8688 43.9503C76.5762 42.7254 76.5762 40.7212 75.8688 39.4964Z" fill="#CC4232"/>
<path d="M67.8082 25.5303L67.4297 24.8742C66.6999 24.4263 65.8597 24.1423 65.1089 24.1423H53.6646L56.6432 29.3928L67.8082 25.5303Z" fill="#B23F33"/>
<path d="M56.9189 66.5506C56.4588 66.5501 56.0177 66.3671 55.6924 66.0417C55.367 65.7163 55.1841 65.2752 55.1836 64.815C55.1841 64.355 55.3671 63.9139 55.6925 63.5886C56.0178 63.2632 56.4589 63.0802 56.9189 63.0797C57.3791 63.0802 57.8202 63.2631 58.1456 63.5885C58.471 63.9138 58.654 64.3549 58.6545 64.815C58.6541 65.2752 58.4711 65.7164 58.1457 66.0418C57.8203 66.3672 57.3791 66.5502 56.9189 66.5506ZM70.4248 43.4206C69.9646 43.4201 69.5234 43.2371 69.198 42.9117C68.8726 42.5863 68.6896 42.1451 68.6891 41.685C68.6897 41.2248 68.8727 40.7837 69.1981 40.4584C69.5235 40.1331 69.9646 39.9501 70.4248 39.9496C70.8848 39.9502 71.3259 40.1332 71.6512 40.4585C71.9765 40.7838 72.1596 41.2249 72.1601 41.685C72.1597 42.1451 71.9767 42.5863 71.6514 42.9117C71.326 43.2371 70.8849 43.4201 70.4248 43.4206Z" fill="white"/>
<path d="M33.588 59.0291L17.7041 31.8716C17.2943 31.1618 17.1238 30.1907 17.1888 29.2609L11.2794 39.4963C10.5722 40.7211 10.5722 42.7253 11.2794 43.9502L25.4981 68.5776C26.205 69.8022 27.9408 70.8041 29.3552 70.8041H46.2783C46.9552 70.4036 47.5448 69.8605 47.8896 69.2634L53.6824 59.0288H33.588" fill="#ECB02A"/>
<path d="M45.3164 70.8045H46.3007C46.9778 70.4039 47.5671 69.8608 47.9117 69.2637L53.7048 59.0291H47.5358L45.3164 70.8045Z" fill="#C79732"/>
<path d="M30.0885 66.5508C29.6284 66.5503 29.1873 66.3673 28.862 66.0419C28.5366 65.7165 28.3537 65.2754 28.3532 64.8152C28.3537 64.3552 28.5367 63.9141 28.8621 63.5888C29.1874 63.2635 29.6285 63.0804 30.0885 63.0799C30.5487 63.0803 30.9899 63.2633 31.3152 63.5886C31.6406 63.9139 31.8237 64.3551 31.8241 64.8152C31.8237 65.2754 31.6407 65.7167 31.3153 66.0421C30.9899 66.3675 30.5487 66.5504 30.0885 66.5508ZM16.5588 43.4208C16.0987 43.4203 15.6575 43.2373 15.3321 42.9119C15.0067 42.5865 14.8237 42.1453 14.8232 41.6852C14.8238 41.2251 15.0068 40.7839 15.3322 40.4586C15.6576 40.1333 16.0987 39.9503 16.5588 39.9498C17.0189 39.9504 17.46 40.1334 17.7853 40.4587C18.1106 40.784 18.2936 41.2251 18.2942 41.6852C18.2937 42.1453 18.1107 42.5864 17.7854 42.9118C17.4601 43.2372 17.019 43.4202 16.5588 43.4208Z" fill="white"/>
</g>
<defs>
<clipPath id="clip0_425_12120">
<rect width="65.7367" height="58.2953" fill="white" transform="translate(10.6875 12.6307)"/>
</clipPath>
</defs>
</svg>
