<svg width="149" height="40" viewBox="0 0 149 40" fill="none" xmlns="http://www.w3.org/2000/svg">
<g style="mix-blend-mode:luminosity">
<path fill-rule="evenodd" clip-rule="evenodd" d="M5.02344 22.9281C5.93667 21.4239 6.51791 20.3342 7.66096 18.9273C8.46733 17.9348 10.2982 15.9901 11.7163 15.9901C12.1645 15.9901 12.6958 16.3808 12.6958 16.8063V26.3836C12.6855 27.5181 11.3519 27.3795 10.6823 27.1454C10.9832 27.7139 11.8719 28.5025 12.3617 28.8942C14.4836 30.5911 17.3086 31.2623 19.9414 31.6362L22.7933 28.6079C22.9569 28.7126 25.4122 30.7936 25.4836 30.9001C28.3853 29.2507 31.361 25.6848 32.612 22.8465C32.1466 23.1583 31.3453 24.2905 29.7108 25.1692C28.9947 25.5542 27.7878 25.8871 27.2592 25.068C27.2592 21.3526 27.0737 17.5306 27.221 13.8641C27.2359 13.4943 27.4529 13.2199 27.6121 12.9661C28.3763 11.7479 29.3324 10.6228 30.2209 9.50072C30.4172 9.25282 30.5672 9.09594 30.7687 8.83098C27.4381 9.5198 25.4127 10.9236 23.5377 12.575C23.4007 12.7138 23.2977 12.8397 23.1437 12.9428C22.3092 12.5013 21.8166 12.4531 20.7494 12.4531C21.4619 13.0396 21.9337 13.567 22.1762 14.5088C22.4015 15.3835 22.273 16.8779 22.273 17.9491V24.9688C21.917 25.0638 19.5723 27.4081 17.9923 25.8281C17.5342 25.37 17.6119 25.1961 17.6119 24.3413L17.5575 13.089C17.4385 13.1501 17.0823 13.406 16.6518 13.2089C15.9481 12.8866 15.9982 11.7021 15.9982 11.0484C15.9982 10.3433 16.6238 9.36865 16.975 8.97798C17.8955 7.9542 17.8422 8.10968 18.5499 7.61229C18.0516 7.65374 16.434 8.31668 15.9837 8.50364C12.9484 9.76257 8.32529 13.7851 6.27925 17.4955C5.29092 19.2879 4.83625 21.1856 5.02344 22.9281ZM19.6242 39.2484C30.4623 39.2484 39.2484 30.4624 39.2484 19.6242C39.2484 8.78606 30.4623 0 19.6242 0C8.78606 0 0 8.78606 0 19.6242C0 30.4624 8.78606 39.2484 19.6242 39.2484ZM19.6242 36.6981C29.0538 36.6981 36.6981 29.0538 36.6981 19.6242C36.6981 10.1946 29.0538 2.55037 19.6242 2.55037C10.1946 2.55037 2.55033 10.1946 2.55033 19.6242C2.55033 29.0538 10.1946 36.6981 19.6242 36.6981Z" fill="#192533"/>
</g>
<g style="mix-blend-mode:luminosity">
<path fill-rule="evenodd" clip-rule="evenodd" d="M148.571 20.2698H136.209V7.38403H140.072V17.2706H148.571V20.2698ZM53.9242 20.3942C50.8943 20.3726 46.1428 20.6352 46.1428 16.4395V7.38403H50.0058V14.7999C50.0058 16.5774 50.3235 17.397 52.7244 17.397H55.3447C57.7456 17.397 58.0633 16.5774 58.0633 14.7999V7.38403H61.9263V16.4395C61.9263 20.6351 57.1749 20.3726 54.1449 20.3942H53.9242ZM81.3524 20.2698H75.6129L68.2178 10.6751V20.2698H64.465V7.38403H70.3149L77.5997 16.8356V7.38403H81.3524V20.2698ZM99.1661 20.2698H95.3701V19.014C95.3701 17.4382 94.998 16.7057 92.3147 16.7092L87.7576 16.7151V20.2698H83.891V7.38403H93.9272C98.251 7.38403 99.1795 8.20934 99.1617 11.8316C99.1479 14.6581 97.7384 14.8984 96.6871 15.1572C98.9781 15.3884 99.1318 16.3359 99.1467 18.0444L99.1661 20.2698ZM87.7576 13.8269H93.2729C94.949 13.8269 95.2633 13.301 95.2653 12.5167L95.267 11.8661C95.2699 10.7346 94.9567 10.2722 93.198 10.2722H87.7576V13.8269ZM101.551 20.2698V7.38403H115.348V10.2722H105.304V12.3829H114.796V15.16H105.304V17.2706H115.569V20.2698H101.551ZM129.46 17.9371H121.651L120.462 20.2698H116.323L123.18 7.38403C124.758 7.3715 126.353 7.3715 127.931 7.38403L134.788 20.2698H130.649L129.46 17.9371ZM125.556 10.2781L123.067 15.1599H128.044L125.556 10.2781ZM116.482 31.9337V24.38H124.57V26.0731H118.682V27.3103H124.246V28.9383H118.682V30.1755H124.699V31.9337H116.482ZM70.0142 31.9337V24.38H78.102V26.0731H72.2142V27.3103H77.7785V28.9383H72.2142V30.1755H78.2314V31.9337H70.0142ZM89.2956 31.9337H85.9311L81.596 26.3092V31.9337H79.3961V24.38H82.8254L87.0957 29.9205V24.38H89.2956V31.9337ZM93.8333 24.261H97.0524C99.8559 24.261 100.03 25.562 100.034 26.9348H97.8287V26.9101C97.8287 26.4194 97.5298 26.0192 96.725 26.0192H94.2745C93.3014 26.0192 92.8506 26.5632 92.8506 27.2301V28.8784C92.8506 29.789 93.2167 30.1992 95.0425 30.1992H96.7278C97.5138 30.1992 97.9467 29.8278 97.9467 29.0455H95.0693V27.6014H100.154C100.163 30.6827 100.381 31.9574 96.5069 31.9574H94.816C92.5585 31.9574 90.6506 31.9784 90.6506 29.0847V27.0872C90.6506 26.3023 90.8787 25.4612 91.2526 25.0432C91.6818 24.5635 92.6162 24.261 93.8333 24.261ZM103.679 31.9337H101.361V24.38H103.679V31.9337ZM115.013 31.9337H111.649L107.313 26.3092V31.9337H105.113V24.38H108.543L112.813 29.9205V24.38H115.013V31.9337Z" fill="#192533"/>
</g>
</svg>
