<svg xmlns="http://www.w3.org/2000/svg" width="41" height="88" viewBox="0 0 41 88" fill="none"><path d="M8.90815 86.2506C-0.571846 85.9906 -9.03189 82.4806 -17.0719 77.8506C-19.2919 76.5706 -20.2319 74.4106 -19.9519 71.6006C-19.2019 64.0206 -18.5619 56.4306 -18.1319 48.8306C-17.4919 37.6106 -16.2019 26.4906 -13.9819 15.4806C-13.7519 14.3306 -13.6718 13.3006 -14.4018 12.1406C-14.9218 11.3106 -14.9719 9.90061 -14.6819 8.91061C-14.2119 7.31061 -13.3819 5.78061 -12.5019 4.35061C-12.2319 3.91061 -11.2618 3.66061 -10.6518 3.72061C-8.58185 3.93061 -6.91184 3.38062 -5.77184 1.59062C-4.94184 0.280619 -3.79187 -0.209391 -2.30187 0.0806094C0.00813103 0.530609 2.34812 0.900618 4.62812 1.48062C13.0181 3.60062 21.3981 5.78061 29.7781 7.99061C31.0281 8.32061 32.2082 8.89062 33.4082 9.37062C35.4282 10.1806 36.3981 11.5806 35.8081 13.6806C35.2681 15.6306 36.1781 16.5606 37.5581 17.3806C40.2681 18.9906 40.8282 20.6606 39.4782 23.5406C38.7782 25.0206 38.1781 26.5706 36.4381 27.2806C36.0381 27.4406 35.7681 28.1806 35.6181 28.7006C30.7181 46.1006 24.2181 62.9406 17.9581 79.8806C16.0681 85.0206 13.9682 86.3706 8.90815 86.2506ZM-6.40184 4.66061C-7.71185 5.00061 -9.02188 5.35061 -10.5619 5.75061C-3.28188 11.9506 5.31816 14.9206 13.7882 18.1706C4.44816 16.4906 -3.96189 12.8506 -11.0719 6.32061C-11.5919 7.21061 -12.0019 7.85061 -12.3619 8.53061C-13.5519 10.7706 -13.4019 11.4306 -11.3519 12.9906C-10.7419 13.4506 -10.1119 13.9206 -9.42186 14.2406C-5.89186 15.8706 -2.39186 17.5806 1.20814 19.0306C9.89814 22.5406 18.8381 25.1106 28.2681 25.4806C30.6081 25.5706 32.9981 25.5406 35.2981 25.1706C37.4281 24.8306 38.4581 21.3706 37.1381 19.6906C33.8181 20.8206 27.3181 20.7906 24.2781 19.2506C28.0581 19.2506 31.8481 19.2506 35.2381 19.2506C34.7281 17.5606 33.9881 16.1506 33.9481 14.7106C33.8681 12.1106 33.6781 11.4306 31.3081 10.3306C30.3481 9.89061 29.3381 9.51062 28.3181 9.26062C25.1181 8.48062 21.8981 7.81061 18.6881 7.05061C12.0981 5.49061 5.5181 3.86061 -1.0819 2.33061C-3.4719 1.78061 -5.05188 2.57061 -6.44188 4.71061L-6.40184 4.66061ZM34.6781 27.7806C17.3881 28.2606 1.97815 22.8206 -12.7219 14.6506C-12.9319 16.9006 -13.1019 19.1906 -13.3619 21.4806C-13.9819 27.0506 -14.7819 32.6106 -15.2319 38.1906C-16.1819 49.7806 -16.9219 61.3806 -17.8219 72.9806C-17.9319 74.4406 -17.4019 75.4006 -16.2319 76.0406C-10.8319 78.9906 -5.24184 81.5406 0.788158 82.8706C3.81816 83.5406 6.96814 83.7106 10.0781 83.9006C12.1881 84.0306 13.8581 82.9406 14.8181 81.0606C15.6681 79.3806 16.3581 77.6206 17.0181 75.8506C22.1081 62.0706 27.1681 48.2906 32.2381 34.5106C33.0281 32.3106 33.8281 30.1106 34.6781 27.7806Z" fill="#6F4F50"></path><path d="M5.0584 61.5005C2.0184 61.4205 -0.181597 59.8005 -2.1216 58.0405C-7.6516 53.0505 -7.09158 43.9005 -1.17158 39.2205C0.618415 37.8105 2.6684 37.3806 4.8084 37.4506C6.6684 37.5106 8.56843 37.7506 10.3484 38.2606C15.2284 39.6606 17.9384 43.6905 16.5684 49.5305C15.6184 53.5705 13.7684 57.1305 10.4584 59.6005C8.98842 60.6905 6.86839 60.8905 5.0584 61.5005Z" fill="#6F4F50"></path><path d="M-6.44189 4.71065C-2.94189 6.06065 0.558125 7.43065 4.07812 8.76065C9.58813 10.8607 15.1281 12.8806 21.0681 13.3606C22.8681 13.5106 24.6881 13.3806 26.4981 13.3806C26.5081 13.5706 26.5181 13.7706 26.5181 13.9606C25.1081 14.0406 23.6581 14.3506 22.2881 14.1507C18.5681 13.6207 14.7381 13.3006 11.2281 12.1106C5.49815 10.1706 -0.0118775 7.60064 -5.61188 5.28064C-5.91188 5.16064 -6.13186 4.87064 -6.40186 4.66064L-6.44189 4.71065Z" fill="#6F4F50"></path><path d="M22.1484 8.93031C25.2384 8.48031 27.9884 9.58032 30.6584 10.9803C30.9484 11.1303 31.2683 11.7503 31.1683 11.9703C31.0083 12.3203 30.5384 12.6303 30.1384 12.7303C29.7084 12.8403 29.1884 12.7803 28.7484 12.6503C26.9984 12.1203 25.2483 11.6103 23.5483 10.9503C22.8783 10.6903 22.3783 10.0203 21.7983 9.54031C21.9183 9.33031 22.0384 9.13031 22.1484 8.93031Z" fill="#6F4F50"></path><path d="M8.9986 7.62064C4.9386 6.13064 0.888613 4.63063 -3.17139 3.14062C-3.11139 2.97062 -3.05139 2.81063 -2.99139 2.64062C1.05861 4.10063 5.10863 5.55064 9.15863 7.01064C9.10863 7.21064 9.0586 7.42064 8.9986 7.62064Z" fill="#6F4F50"></path><path d="M33.7469 74.0003C38.5236 74.0687 39.769 77.5931 38.5783 81.1311C37.2712 85.0044 31.8444 88.1455 27.8274 87.4064C26.6093 87.1806 25.398 86.551 24.3578 85.8461C23.1123 84.9976 22.7154 83.6084 23.2013 82.1713C24.5631 78.1542 28.9292 73.9592 33.7469 74.0003ZM33.8153 74.7189C29.4219 74.8078 26.7393 77.073 24.7889 80.481C23.2766 83.1293 23.783 84.8402 27.0815 86.1541C27.7247 86.4141 28.5117 86.4347 29.2234 86.4005C32.5288 86.2362 34.9719 84.4706 37.018 82.0412C38.3935 80.4057 38.462 78.5717 37.6339 76.6966C36.8401 74.9242 35.2114 74.7462 33.8153 74.7189Z" fill="#6F4F50"></path><path d="M26.6914 83.2526C27.6289 82.2877 28.6623 81.3912 29.4903 80.3442C30.2705 79.3519 31.2559 79.0234 32.4124 78.9071C34.3765 78.7154 34.6913 78.2296 34.0685 76.3613C35.4988 77.641 35.2798 78.996 33.5279 79.6324C33.042 79.8104 32.4877 79.8104 32.0155 80.0088C31.4475 80.2483 30.8932 80.5563 30.3937 80.919C29.2166 81.7881 28.0738 82.712 26.9172 83.6084C26.842 83.4921 26.7667 83.3758 26.6914 83.2526Z" fill="#6F4F50"></path><path d="M38.3093 68.0519C37.0956 71.936 33.9157 72.0988 31.3151 70.2688C28.4689 68.2626 27.2193 63.0696 28.7965 59.9684C29.2762 59.0284 30.084 58.1918 30.9117 57.5133C31.9065 56.7019 33.1372 56.7145 34.193 57.4596C37.1433 59.5454 39.5106 64.1276 38.3093 68.0519ZM37.706 67.9336C38.6983 64.3243 37.4987 61.5846 35.1885 59.1658C33.3924 57.2888 31.8725 57.2877 30 59.6628C29.6317 60.1251 29.4242 60.7627 29.2796 61.3522C28.6126 64.0912 29.4622 66.5143 30.9501 68.7741C31.9523 70.2938 33.4334 70.7942 35.1653 70.5725C36.8051 70.3539 37.3452 69.067 37.706 67.9336Z" fill="#6F4F50"></path><path d="M32.4638 60.0474C33.0245 61.0469 33.5061 62.108 34.1604 63.038C34.7816 63.9156 34.811 64.7999 34.6257 65.7726C34.3061 67.4229 34.6266 67.7977 36.3031 67.742C34.9114 68.5998 33.858 68.0926 33.7629 66.5077C33.7354 66.0678 33.8698 65.6151 33.8222 65.1814C33.7643 64.6595 33.6471 64.1322 33.472 63.6363C33.0476 62.4645 32.5702 61.3073 32.1185 60.1455C32.2317 60.1123 32.345 60.079 32.4638 60.0474Z" fill="#6F4F50"></path></svg>