<svg xmlns="http://www.w3.org/2000/svg" width="101" height="52" viewBox="0 0 101 52" fill="none"><path d="M93.6023 23.1781C94.0423 23.3681 94.4123 23.5182 94.7723 23.6682C99.8323 25.7082 101.792 29.9481 100.042 35.1181C99.7023 36.1181 99.3423 37.1282 98.8723 38.0681C96.5923 42.6381 92.9023 44.5281 87.3123 43.9881C86.0223 43.8681 84.7523 43.5881 83.4623 43.4881C82.9223 43.4481 82.2523 43.5281 81.8223 43.8181C74.9423 48.4581 67.4823 48.8082 59.7823 46.6482C52.9523 44.7282 46.2923 42.3482 40.4223 38.2082C34.7823 34.2382 30.4123 29.3081 29.3223 22.2481C28.5223 16.9981 29.3323 11.7681 30.4323 6.61814C31.5823 1.25814 33.0023 0.308151 38.5223 0.0681513C49.2723 -0.391849 59.6323 1.51813 69.8923 4.54813C76.1723 6.39813 82.5523 7.90813 88.3623 11.0481C89.5023 11.6581 90.6423 12.3082 91.6723 13.0882C94.8923 15.5282 95.5623 18.2082 94.0123 21.9582C93.8623 22.3282 93.7623 22.7181 93.6023 23.1781ZM80.2723 41.9782C79.0323 40.5982 77.9123 40.1281 76.4023 41.1281C76.0823 41.3481 75.4723 41.1381 74.9923 41.1181C75.0223 40.7881 74.9423 40.4082 75.0923 40.1482C75.8923 38.7782 78.0423 37.9881 79.5923 38.5481C80.4123 38.8381 81.1823 39.2982 81.9623 39.7082C86.4023 42.0682 93.5423 42.5282 96.8823 36.9182C100.912 30.1582 97.0923 25.0282 91.5723 24.4582C90.6923 24.3682 89.7323 24.4081 88.9623 24.0581C88.1323 23.6881 87.4323 22.9682 86.7923 22.2882C86.6523 22.1382 86.9923 21.5281 87.1123 21.1181C87.4523 21.2581 88.0023 21.3181 88.0923 21.5581C88.7223 23.1681 90.0623 23.1181 91.3623 23.2381C93.2723 17.2281 92.8223 16.1082 87.4623 13.2582C87.1023 13.0682 86.7223 12.8882 86.3523 12.7082C77.3423 8.29817 67.6823 5.79815 58.0623 3.18815C51.1423 1.30815 44.0923 1.11816 37.0023 1.76816C34.3023 2.01816 33.1223 2.96817 32.7123 5.64817C32.1123 9.54817 31.5223 13.4882 31.3923 17.4182C31.1823 24.0582 33.6423 29.5082 39.0323 33.7282C44.8623 38.2882 51.4623 41.1681 58.3923 43.3681C62.4923 44.6681 66.7123 45.5182 71.1023 44.9682C74.3223 44.6082 77.3723 43.8882 80.2723 41.9782Z" fill="#6F4F50"></path><path d="M44.0021 3.51852C42.1621 3.63852 40.3221 3.66854 38.5021 3.91854C37.8221 4.00854 37.2021 4.60853 36.5621 4.96853C37.0921 5.51853 37.5421 6.21851 38.1821 6.57851C39.8121 7.50851 41.5121 7.60851 43.4421 7.25851C49.3421 6.17851 55.2121 7.00851 60.9921 8.25851C67.3721 9.63851 73.8621 10.7885 79.6221 14.1585C80.6921 14.7785 81.9621 15.2785 82.7021 16.1885C84.3221 18.1685 86.0421 17.5485 88.2921 16.7685C86.0621 15.2885 84.0921 13.9785 82.1221 12.6785C84.7821 13.1885 87.1422 14.3985 89.1521 16.1285C90.1222 16.9585 89.3021 18.1085 88.3921 18.3485C86.4921 18.8485 84.4921 19.2685 82.5421 19.2585C75.8121 19.2285 69.4121 17.1985 62.9421 15.6385C54.7421 13.6685 46.5921 11.5385 38.8121 8.19851C37.6321 7.69851 36.4621 7.06854 35.4621 6.28854C34.5021 5.54854 34.5421 4.5185 35.5521 3.7485C37.3121 2.3985 41.8821 2.13852 44.0021 3.51852ZM63.6721 11.5385C63.6721 11.2585 63.6721 10.9685 63.6721 10.6885C60.6621 10.6885 57.6421 10.6885 54.6321 10.6885C54.6221 10.7885 54.6021 10.8885 54.5921 10.9885C57.6221 11.1685 60.6521 11.3585 63.6721 11.5385Z" fill="#6F4F50"></path><path d="M78.9722 34.8379C80.2022 33.7879 81.5922 33.7279 83.4722 34.7579C85.5122 35.8879 85.8222 35.8579 87.1122 33.9379C87.9922 32.6279 88.7122 31.2179 89.6322 29.6379C88.2922 29.2579 87.1322 28.9279 85.9622 28.5979C87.8022 27.6279 91.0822 28.3479 92.6322 30.0579C94.3422 31.9479 94.6222 34.1479 93.0622 36.1579C92.1322 37.3579 90.8622 38.3879 89.5522 39.1879C88.9222 39.5679 87.7322 39.5379 87.0322 39.1979C84.3122 37.8579 81.6822 36.3279 78.9722 34.8379ZM91.2822 31.2579C90.1222 33.2279 89.0822 35.0079 87.9922 36.8579C90.8822 36.7479 92.6722 33.7579 91.2822 31.2579Z" fill="#6F4F50"></path><path d="M74.1221 19.738C71.6021 19.608 69.0821 19.488 66.5621 19.358C66.5221 19.658 66.4721 19.958 66.4321 20.248C68.5721 20.738 70.7121 21.228 72.8521 21.718C70.1621 21.608 67.5021 21.398 65.2021 19.708C68.1921 18.388 71.1521 18.998 74.1221 19.738Z" fill="#6F4F50"></path><path d="M5.18932 40.0176C1.65244 39.3248 -0.431399 36.7229 0.0754799 33.676C0.413399 31.6372 1.64681 30.1898 3.42088 29.2098C8.78253 26.253 16.7518 28.9732 19.2017 34.5771C19.8606 36.0864 19.8719 37.6184 19.3707 39.1446C19.2242 39.5952 18.9483 40.1922 18.5709 40.3499C17.7937 40.6765 17.6923 41.2341 17.5234 41.9325C16.7687 45.0357 15.3551 47.7897 12.8263 49.8341C10.8044 51.473 8.52346 51.9743 6.00596 51.1858C5.40334 51 4.78945 50.8423 4.19809 50.6395C2.41275 50.02 1.61301 48.7246 1.95093 46.8492C2.41276 44.3317 3.49973 42.0732 5.18932 40.0176ZM12.9784 36.9144C12.8094 36.9425 12.3757 36.9707 11.959 37.0777C6.92961 38.3505 4.00661 41.9437 3.11675 46.883C2.92527 47.9587 3.37582 48.7979 4.33889 49.2709C6.90708 50.5325 9.464 50.8028 11.9871 49.1076C14.7412 47.2547 16.2055 44.5795 16.8532 41.4087C17.4276 38.5983 16.0703 36.9482 12.9784 36.9144ZM17.8557 39.4656C18.0753 39.2122 18.2668 39.0658 18.3625 38.8687C19.0102 37.5902 18.8131 36.2892 18.4245 34.9882C17.6022 32.2567 15.4621 30.8205 13.0854 29.6716C10.2074 28.2805 7.28442 28.3594 4.45153 29.8124C2.72814 30.6966 1.60738 32.1159 1.45531 34.1096C1.25256 36.7341 3.69122 38.7391 5.47092 39.3755C5.64552 39.4375 5.88206 39.308 6.09044 39.2685C4.28821 38.4068 3.23502 37.134 2.9309 35.5064C3.57294 36.2779 4.23752 37.3086 5.12737 38.0802C5.86516 38.7222 6.78318 38.9081 7.81946 38.2548C9.12045 37.4381 10.5341 36.7341 11.9759 36.2047C14.2906 35.3656 16.8532 36.8017 17.8557 39.4656Z" fill="#6F4F50"></path><path d="M30.7531 48.212C28.703 48.1838 26.6868 48.0092 24.8169 47.1137C22.7219 46.1056 21.3983 44.5005 21.3307 42.0787C21.2913 40.637 21.9615 39.5669 23.1442 38.7333C25.8307 36.8354 28.7819 36.5031 31.8795 37.2578C33.4508 37.6407 35.0277 38.1026 36.5202 38.7333C38.7561 39.6795 39.3813 41.1495 38.7899 43.4867C38.1141 46.1676 36.4864 47.615 33.7268 47.9585C32.7412 48.0768 31.7443 48.1275 30.7531 48.212ZM30.4489 47.1137C30.4658 47.0631 30.4771 47.0067 30.494 46.956C31.4852 46.8716 32.5046 46.9054 33.462 46.6744C34.504 46.4266 35.6247 46.1225 36.4752 45.5143C38.5984 43.9936 38.7392 40.9467 36.8018 39.826C33.203 37.7477 29.2155 37.0438 25.3013 38.1251C21.8827 39.0713 21.2519 42.1069 23.4878 44.6526C24.0735 45.3171 24.9634 45.8465 25.8138 46.1056C27.3232 46.5731 28.9058 46.7871 30.4489 47.1137Z" fill="#6F4F50"></path><path d="M12.2122 38.1309C13.992 39.3417 13.9131 40.6258 12.0996 41.5495C11.7166 41.7409 11.2323 41.7579 10.8944 42C10.4776 42.3042 10.1284 42.7266 9.81865 43.1546C9.59337 43.4643 9.57084 43.9656 9.3005 44.1965C8.33743 45.03 7.30678 45.7847 6.30429 46.5676C6.21417 46.4943 6.11843 46.4155 6.02832 46.3423C6.40003 45.8185 6.68727 45.1877 7.16598 44.7935C7.99389 44.1064 8.60777 43.4136 8.74857 42.2704C8.80489 41.8367 9.39625 41.4425 9.80738 41.0933C9.98761 40.9412 10.3086 40.9581 10.5677 40.8961C12.3868 40.485 12.7022 39.9894 12.2122 38.1309Z" fill="#6F4F50"></path><path d="M15.5183 41.5156C15.1353 43.4361 14.0315 44.8835 12.7981 46.2465C12.7192 46.1958 12.6404 46.1508 12.5615 46.1001C13.0966 45.3792 13.6767 44.6864 14.161 43.9318C14.6623 43.1602 15.0678 42.3266 15.5183 41.5156Z" fill="#6F4F50"></path><path d="M9.30071 32.9043C9.04164 32.9043 8.63051 32.9043 8.19121 32.9043C8.14052 33.6872 8.63614 33.659 9.14865 33.7491C10.0723 33.9068 10.9959 34.1208 11.8745 34.4362C12.1111 34.5207 12.1899 35.0558 12.3363 35.3824C11.9872 35.3993 11.6267 35.4613 11.2888 35.4162C10.5735 35.3261 9.86954 35.1233 9.14865 35.0614C8.07294 34.9656 7.22251 34.7347 7.00849 33.4394C6.87896 32.6565 6.17496 32.5946 5.49349 32.7297C4.99787 32.8311 4.50789 32.9381 3.98975 32.9043C4.64869 32.4763 5.26821 31.9469 5.98347 31.6597C6.32702 31.5245 6.87332 31.7948 7.29009 31.9638C8.00535 32.2566 8.69809 32.6171 9.30071 32.9043Z" fill="#6F4F50"></path><path d="M23.8652 41.6003C24.9578 39.8656 26.4728 39.5277 28.123 40.5358C28.9397 41.0314 29.807 41.3637 30.7644 41.0934C32.561 40.5865 33.9409 41.758 35.4953 42.231C35.6023 42.2648 35.7206 42.5014 35.698 42.6197C35.6755 42.7379 35.484 42.9182 35.3657 42.9182C34.9771 42.9069 34.5435 42.9181 34.2112 42.7548C33.1355 42.2198 32.0429 42.3212 30.9052 42.4225C29.9985 42.507 29.0692 42.4282 28.1624 42.3155C27.8076 42.2705 27.419 41.9945 27.1712 41.7129C26.1687 40.5809 25.9096 40.5133 24.5467 41.2229C24.3214 41.3412 24.0961 41.4763 23.8652 41.6003Z" fill="#6F4F50"></path><path d="M27.0923 43.436C28.382 44.0724 28.382 44.0725 31.8006 43.5994C30.1505 44.7539 28.2356 44.6976 27.0923 43.436Z" fill="#6F4F50"></path></svg>