<svg width="70" height="42" viewBox="0 0 70 42" fill="none" xmlns="http://www.w3.org/2000/svg">
<path d="M9.21389 21.3468C2.94389 20.0968 -0.73611 15.5268 0.12389 10.1168C0.66389 6.70679 2.66389 4.19679 5.58389 2.43679C15.1439 -3.32321 29.9739 1.63679 34.2139 11.9768C35.2939 14.6268 35.2439 17.2768 34.3539 19.9268C34.1039 20.6768 33.6239 21.7168 33.0139 21.9068C31.4039 22.4168 31.4039 23.6368 31.0939 24.8868C29.7039 30.3868 27.1839 35.2568 22.6739 38.8668C19.1739 41.6668 15.2239 42.5268 10.8739 41.2468C9.80389 40.9268 8.72388 40.6268 7.66388 40.2768C4.30388 39.1768 2.84389 36.8368 3.50389 33.3368C4.34389 28.9268 6.24389 24.9668 9.21389 21.3468ZM14.9439 40.0968C17.1439 39.1868 19.4039 38.5868 21.2839 37.3968C26.4439 34.1368 28.9339 29.0768 30.0539 23.2468C30.8439 19.1568 28.8739 16.4268 24.7139 15.9268C23.6239 15.7968 22.4439 15.8168 21.3839 16.0768C12.3939 18.2668 7.11389 24.6668 5.53389 33.5368C5.22389 35.2768 5.81389 36.8468 7.44389 37.5368C9.81389 38.5368 12.2939 39.2168 14.9439 40.0968ZM5.35389 13.5668C6.41389 14.8068 7.66389 16.5768 9.23389 17.9868C10.0039 18.6768 11.5539 19.2168 12.4239 18.9168C15.0139 17.9968 17.5539 16.8168 19.8839 15.3668C21.3639 14.4368 22.7739 14.1368 24.3639 14.3568C27.9339 14.8368 30.7339 16.3668 31.6239 20.3868C32.0039 20.0368 32.2539 19.8868 32.3939 19.6568C33.7239 17.5268 33.4639 15.2568 32.8839 12.9868C31.5839 7.92679 27.7639 5.23678 23.4339 3.09678C18.2739 0.556783 13.0539 0.64679 7.94389 3.23679C4.87389 4.79679 2.88388 7.30678 2.59388 10.8468C2.21388 15.4868 6.48389 19.0568 9.68389 20.2268C10.0039 20.3468 10.4339 20.1368 11.1839 20.0268C6.97389 17.6568 5.96389 16.4168 5.35389 13.5668Z" fill="#6F4F50"/>
<path d="M54.6736 35.8867C51.0436 35.8367 47.4536 35.5467 44.1336 33.9567C40.3336 32.1467 37.9636 29.2567 37.8936 24.8767C37.8536 22.3867 39.0336 20.5367 41.0636 19.0867C45.8236 15.6767 51.0736 15.1267 56.5736 16.4367C59.4236 17.1167 62.2836 17.9667 64.9736 19.1167C68.8436 20.7767 69.9236 23.3667 68.9136 27.4467C67.7336 32.2267 64.8336 34.8367 59.9636 35.4367C58.2036 35.6467 56.4336 35.7367 54.6736 35.8867ZM54.0336 33.9367C54.0636 33.8367 54.0836 33.7467 54.1136 33.6467C55.8736 33.5067 57.6736 33.5467 59.3836 33.1567C61.1936 32.7467 63.1336 32.2567 64.6136 31.2267C69.2436 28.0167 68.7036 22.4667 63.7036 20.0867C57.7036 17.2367 51.2436 16.1867 44.9836 17.9367C39.1536 19.5667 37.5936 24.7767 41.6936 29.5267C42.7136 30.7167 44.3036 31.6567 45.8136 32.1367C48.4736 32.9767 51.2836 33.3667 54.0336 33.9367Z" fill="#6F4F50"/>
<path d="M10.7139 32.5768C11.3739 31.6468 11.8839 30.5268 12.7439 29.8168C14.2139 28.6068 15.3039 27.3568 15.5539 25.3368C15.6539 24.5668 16.7139 23.8668 17.4339 23.2568C17.7539 22.9868 18.3239 23.0168 18.7839 22.9168C22.0039 22.1768 22.5539 21.3168 21.7639 18.2368C24.5739 19.3868 24.9639 21.3668 22.6539 23.2668C21.8139 23.9468 20.7139 24.3768 19.6739 24.7268C18.4539 25.1268 17.5639 25.6868 17.3739 27.0768C17.3039 27.5768 17.1239 28.2068 16.7639 28.5068C14.9639 30.0568 13.0839 31.5168 11.2339 33.0068C11.0539 32.8568 10.8839 32.7168 10.7139 32.5768Z" fill="#6F4F50"/>
<path d="M27.6743 24.1567C26.8843 27.4067 24.9443 30.0067 22.4043 32.2567C24.1543 29.5567 25.9143 26.8567 27.6743 24.1567Z" fill="#6F4F50"/>
<path d="M17.1741 8.7368C16.0341 8.7368 15.3041 8.7368 14.5341 8.7368C14.5141 10.2868 15.5441 10.1868 16.4841 10.1668C18.2241 10.1268 19.9641 10.1568 21.2641 11.5268C21.6341 11.9168 21.6941 12.5968 21.8941 13.1468C21.3141 13.1868 20.7341 13.3168 20.1741 13.2368C18.7341 13.0368 17.3041 12.6868 15.8641 12.5168C14.1441 12.3068 12.8241 11.7968 12.5041 9.78679C12.2841 8.37679 11.1241 8.15679 9.89407 8.38679C8.98407 8.55679 8.08406 8.78679 6.91406 9.04679C9.41406 6.56679 11.4041 6.32679 14.1741 7.81679C14.9641 8.23679 15.9041 8.3568 17.1741 8.7368Z" fill="#6F4F50"/>
<path d="M42.374 24.1568C44.384 21.0368 46.904 20.6368 50.144 22.2968C51.464 22.9768 53.234 23.4368 54.634 23.1668C57.874 22.5368 60.294 24.4368 63.044 25.2768C63.224 25.3368 63.444 25.7668 63.394 25.9768C63.354 26.1868 63.004 26.4968 62.794 26.4968C62.104 26.4768 61.334 26.4968 60.744 26.1968C58.834 25.2468 56.894 25.4368 54.874 25.6168C53.264 25.7668 51.614 25.6268 50.004 25.4168C49.374 25.3368 48.684 24.8468 48.244 24.3468C46.484 22.3468 46.004 22.2268 43.584 23.4868C43.184 23.6968 42.784 23.9268 42.374 24.1568Z" fill="#6F4F50"/>
<path d="M56.4342 27.5666C53.3842 29.7566 50.0042 29.6366 48.0742 27.2666C50.8042 29.4866 53.5842 28.7766 56.4342 27.5666Z" fill="#6F4F50"/>
</svg>
