<svg xmlns="http://www.w3.org/2000/svg" width="51" height="8" viewBox="0 0 51 8" fill="none"><path d="M50.3649 4.36492C50.5665 4.16338 50.5665 3.83662 50.3649 3.63508L47.0807 0.350824C46.8791 0.149285 46.5524 0.149285 46.3508 0.350824C46.1493 0.552362 46.1493 0.879121 46.3508 1.08066L49.2702 4L46.3508 6.91934C46.1493 7.12088 46.1493 7.44764 46.3508 7.64918C46.5524 7.85071 46.8791 7.85071 47.0807 7.64918L50.3649 4.36492ZM1 3.48393C0.714981 3.48393 0.483929 3.71498 0.483929 4C0.483929 4.28502 0.714981 4.51607 1 4.51607V3.48393ZM50 3.48393L1 3.48393V4.51607L50 4.51607V3.48393Z" fill="#419586"></path></svg>