<svg width="145" height="147" viewBox="0 0 145 147" fill="none" xmlns="http://www.w3.org/2000/svg">
<path d="M96.851 32.5826C97.0653 32.5755 97.2779 32.6232 97.4686 32.7212C97.6593 32.8193 97.8218 32.9645 97.9407 33.1429C98.0492 33.3013 98.1125 33.4862 98.1238 33.6778C98.1351 33.8694 98.0938 34.0603 98.0045 34.2302L83.9193 62.1788C83.8422 62.3504 83.7191 62.4974 83.5637 62.6035C83.4082 62.7096 83.2265 62.7708 83.0385 62.7803C82.8104 62.7922 82.5835 62.739 82.3844 62.627C82.1955 62.5306 82.0345 62.3873 81.9169 62.2109C81.8114 62.0513 81.7516 61.8659 81.7439 61.6748C81.7363 61.4837 81.781 61.2942 81.8734 61.1268L95.9586 33.1781C96.0375 33.0059 96.1627 32.8591 96.3203 32.7539C96.4779 32.6488 96.6616 32.5895 96.851 32.5826Z" fill="#6F4F50"/>
<path d="M92.4735 65.2521L104.817 58.4629C104.954 58.386 105.104 58.3377 105.26 58.321C105.416 58.3043 105.574 58.3195 105.723 58.3657C105.873 58.4118 106.012 58.488 106.131 58.5896C106.251 58.6911 106.348 58.8159 106.418 58.9563C106.492 59.0745 106.541 59.207 106.561 59.3451C106.581 59.4832 106.572 59.624 106.535 59.7585C106.497 59.893 106.432 60.0181 106.344 60.126C106.255 60.2338 106.145 60.322 106.02 60.3848L93.6586 67.2088C93.4961 67.3034 93.3122 67.3554 93.1242 67.3598C92.9361 67.3643 92.7499 67.321 92.583 67.2341L92.5134 67.1984C92.3305 67.0905 92.1783 66.9376 92.0711 66.7544C91.964 66.5711 91.9055 66.3635 91.9012 66.1514C91.9071 65.9718 91.9615 65.7972 92.0586 65.646C92.1556 65.4948 92.2918 65.3727 92.4527 65.2926L92.4735 65.2521Z" fill="#6F4F50"/>
<path d="M129.206 64.7644C129.339 64.712 129.482 64.6875 129.625 64.6925C129.768 64.6975 129.908 64.7319 130.037 64.7935C130.167 64.8551 130.282 64.9427 130.376 65.0507C130.469 65.1586 130.54 65.2848 130.583 65.4212C130.64 65.5636 130.668 65.7159 130.665 65.8691C130.662 66.0223 130.628 66.1734 130.566 66.3133C130.503 66.4533 130.414 66.5793 130.302 66.6839C130.19 66.7885 130.058 66.8696 129.914 66.9223L104.826 76.121C104.692 76.176 104.549 76.202 104.405 76.1973C104.261 76.1926 104.119 76.1573 103.99 76.0938C103.74 75.9593 103.549 75.7385 103.451 75.4729C103.393 75.3308 103.364 75.1785 103.366 75.0249C103.368 74.8714 103.4 74.7198 103.462 74.5793C103.524 74.4389 103.614 74.3124 103.726 74.2074C103.838 74.1025 103.971 74.0214 104.115 73.9688L129.206 64.7644Z" fill="#6F4F50"/>
<path d="M69.8036 42.5971L72.9102 53.7722C72.9641 53.9891 72.9552 54.2168 72.8845 54.4287C72.8139 54.6407 72.6845 54.8282 72.5113 54.9693C72.3381 55.1105 72.1282 55.1995 71.9063 55.2261C71.6843 55.2526 71.4593 55.2155 71.2576 55.1191C71.13 55.0483 71.0193 54.9507 70.9331 54.833C70.8468 54.7153 70.7871 54.5804 70.758 54.4375L67.6454 43.2741C67.6035 43.1269 67.5919 42.9728 67.6113 42.821C67.6306 42.6693 67.6805 42.523 67.7579 42.3911C67.8353 42.2592 67.9387 42.1443 68.0618 42.0534C68.1848 41.9625 68.325 41.8975 68.4739 41.8622C68.6093 41.8167 68.7527 41.7999 68.895 41.8128C69.0373 41.8257 69.1754 41.868 69.3005 41.9372C69.4255 42.0063 69.5348 42.1007 69.6215 42.2143C69.7081 42.3279 69.7701 42.4583 69.8036 42.5971Z" fill="#6F4F50"/>
<path d="M45.0327 43.0986L48.1429 49.9626C48.204 50.0794 48.2398 50.2077 48.2481 50.3393C48.2563 50.4708 48.2366 50.6026 48.1905 50.726C48.1443 50.8494 48.0726 50.9617 47.9801 51.0555C47.8876 51.1494 47.7763 51.2227 47.6535 51.2706C47.4774 51.3521 47.2853 51.3932 47.0912 51.3909C46.8971 51.3887 46.7059 51.3431 46.5316 51.2576C46.295 51.1358 46.1078 50.936 46.0016 50.6921L42.8447 43.8334C42.7837 43.716 42.748 43.5871 42.7401 43.455C42.7321 43.3229 42.7519 43.1907 42.7983 43.0668C42.8447 42.943 42.9167 42.8302 43.0095 42.736C43.1023 42.6417 43.2139 42.568 43.3371 42.5196C43.4854 42.4414 43.6482 42.3944 43.8154 42.3813C43.9826 42.3683 44.1508 42.3895 44.3096 42.4437C44.4683 42.4979 44.6144 42.584 44.7387 42.6966C44.8631 42.8092 44.9631 42.946 45.0327 43.0986Z" fill="#6F4F50"/>
<path d="M50.5684 23.5244C50.7166 23.3708 50.9014 23.2574 51.1054 23.1945C51.3094 23.1317 51.5261 23.1216 51.7352 23.1651C51.9173 23.2076 52.0841 23.2998 52.217 23.4315C52.3499 23.5632 52.4435 23.7291 52.4876 23.9108L60.4561 50.4438C60.5154 50.6274 60.5248 50.8235 60.4833 51.0119C60.4418 51.2003 60.3509 51.3742 60.22 51.5159C60.0688 51.6668 59.8828 51.7783 59.6783 51.8404C59.4738 51.9026 59.2572 51.9135 59.0474 51.8722C58.9699 51.843 58.896 51.805 58.8272 51.7589C58.6996 51.6918 58.5874 51.5988 58.4979 51.4859C58.4083 51.373 58.3432 51.2427 58.3068 51.1033L50.3352 24.5907C50.2746 24.4084 50.2642 24.2131 50.3052 24.0254C50.3463 23.8377 50.4372 23.6646 50.5684 23.5244Z" fill="#6F4F50"/>
<path d="M110.831 82.0576L122.105 84.047C122.248 84.0672 122.386 84.1171 122.509 84.1936C122.632 84.2702 122.737 84.3716 122.819 84.4914C122.9 84.6112 122.955 84.7467 122.981 84.8891C123.007 85.0315 123.003 85.1778 122.968 85.3184C122.949 85.4691 122.898 85.6141 122.821 85.7446C122.743 85.8751 122.639 85.9883 122.516 86.0772C122.392 86.1661 122.252 86.2288 122.104 86.2615C121.955 86.2942 121.802 86.2961 121.652 86.2672L110.387 84.2604C110.272 84.2382 110.161 84.2007 110.056 84.1488C109.842 84.0333 109.679 83.8424 109.599 83.6133C109.529 83.4116 109.512 83.1953 109.551 82.9855C109.59 82.7757 109.682 82.5794 109.819 82.4158C109.942 82.2736 110.1 82.1659 110.277 82.1031C110.455 82.0403 110.645 82.0246 110.831 82.0576Z" fill="#6F4F50"/>
<path d="M26.959 72.2188C27.1707 71.8356 27.4145 71.4711 27.6879 71.1291L28.0958 70.6066C28.2346 70.4364 28.3907 70.2897 28.5501 70.108L29.0217 69.6183L29.5187 69.2075C30.1853 68.6589 30.9166 68.1939 31.6963 67.823C32.4705 67.4492 33.2827 67.1598 34.1189 66.9598C34.5281 66.848 34.9367 66.7945 35.3804 66.7298C35.8241 66.665 36.232 66.6698 36.6519 66.6513C37.0717 66.6329 37.5055 66.6729 37.9309 66.6866L39.2027 66.8499L40.4496 67.147L41.6255 67.5539C42.1001 66.4883 42.634 65.45 43.2246 64.444C43.5303 63.9349 43.8505 63.4405 44.1822 62.9521L44.6972 62.2357L44.9662 61.8834C45.0498 61.7655 45.1416 61.6537 45.2409 61.5487C45.3052 61.3739 45.4116 61.2176 45.5507 61.0938C45.6898 60.9699 45.8574 60.8822 46.0385 60.8385C46.2304 60.8023 46.4286 60.8228 46.6091 60.8976L47.0612 61.13L48.9057 61.9467L52.5712 63.6118C55.0183 64.7627 57.4518 65.9114 59.8717 67.0581C62.2984 68.2107 64.7129 69.401 67.1217 70.5883C69.5305 71.7757 71.9244 72.992 74.3212 74.217C76.7179 75.4421 79.0878 76.7192 81.4816 77.9501C83.8753 79.1809 86.2098 80.4985 88.5561 81.8074C90.9023 83.1164 93.2367 84.4485 95.5681 85.7864L99.0284 87.8219C100.178 88.5227 101.351 89.1481 102.485 89.907L102.433 89.8801C103.554 90.5515 103.576 91.9325 103.28 92.9223C103.039 93.9646 102.7 94.9818 102.267 95.9603C101.392 97.9028 100.349 99.7649 99.1493 101.526C97.9642 103.289 96.7618 105.043 95.4697 106.729C94.1728 108.424 92.7588 110.026 91.238 111.524C89.7169 113.008 88.0826 114.37 86.3498 115.601C85.4803 116.223 84.5794 116.792 83.6554 117.334L82.2774 118.09L80.8356 118.813C76.9691 120.669 72.794 121.798 68.5181 122.145C66.3795 122.32 64.2283 122.272 62.0995 122.001C59.9571 121.718 57.8551 121.185 55.8365 120.413C55.3276 120.236 54.8288 120.031 54.3423 119.799C53.8671 119.554 53.3794 119.377 52.9074 119.098C52.4355 118.818 51.9395 118.6 51.491 118.303L50.0811 117.454C48.313 116.225 46.6866 114.804 45.2314 113.218C42.3261 110.025 40.1376 106.248 38.813 102.141C38.1354 100.103 37.6692 98.0009 37.4217 95.8679C37.1692 93.8531 37.0299 91.8257 37.0044 89.7955L36.0407 89.7173C35.61 89.6569 35.1856 89.5559 34.7551 89.481C33.8992 89.2769 33.0657 88.9881 32.267 88.619C30.6794 87.8907 29.2645 86.8337 28.116 85.518C26.966 84.2043 26.1362 82.6422 25.6917 80.9544C25.4686 80.1153 25.3489 79.2521 25.3352 78.384C25.3175 77.9505 25.335 77.5162 25.3873 77.0855C25.4101 76.8702 25.4125 76.6518 25.4468 76.4424L25.5881 75.7828L25.7294 75.1233C25.7902 74.8909 25.8592 74.714 25.9286 74.4935C26.0487 74.0727 26.2053 73.6632 26.3967 73.2697C26.5574 72.9057 26.7454 72.5545 26.959 72.2188ZM37.919 78.4109C38.0355 77.6953 38.2049 76.9895 38.4259 76.2991C38.6078 75.6604 38.8452 74.999 39.0388 74.3516C38.7981 74.2953 38.5525 74.2622 38.3055 74.2528C38.0161 74.2283 37.7247 74.2436 37.4395 74.2981C36.8766 74.3942 36.3446 74.6226 35.8876 74.9646C34.9938 75.6304 34.3995 76.6222 34.2341 77.7243C34.2015 77.9908 34.1859 78.2592 34.1874 78.5277C34.1976 78.7905 34.2299 79.052 34.2837 79.3095C34.3305 79.5781 34.4068 79.8408 34.5112 80.0928C34.6016 80.3471 34.7233 80.5892 34.8734 80.8136C35.0226 81.044 35.1994 81.2554 35.3998 81.443C35.598 81.6413 35.8169 81.8176 36.0527 81.9691C36.2972 82.1242 36.5552 82.2568 36.8236 82.3655C37.0792 82.4755 37.3409 82.5709 37.6073 82.6513C37.5678 81.2301 37.6702 79.8086 37.9132 78.4079L37.919 78.4109ZM84.0735 82.3729L73.8859 76.9734L63.6328 71.7013L53.8834 66.7322L55.7927 68.0215L58.1939 69.6369L60.6337 71.1916L63.0913 72.7116L65.5874 74.1708L68.0955 75.6069L70.6185 77.014L73.1623 78.3806L75.7299 79.7009L78.3033 81.0241L80.9097 82.2691L83.5605 83.4418C84.4483 83.8104 85.3648 84.2084 86.2295 84.5506L88.9315 85.5811L91.6314 86.53L92.2557 86.7412L84.0735 82.3729ZM39.7895 82.4408L39.5867 84.4599C39.5208 85.1583 39.5048 85.8164 39.4596 86.4888C39.402 87.8455 39.3852 89.1988 39.4093 90.5487C39.4409 91.9123 39.4875 93.247 39.6066 94.6116C39.7906 96.4472 40.1314 98.2638 40.6254 100.041C41.6341 103.595 43.3294 106.917 45.6154 109.82C46.7561 111.262 48.0403 112.585 49.4482 113.768C50.8538 114.941 52.3815 115.96 54.005 116.806C54.3958 117.044 54.8164 117.224 55.2222 117.432C55.6308 117.629 56.0491 117.805 56.4754 117.959C56.9079 118.116 57.3403 118.287 57.7787 118.432L59.057 118.796C60.829 119.256 62.6392 119.552 64.4651 119.681C66.2906 119.781 68.1213 119.725 69.9371 119.514C71.7526 119.277 73.5474 118.903 75.3059 118.394C78.7318 117.36 81.9799 115.81 84.9386 113.799L83.3562 113.256C83.1448 113.204 82.961 113.074 82.8422 112.892C82.7234 112.71 82.6786 112.489 82.7171 112.275C82.7639 112.062 82.8929 111.875 83.0763 111.756C83.2598 111.636 83.4828 111.594 83.6974 111.637L86.5689 112.623C87.5142 111.898 88.4224 111.126 89.29 110.31C88.8229 110.068 88.3304 109.878 87.8215 109.745C86.787 109.477 87.1254 107.85 88.157 108.124C88.9931 108.338 89.7949 108.669 90.5389 109.107C91.1696 108.465 91.7713 107.807 92.3675 107.118L91.6083 106.728C91.413 106.627 91.2657 106.454 91.1985 106.245C91.1314 106.036 91.1501 105.809 91.2504 105.614C91.3507 105.419 91.5244 105.272 91.7334 105.205C91.9423 105.138 92.1694 105.156 92.3646 105.257L93.4427 105.811C94.007 105.113 94.5539 104.405 95.0864 103.683L93.1434 102.802C92.172 102.353 92.9284 100.882 93.9028 101.325L96.0747 102.317C96.2375 102.086 96.4032 101.864 96.5602 101.63C96.9037 101.132 97.2356 100.629 97.5617 100.124L96.0519 99.6108C95.8397 99.5593 95.6549 99.429 95.5351 99.2464C95.4154 99.0638 95.3695 98.8425 95.407 98.6275C95.4538 98.4137 95.5828 98.227 95.7662 98.1076C95.9497 97.9882 96.1727 97.9457 96.3873 97.9893L98.4459 98.689C98.7785 98.1278 99.1233 97.5142 99.43 96.9178C99.4717 96.8367 99.5104 96.7614 99.5521 96.6803C98.7497 96.5572 97.9659 96.3337 97.2192 96.0153C96.2387 95.599 96.995 94.128 97.9755 94.5443C98.7012 94.8508 99.4698 95.0435 100.254 95.1155C100.681 94.0947 101.001 93.0325 101.21 91.9457L97.6128 90.9456L93.8954 89.7663L90.1961 88.5232L86.5242 87.1843L82.8739 85.7321L79.2682 84.1929L75.7162 82.5495L72.2088 80.8193L68.752 78.9906L65.34 77.075L61.9785 75.061L58.6706 72.9428L55.4044 70.7434L52.2207 68.4693L49.0988 66.1319L46.3343 63.8976L45.3665 65.2525C45.0281 65.8107 44.6724 66.3601 44.3218 66.9706C43.9712 67.5811 43.7084 68.1636 43.4017 68.7601C43.095 69.3566 42.8462 69.9829 42.5917 70.6062C42.3371 71.2295 42.1057 71.8647 41.8832 72.4972L41.398 74.481L40.893 76.4181L40.4634 78.3938L40.1091 80.4084L39.7895 82.4408ZM28.4895 81.756C28.6548 82.09 28.8525 82.4039 29.0326 82.7235L29.6844 83.6079C29.935 83.8759 30.1739 84.1525 30.4275 84.4147C30.6811 84.6769 30.9671 84.9045 31.2531 85.1321C31.5391 85.3597 31.8429 85.5671 32.1468 85.76C32.4507 85.9529 32.7721 86.1401 33.1026 86.2954C33.4332 86.4508 33.7518 86.6292 34.1121 86.7266C34.4724 86.824 34.809 86.9532 35.1636 87.0476C35.5181 87.142 35.8787 87.2103 36.2423 87.2728L37.1273 87.3617L37.3098 84.7976L37.0216 84.7738C36.8617 84.7591 36.7064 84.7117 36.5656 84.6346L35.9731 84.4471L35.3697 84.1954C34.6024 83.8305 33.9055 83.3333 33.3108 82.7266C33.0138 82.4226 32.748 82.0897 32.5173 81.7329C32.3991 81.5565 32.293 81.3723 32.1999 81.1816C32.0992 80.9932 32.0108 80.7985 31.9352 80.5988C31.7647 80.2044 31.6372 79.7927 31.5552 79.371C31.4833 78.9494 31.4577 78.5213 31.4789 78.0942C31.4911 77.6662 31.5456 77.2405 31.6414 76.8232C31.7349 76.3931 31.8784 75.9753 32.0689 75.5785C32.1505 75.3769 32.2502 75.1831 32.3667 74.9994C32.4772 74.8101 32.602 74.6295 32.7398 74.459C32.8654 74.2751 33.0078 74.1032 33.1651 73.9455C33.3119 73.7695 33.4757 73.6085 33.6541 73.4647C33.8127 73.312 33.986 73.1755 34.1715 73.0571C34.3452 72.9231 34.5309 72.8053 34.7262 72.7053C34.916 72.5957 35.1127 72.4988 35.3152 72.415C35.5129 72.3217 35.7174 72.2433 35.9268 72.1803C36.1334 72.1094 36.3443 72.0515 36.5582 72.0071C36.7722 71.9538 36.9898 71.9164 37.2093 71.8952C37.9636 71.7873 38.7311 71.815 39.4758 71.9769C39.7556 71.1762 40.047 70.3814 40.3326 69.5837L39.7809 69.4025L38.8478 69.179C38.5307 69.1258 38.2135 69.0872 37.8992 69.0428L36.9409 68.9967C36.6204 68.9929 36.3025 69.0125 35.9818 69.0234L35.0276 69.1405L34.0748 69.3828L33.1685 69.649L32.287 70.0378C32.0054 70.2006 31.7211 70.3546 31.4423 70.5261C31.1636 70.6976 30.9987 70.8472 30.7783 71.0194L31.9328 71.5105C32.9163 71.921 32.1541 73.389 31.1764 72.9815L29.5344 72.2983C29.4868 72.3909 29.3928 72.4598 29.3335 72.5465C29.1846 72.836 28.9546 73.0839 28.7941 73.3674C28.6336 73.651 28.4963 73.9466 28.3415 74.2477L29.5552 74.923C30.4879 75.4466 29.7285 76.9233 28.7959 76.3998L27.8342 75.8614L27.7423 76.2681C27.6741 76.6431 27.6583 77.0158 27.6135 77.3881C27.6059 77.5453 27.6071 77.6997 27.6084 77.8541L29.1719 78.5189C29.3671 78.6193 29.5145 78.7931 29.5816 79.002C29.6487 79.2109 29.6301 79.4378 29.5298 79.6329C29.4295 79.828 29.2558 79.9752 29.0468 80.0421C28.8378 80.1091 28.6108 80.0903 28.4155 79.9899L27.8121 79.7382C27.8902 80.0566 27.9917 80.3724 28.0612 80.679C28.1307 80.9857 28.3681 81.3934 28.4984 81.7386L28.4895 81.756Z" fill="#6F4F50"/>
</svg>
