<svg width="610" height="161" viewBox="0 0 610 161" fill="none" xmlns="http://www.w3.org/2000/svg">
<line x1="93.1838" y1="0.530094" x2="0.918485" y2="160.338" stroke="#6F4F50" stroke-width="2.12038"/>
<line x1="123.49" y1="0.530094" x2="31.2251" y2="160.338" stroke="#6F4F50" stroke-width="2.12038"/>
<line x1="153.796" y1="0.530094" x2="61.5308" y2="160.338" stroke="#6F4F50" stroke-width="2.12038"/>
<line x1="184.103" y1="0.530094" x2="91.8374" y2="160.338" stroke="#6F4F50" stroke-width="2.12038"/>
<line x1="214.409" y1="0.530094" x2="122.144" y2="160.338" stroke="#6F4F50" stroke-width="2.12038"/>
<line x1="244.715" y1="0.530094" x2="152.45" y2="160.338" stroke="#6F4F50" stroke-width="2.12038"/>
<line x1="275.021" y1="0.530094" x2="182.755" y2="160.338" stroke="#6F4F50" stroke-width="2.12038"/>
<line x1="305.326" y1="0.530094" x2="213.061" y2="160.338" stroke="#6F4F50" stroke-width="2.12038"/>
<line x1="335.633" y1="0.530094" x2="243.368" y2="160.338" stroke="#6F4F50" stroke-width="2.12038"/>
<line x1="365.939" y1="0.530094" x2="273.673" y2="160.338" stroke="#6F4F50" stroke-width="2.12038"/>
<line x1="396.245" y1="0.530094" x2="303.98" y2="160.338" stroke="#6F4F50" stroke-width="2.12038"/>
<line x1="426.55" y1="0.530094" x2="334.285" y2="160.338" stroke="#6F4F50" stroke-width="2.12038"/>
<line x1="456.856" y1="0.530094" x2="364.59" y2="160.338" stroke="#6F4F50" stroke-width="2.12038"/>
<line x1="487.162" y1="0.530094" x2="394.897" y2="160.338" stroke="#6F4F50" stroke-width="2.12038"/>
<line x1="517.468" y1="0.530094" x2="425.203" y2="160.338" stroke="#6F4F50" stroke-width="2.12038"/>
<line x1="547.775" y1="0.530094" x2="455.509" y2="160.338" stroke="#6F4F50" stroke-width="2.12038"/>
<line x1="578.08" y1="0.530094" x2="485.815" y2="160.338" stroke="#6F4F50" stroke-width="2.12038"/>
<line x1="608.387" y1="0.530094" x2="516.122" y2="160.338" stroke="#6F4F50" stroke-width="2.12038"/>
</svg>
