<svg width="160" height="41" viewBox="0 0 160 41" fill="none" xmlns="http://www.w3.org/2000/svg">
<path d="M57.0891 17.9629C59.0029 17.9629 60.6461 18.6646 62.0155 20.0681C63.3849 21.4749 64.0713 23.1543 64.0713 25.1096C64.0713 27.1023 63.3816 28.7919 62.002 30.1818C60.6225 31.575 58.9454 32.2699 56.9707 32.2699C55.0096 32.2699 53.3359 31.5716 51.9496 30.175C50.5633 28.7749 49.8701 27.0887 49.8701 25.1096C49.8701 23.1134 50.5667 21.4238 51.9631 20.0408C53.3596 18.6544 55.0705 17.9629 57.0891 17.9629ZM56.9707 21.9893C56.1457 21.9893 55.4424 22.2959 54.8608 22.9056C54.2793 23.5154 53.9885 24.2546 53.9885 25.1164C53.9885 25.9782 54.2793 26.7174 54.8642 27.3272C55.4492 27.9369 56.1525 28.2435 56.9707 28.2435C57.8025 28.2435 58.5092 27.9403 59.0874 27.3306C59.6655 26.7242 59.953 25.9851 59.953 25.1164C59.953 24.2478 59.6655 23.5086 59.0874 22.9022C58.5092 22.2925 57.8025 21.9893 56.9707 21.9893ZM70.0256 24.7076V28.3661H68.6867V31.9225H64.6697V23.4643C64.6697 21.8735 65.1567 20.562 66.1305 19.5231C67.1043 18.4841 68.3317 17.9629 69.8093 17.9629C71.439 17.9629 72.8017 18.668 73.9006 20.0783L70.6005 22.5071C70.4145 21.9995 70.0865 21.744 69.6199 21.744C68.9977 21.744 68.6867 22.1698 68.6867 23.0249V24.7076H70.0256ZM78.7797 24.7076V28.3661H77.4407V31.9225H73.4238V23.4643C73.4238 21.8735 73.9107 20.562 74.8845 19.5231C75.8583 18.4841 77.0856 17.9629 78.5632 17.9629C80.193 17.9629 81.5556 18.668 82.6545 20.0783L79.3544 22.5071C79.1685 21.9995 78.8405 21.744 78.3739 21.744C77.7518 21.744 77.4407 22.1698 77.4407 23.0249V24.7076H78.7797ZM89.6638 23.604V26.6288H87.0501C86.6951 26.6288 86.4415 26.6834 86.2961 26.789C86.1474 26.898 86.073 27.0785 86.073 27.334C86.073 27.6236 86.1474 27.8109 86.2995 27.9029C86.4516 27.9949 86.7593 28.0391 87.226 28.0391H89.9276V31.9225H86.7729C85.2851 31.9225 84.1456 31.5648 83.3578 30.8529C82.57 30.1375 82.1778 29.1053 82.1778 27.7564V22.4151C82.1778 21.107 82.5497 20.0919 83.2936 19.3697C84.0408 18.651 85.0856 18.2899 86.4381 18.2899H89.9276V22.2141H87.3646C86.6782 22.2141 86.3367 22.4424 86.3367 22.8954C86.3367 23.1611 86.4178 23.3451 86.5801 23.4473C86.7458 23.5528 87.0366 23.604 87.4525 23.604H89.6638ZM98.428 23.604V26.6288H95.8143C95.4593 26.6288 95.2057 26.6834 95.0603 26.789C94.9115 26.898 94.8371 27.0785 94.8371 27.334C94.8371 27.6236 94.9115 27.8109 95.0637 27.9029C95.2158 27.9949 95.5235 28.0391 95.9901 28.0391H98.6917V31.9225H95.537C94.0493 31.9225 92.9098 31.5648 92.122 30.8529C91.3342 30.1375 90.9419 29.1053 90.9419 27.7564V22.4151C90.9419 21.107 91.3139 20.0919 92.0578 19.3697C92.805 18.651 93.8498 18.2899 95.2023 18.2899H98.6917V22.2141H96.1287C95.4423 22.2141 95.1008 22.4424 95.1008 22.8954C95.1008 23.1611 95.182 23.3451 95.3443 23.4473C95.51 23.5528 95.8008 23.604 96.2166 23.604H98.428Z" fill="#6F4F50"/>
<path d="M121.669 17.9624C123.583 17.9624 125.226 18.6641 126.596 20.0676C127.965 21.4745 128.651 23.1538 128.651 25.1091C128.651 27.1018 127.962 28.7915 126.582 30.1813C125.203 31.5745 123.525 32.2694 121.551 32.2694C119.59 32.2694 117.916 31.5711 116.53 30.1745C115.143 28.7744 114.45 27.0882 114.45 25.1091C114.45 23.1129 115.147 21.4233 116.543 20.0403C117.94 18.6539 119.651 17.9624 121.669 17.9624ZM121.551 21.9888C120.726 21.9888 120.023 22.2954 119.441 22.9051C118.859 23.5149 118.569 24.2541 118.569 25.1159C118.569 25.9777 118.859 26.717 119.444 27.3267C120.029 27.9365 120.733 28.243 121.551 28.243C122.383 28.243 123.089 27.9399 123.667 27.3301C124.246 26.7238 124.533 25.9846 124.533 25.1159C124.533 24.2473 124.246 23.5081 123.667 22.9017C123.089 22.292 122.383 21.9888 121.551 21.9888ZM133.551 22.2136V31.922H129.534V18.2894H134.765C137.061 18.2894 138.859 18.814 140.161 19.8666C141.706 21.127 142.477 22.8336 142.477 24.9933C142.477 27.0576 141.818 28.7403 140.496 30.045C139.177 31.3497 137.476 32.0037 135.397 32.0037C135.154 32.0037 134.755 31.9901 134.2 31.9629V27.9569H134.842C137.186 27.9569 138.359 26.969 138.359 24.9967C138.359 23.1402 137.206 22.2136 134.903 22.2136H133.551ZM150.572 23.6035V26.6284H147.958C147.603 26.6284 147.35 26.6829 147.204 26.7885C147.055 26.8975 146.981 27.078 146.981 27.3335C146.981 27.6231 147.055 27.8104 147.208 27.9024C147.36 27.9944 147.667 28.0386 148.134 28.0386H150.836V31.922H147.681C146.193 31.922 145.054 31.5643 144.266 30.8524C143.478 30.137 143.086 29.1049 143.086 27.7559V22.4146C143.086 21.1065 143.458 20.0914 144.202 19.3693C144.949 18.6505 145.994 18.2894 147.346 18.2894H150.836V22.2136H148.273C147.586 22.2136 147.245 22.4419 147.245 22.8949C147.245 23.1606 147.326 23.3446 147.488 23.4468C147.654 23.5524 147.945 23.6035 148.361 23.6035H150.572Z" fill="#193451"/>
<path d="M115.394 12.6937L110.637 21.43L115.367 31.9463H109.343L105.263 21.3146L109.884 12.6937H115.394ZM105.101 12.6937V31.9463H99.7441V12.6937H105.101Z" fill="#193451"/>
<path fill-rule="evenodd" clip-rule="evenodd" d="M53.8949 11.3654L46.9607 24.6033L53.8554 40.5383H45.0743L39.126 24.4283L45.863 11.3654H53.8949ZM38.8894 11.3654V40.5383H31.0811V31.1657H31.7016H35.7845V29.7437V19.9818V18.5598V18.5598H31.0811V11.3654H38.8894ZM31.0811 29.7437V19.9818H31.7016V29.7437H31.0811Z" fill="#6F4F50"/>
<path d="M8.57617 26.8829V25.5059L12.9151 22.1472V23.625L9.47703 26.2028L12.9151 28.8142V30.292L8.57617 26.8829ZM13.4298 32.3408L15.3419 19.9137H15.993L14.081 32.3408H13.4298ZM20.8375 26.8829L16.4986 30.292V28.8142L19.9274 26.2028L16.4986 23.625V22.1472L20.8375 25.5059V26.8829Z" fill="#6F4F50"/>
<path fill-rule="evenodd" clip-rule="evenodd" d="M0 40.4243H29.4136V31.1657H26.2832V29.7437H29.4136V19.9818H26.2832V18.5598H29.4136V11.0468L20.084 11.0628L20.0627 13.9431L22.2236 13.9504V37.5211H7.18998V13.95L9.36335 13.9484L9.34277 11.0572L0 11.0466V40.4243Z" fill="#193451"/>
<path d="M35.5538 30.9392H26.54V29.9696H31.9335V19.7556H26.54V18.786H35.5538V30.9392Z" fill="#193451"/>
<path d="M12.8895 10.9627C12.4995 10.6181 12.1474 10.1989 11.8342 9.70397C11.5209 9.20902 11.3171 8.67714 11.2218 8.10947C11.1378 7.60861 11.141 7.11616 11.2316 6.63222C11.3387 6.06935 11.5522 5.49211 11.8721 4.90044L12.294 4.83447C12.104 5.31295 11.9812 5.65276 11.9278 5.85344C11.8436 6.16396 11.7895 6.48305 11.7666 6.81052C11.7388 7.21835 11.7583 7.62101 11.825 8.0185C11.9948 9.02994 12.4902 9.98938 13.3114 10.8968L12.8895 10.9627Z" fill="#6F4F50"/>
<path d="M14.1229 6.0623C14.3801 5.61639 14.5771 5.11136 14.7125 4.54635C14.8479 3.98126 14.8673 3.41444 14.772 2.84681C14.688 2.34591 14.5238 1.87965 14.2796 1.44804C13.9938 0.946621 13.6025 0.46393 13.1054 0L12.6836 0.0659208C13.0203 0.462082 13.248 0.747079 13.3643 0.921247C13.5457 1.19022 13.7014 1.47651 13.8303 1.78027C13.99 2.15878 14.1032 2.54678 14.1699 2.94427C14.3396 3.95571 14.1833 5.01707 13.701 6.12826L14.1229 6.0623Z" fill="#6F4F50"/>
<path d="M12.6843 4.03643V3.38171H13.3626V4.03643H12.6843ZM12.6843 6.77976V6.12504H13.3626V6.77976C13.3626 7.02092 13.3185 7.21625 13.2292 7.36464C13.141 7.51307 12.9997 7.62873 12.8064 7.70947L12.6436 7.46288C12.7702 7.4094 12.8629 7.33081 12.9217 7.22714C12.9816 7.12348 13.0155 6.97398 13.0223 6.77976H12.6843Z" fill="#6F4F50"/>
<path d="M17.1815 14.476C16.7915 14.1314 16.4394 13.7122 16.1262 13.2173C15.8129 12.7224 15.6091 12.1904 15.5138 11.6228C15.4298 11.1219 15.433 10.6295 15.5236 10.1455C15.6307 9.58265 15.8442 9.00542 16.1641 8.41374L16.5859 8.34778C16.396 8.8263 16.2732 9.16606 16.2198 9.36675C16.1356 9.67727 16.0815 9.99635 16.0586 10.3238C16.0309 10.7317 16.0503 11.1343 16.117 11.5318C16.2868 12.5432 16.7822 13.5027 17.6034 14.4101L17.1815 14.476Z" fill="#6F4F50"/>
<path d="M18.4148 9.57561C18.6721 9.1297 18.8691 8.62466 19.0045 8.05965C19.1399 7.49457 19.1593 6.92775 19.064 6.36011C18.98 5.85922 18.8158 5.39296 18.5716 4.96134C18.2859 4.45993 17.8945 3.97724 17.3974 3.51331L16.9756 3.57923C17.3123 3.97539 17.54 4.26039 17.6563 4.43455C17.8377 4.70352 17.9934 4.98981 18.1223 5.29357C18.282 5.67208 18.3952 6.06009 18.4619 6.45758C18.6316 7.46901 18.4753 8.53038 17.993 9.64156L18.4148 9.57561Z" fill="#6F4F50"/>
<path d="M16.9763 7.54986V6.89514H17.6546V7.54986H16.9763ZM16.9763 10.2932V9.63847H17.6546V10.2932C17.6546 10.5343 17.6105 10.7297 17.5212 10.8781C17.433 11.0265 17.2917 11.1422 17.0984 11.2229L16.9355 10.9763C17.0622 10.9228 17.1549 10.8442 17.2137 10.7406C17.2736 10.6369 17.3075 10.4874 17.3143 10.2932H16.9763Z" fill="#6F4F50"/>
<path d="M62.7408 40.4509L61.2168 34.8552H62.4037L63.5111 39.004L64.7117 34.8552H65.6944L66.9005 38.9934L67.9928 34.8552H69.0865L67.5734 40.4509H66.2824L65.1914 36.7378L64.1087 40.4509H62.7408ZM71.8003 39.3957H74.2261V40.4509H70.6654V34.8552H74.185V35.9104H71.8003V37.1015H73.9794V38.1407H71.8003V39.3957ZM84.3573 34.8552V40.4509H83.2307V36.8217L81.608 39.417L81.475 39.4224L79.8592 36.835V40.4509H78.7243V34.8552H79.892L81.5422 37.4972L83.1855 34.8552H84.3573ZM90.0328 40.4509L89.6669 39.4437H87.3013L86.9559 40.4509H85.7307L87.7454 34.8552H89.1516L91.1827 40.4509H90.0328ZM87.6714 38.4125H89.2913L88.4608 36.1262L87.6714 38.4125ZM97.0624 40.4509H95.7549L93.6991 37.8303V40.4509H92.5642V34.8552H93.6991V37.3213L95.6727 34.8552H96.9802L94.8503 37.5731L97.0624 40.4509ZM99.5787 39.3957H102.005V40.4509H98.4439V34.8552H101.964V35.9104H99.5787V37.1015H101.758V38.1407H99.5787V39.3957ZM128.157 34.8552H129.283V40.4509H128.157V38.1327H126.019V40.4509H124.884V34.8552H126.019V37.0775H128.157V34.8552ZM134.959 40.4509L134.593 39.4437H132.227L131.882 40.4509H130.657L132.671 34.8552H134.077L136.109 40.4509H134.959ZM132.597 38.4125H134.217L133.387 36.1262L132.597 38.4125ZM139.636 34.8552C140.19 34.8552 140.656 35.0364 141.034 35.3988C141.413 35.7612 141.602 36.2062 141.602 36.7338C141.602 37.2614 141.413 37.7064 141.034 38.0688C140.656 38.4311 140.19 38.6123 139.636 38.6123H138.625V40.4509H137.49V34.8552H139.636ZM139.636 37.5811C139.878 37.5811 140.078 37.4999 140.237 37.3373C140.396 37.1748 140.475 36.9736 140.475 36.7338C140.475 36.4886 140.396 36.2861 140.237 36.1262C140.078 35.9664 139.878 35.8864 139.636 35.8864H138.625V37.5811H139.636ZM145.311 34.8552C145.864 34.8552 146.33 35.0364 146.709 35.3988C147.087 35.7612 147.276 36.2062 147.276 36.7338C147.276 37.2614 147.087 37.7064 146.709 38.0688C146.33 38.4311 145.864 38.6123 145.311 38.6123H144.299V40.4509H143.164V34.8552H145.311ZM145.311 37.5811C145.552 37.5811 145.752 37.4999 145.911 37.3373C146.07 37.1748 146.149 36.9736 146.149 36.7338C146.149 36.4886 146.07 36.2861 145.911 36.1262C145.752 35.9664 145.552 35.8864 145.311 35.8864H144.299V37.5811H145.311ZM149.973 39.3957H152.399V40.4509H148.838V34.8552H152.358V35.9104H149.973V37.1015H152.152V38.1407H149.973V39.3957ZM157.35 34.8552H158.484V40.4509H157.621L155.154 37.0295V40.4509H154.019V34.8552H154.881L157.35 38.2646V34.8552ZM109.329 33.8845H111.259V40.4509H109.329V33.8845ZM117.724 33.8845V35.7043H116.132V40.4509H114.202V35.7043H112.61V33.8845H117.724Z" fill="#1A1A1A"/>
<path d="M152.014 24.9207C151.71 24.3346 151.559 23.6311 151.559 22.8108V22.4024C151.559 21.0943 151.946 20.0774 152.724 19.357C153.502 18.6366 154.594 18.2772 156.006 18.2772H159.648V22.1608H157.082C156.595 22.1608 156.271 22.2018 156.115 22.297C155.771 22.5061 155.797 23.0194 156.111 23.2389C156.459 23.4823 157.137 23.6308 157.792 23.9844C158.539 24.3879 159.05 24.9352 159.338 25.7192C159.519 26.2136 159.61 26.7783 159.61 27.4128V27.8212C159.61 29.1293 159.223 30.1462 158.445 30.8666C157.667 31.587 156.574 31.9464 155.163 31.9464H151.521V28.0629H154.087C154.574 28.0629 154.897 28.0218 155.054 27.9266C155.398 27.7175 155.371 27.2042 155.057 26.9847C154.766 26.7806 154.241 26.6431 153.694 26.3955C152.984 26.0747 152.362 25.5942 152.014 24.9207Z" fill="#193451"/>
</svg>
