<svg width="526" height="255" viewBox="0 0 526 255" fill="none" xmlns="http://www.w3.org/2000/svg">
<path d="M96.0854 79.4471C110.344 68.775 123.687 56.932 135.974 44.0415L132.175 40.1803C89.4701 95.2192 42.5081 146.855 0.458397 202.418C-1.37555 204.904 2.75083 208.046 4.78126 205.755C63.7294 138.674 124.708 74.277 201.275 26.9605L197.542 23.2301C145.143 92.7323 90.4526 160.271 36.0893 228.137L40.4121 231.41C109.84 140.769 193.35 62.0388 292.907 5.10195C291.859 3.66216 290.745 2.22238 289.632 0.848044C213.785 89.3947 127.131 167.732 44.6695 249.996L48.5339 253.857C127.852 166.03 214.768 84.2245 319.171 26.9605L315.438 23.2301C261.468 98.9496 197.542 166.816 132.044 232.653L136.301 235.991C185.359 161.318 248.368 98.1643 315.373 39.6567L311.05 36.319C274.764 98.3606 224.134 149.8 180.054 206.475C177.958 209.158 181.626 213.02 183.918 210.336C226.732 160.057 275.068 114.747 328.014 75.2586L323.887 71.9864C316.944 114.002 286.029 148.949 258.979 180.036C258.56 180.564 258.35 181.228 258.389 181.901C258.428 182.574 258.713 183.209 259.19 183.685C259.667 184.162 260.303 184.447 260.976 184.486C261.65 184.525 262.314 184.315 262.843 183.897C293.169 157.719 321.791 129.381 354.147 105.363L350.414 101.633C331.551 142.47 302.535 176.698 280.462 215.572C279.152 217.797 281.838 220.873 284.195 219.302C322.97 192.601 353.689 155.101 397.9 136.253L393.905 133.177C389.058 150.455 388.337 168.255 380.805 184.944C380.506 185.513 380.416 186.169 380.55 186.798C380.685 187.426 381.036 187.988 381.542 188.385C382.048 188.782 382.678 188.989 383.321 188.97C383.964 188.951 384.58 188.707 385.062 188.282C404.712 170.35 428.881 160.14 450.167 144.957L446.434 141.227C438.827 155.293 432.85 170.179 428.618 185.598C428.459 186.182 428.496 186.801 428.724 187.361C428.952 187.921 429.359 188.391 429.881 188.696C430.404 189.002 431.012 189.127 431.613 189.052C432.213 188.977 432.772 188.706 433.203 188.282C456.163 161.777 488.27 144.884 523.132 140.965C526.603 140.507 526.603 135.075 523.132 135.533C486.818 139.434 453.319 156.895 429.339 184.42L433.924 187.038C438.075 172.059 443.944 157.61 451.412 143.976C452.722 141.75 449.971 138.609 447.678 140.245C425.999 155.69 401.109 166.423 381.46 184.42L385.783 187.693C393.25 170.611 394.167 152.418 398.882 134.617C399.013 134.098 398.988 133.552 398.813 133.047C398.637 132.541 398.317 132.098 397.893 131.771C397.469 131.445 396.958 131.249 396.424 131.208C395.89 131.167 395.356 131.283 394.887 131.541C351.134 150.52 320.219 187.823 281.641 214.59L285.374 218.321C307.447 179.643 336.463 145.219 355.326 104.643C356.374 102.484 354.082 99.1459 351.593 100.913C318.844 124.931 289.894 153.269 259.175 180.036L263.04 183.897C290.745 152.025 321.988 116.423 329.389 73.4262C329.717 71.3974 327.49 68.7142 325.394 70.3503C272.057 110.069 223.369 155.666 180.25 206.279L184.115 210.14C228.26 153.269 279.283 101.502 315.766 39.2641C316.065 38.6949 316.155 38.039 316.02 37.4103C315.886 36.7816 315.535 36.22 315.028 35.8232C314.522 35.4263 313.893 35.2193 313.25 35.2382C312.606 35.257 311.99 35.5005 311.508 35.9264C244.111 94.8266 180.512 158.308 131.716 233.177C131.282 233.741 131.09 234.454 131.182 235.16C131.274 235.865 131.643 236.506 132.208 236.94C132.772 237.374 133.486 237.566 134.192 237.474C134.899 237.382 135.539 237.013 135.974 236.449C201.93 170.153 265.922 102.091 320.154 26.1751C321.857 23.8191 318.647 21.2013 316.421 22.4448C211.624 79.7743 124.446 161.842 44.6695 249.996C44.2507 250.524 44.0409 251.188 44.0799 251.861C44.1189 252.534 44.404 253.169 44.881 253.646C45.3581 254.122 45.9937 254.407 46.6672 254.446C47.3407 254.485 48.005 254.276 48.5339 253.857C130.996 171.593 217.65 93.2559 293.496 4.70928C293.976 4.23786 294.267 3.6069 294.313 2.93585C294.359 2.26479 294.157 1.60024 293.745 1.06801C293.333 0.535783 292.741 0.172826 292.079 0.047862C291.418 -0.0771018 290.733 0.0446026 290.156 0.389932C189.944 57.7849 105.714 137.431 35.4998 228.661C33.6004 231.148 37.8577 234.42 39.7572 231.999C94.448 163.609 149.466 95.8737 202.061 26.1751C203.764 23.95 200.489 21.0704 198.328 22.4448C121.564 69.8267 60.0615 134.486 0.916883 201.894L5.17425 205.166C46.9619 149.996 93.5965 98.7533 136.17 44.0415C138.266 41.3583 134.926 37.4971 132.371 40.1803C120.404 52.7333 107.413 64.2696 93.531 74.6696C90.6491 76.7639 93.531 81.2141 96.2819 79.4471H96.0854Z" fill="#6F4F50"/>
</svg>
