<svg width="84" height="95" viewBox="0 0 84 95" fill="none" xmlns="http://www.w3.org/2000/svg">
<path d="M10.7143 63.8704C8.49608 56.5416 10.5078 47.9884 11.7909 44.6279C15.6847 45.526 23.9868 47.6287 26.0453 48.855C28.6183 50.3879 42.252 51.4219 47.1965 52.205C51.152 52.8315 59.6017 52.1066 63.332 51.6658C63.8669 51.8443 65.0146 52.7764 65.3261 55.0765C65.7155 57.9516 61.6783 67.4407 60.376 70.3293C59.3342 72.6402 52.5459 80.0617 49.282 83.4836C45.7051 85.9182 36.4784 90.0087 28.1862 86.8947C17.8211 83.0023 13.4871 73.0314 10.7143 63.8704Z" fill="white"/>
<path d="M64.4945 76.3272C61.0591 76.6834 58.4849 75.7505 57.6273 75.2396C58.2848 74.0307 59.8215 71.6482 60.7081 71.7886C61.8163 71.9642 63.8166 71.7183 65.4074 70.5635C66.9982 69.4087 66.6089 66.5336 66.2334 65.3487C65.933 64.4008 64.6629 63.4119 64.0654 63.0359C64.4659 61.6926 65.3768 59.0234 65.8163 59.093C66.3656 59.18 70.3695 62.3463 71.3378 63.3437C72.3062 64.3411 72.4782 68.5886 72.1304 70.7843C71.7827 72.98 68.7888 75.882 64.4945 76.3272Z" fill="white"/>
<path d="M45.279 6.46356C45.135 6.35058 44.9646 6.27625 44.7838 6.24762C44.603 6.21898 44.4179 6.23701 44.2461 6.29997C44.0915 6.35428 43.9547 6.4497 43.8504 6.57595C43.746 6.7022 43.6781 6.8545 43.654 7.01646L39.2613 33.3639C39.2279 33.521 39.2386 33.6842 39.2921 33.8357C39.3456 33.9871 39.4399 34.1209 39.5646 34.2222C39.7157 34.3454 39.8987 34.4232 40.0923 34.4465C40.271 34.4753 40.4541 34.4578 40.6241 34.3956C40.7772 34.3389 40.9118 34.2414 41.0134 34.1137C41.1151 33.986 41.1798 33.8329 41.2006 33.6711L45.5933 7.32362C45.6258 7.16526 45.6136 7.00099 45.5581 6.84912C45.5026 6.69726 45.4059 6.56377 45.279 6.46356Z" fill="#7A5C50"/>
<path d="M31.8217 31.167L26.7449 20.2681C26.6897 20.1464 26.6102 20.0371 26.5114 19.9471C26.4125 19.857 26.2963 19.788 26.1699 19.7443C26.0435 19.7006 25.9095 19.6831 25.7761 19.6928C25.6427 19.7025 25.5127 19.7393 25.3941 19.801C25.2833 19.8449 25.1829 19.9115 25.0994 19.9965C25.0159 20.0815 24.951 20.1829 24.909 20.2944C24.867 20.4058 24.8487 20.5248 24.8553 20.6437C24.8619 20.7627 24.8933 20.8789 24.9475 20.985L30.0191 31.9168C30.0832 32.0639 30.1837 32.1924 30.3109 32.2903C30.4382 32.3882 30.5882 32.4523 30.747 32.4766L30.8129 32.4871C30.9932 32.505 31.1752 32.4765 31.3413 32.4043C31.5075 32.3322 31.6525 32.2187 31.7624 32.0748C31.8489 31.9481 31.8995 31.8005 31.9089 31.6474C31.9182 31.4944 31.886 31.3417 31.8156 31.2054L31.8217 31.167Z" fill="#7A5C50"/>
<path d="M6.77374 12.3109C6.70851 12.2076 6.62272 12.119 6.52171 12.0503C6.4207 11.9816 6.30664 11.9345 6.18662 11.9118C6.06659 11.8891 5.94318 11.8913 5.82407 11.9183C5.70496 11.9453 5.59269 11.9966 5.49427 12.0688C5.3833 12.1381 5.28737 12.229 5.21215 12.336C5.13694 12.443 5.08397 12.564 5.05637 12.6918C5.02877 12.8197 5.02711 12.9517 5.05148 13.0802C5.07585 13.2087 5.12576 13.331 5.19826 13.4399L17.8362 32.4238C17.9002 32.5288 17.9859 32.6191 18.0876 32.6886C18.1892 32.758 18.3045 32.8051 18.4257 32.8266C18.665 32.8596 18.9082 32.8041 19.1093 32.6704C19.2212 32.6021 19.3181 32.5119 19.3942 32.4052C19.4703 32.2985 19.5241 32.1775 19.5523 32.0495C19.5804 31.9216 19.5824 31.7892 19.5581 31.6604C19.5338 31.5317 19.4837 31.4091 19.4108 31.3002L6.77374 12.3109Z" fill="#7A5C50"/>
<path d="M58.8548 26.9969L51.0811 33.1258C50.9346 33.248 50.826 33.4092 50.7677 33.5908C50.7095 33.7724 50.7041 33.9667 50.7522 34.1513C50.8003 34.3358 50.8999 34.5029 51.0394 34.6331C51.1788 34.7633 51.3524 34.8512 51.54 34.8865C51.6635 34.9021 51.789 34.8907 51.9077 34.8531C52.0264 34.8156 52.1356 34.7528 52.2277 34.6691L59.9997 28.5512C60.1027 28.471 60.1884 28.3707 60.2516 28.2565C60.3148 28.1422 60.3542 28.0164 60.3674 27.8865C60.3806 27.7566 60.3673 27.6254 60.3284 27.5007C60.2895 27.3761 60.2258 27.2606 60.141 27.1613C60.0707 27.0617 59.9804 26.9778 59.8759 26.9149C59.7714 26.852 59.655 26.8116 59.534 26.7961C59.4131 26.7807 59.2902 26.7906 59.1733 26.8251C59.0563 26.8597 58.9479 26.9182 58.8548 26.9969Z" fill="#7A5C50"/>
<path d="M75.6592 39.8322L70.0567 42.9906C69.9557 43.0402 69.8663 43.1105 69.7944 43.1969C69.7224 43.2834 69.6695 43.384 69.639 43.4923C69.6086 43.6006 69.6013 43.714 69.6177 43.8253C69.6341 43.9366 69.6738 44.0431 69.7342 44.138C69.8144 44.2829 69.926 44.4081 70.0608 44.5044C70.1955 44.6007 70.3502 44.6658 70.5133 44.6947C70.7376 44.7302 70.9673 44.687 71.1634 44.5726L76.7954 41.4414C76.8966 41.3913 76.9862 41.3204 77.0583 41.2335C77.1304 41.1466 77.1834 41.0456 77.2139 40.9369C77.2444 40.8282 77.2517 40.7143 77.2353 40.6026C77.2189 40.4908 77.1792 40.3838 77.1188 40.2884C77.0561 40.1598 76.9677 40.0453 76.8591 39.952C76.7506 39.8587 76.6241 39.7885 76.4874 39.7458C76.3507 39.7031 76.2068 39.6887 76.0644 39.7036C75.922 39.7184 75.7841 39.7622 75.6592 39.8322Z" fill="#7A5C50"/>
<path d="M81.7172 23.5617C81.6925 23.3812 81.6225 23.2099 81.5137 23.0638C81.4049 22.9177 81.2608 22.8015 81.0949 22.726C80.948 22.6634 80.7866 22.6428 80.6288 22.6665C80.4709 22.6902 80.3227 22.7572 80.2007 22.8601L61.3356 37.1131C61.2021 37.2097 61.0968 37.34 61.0304 37.4906C60.964 37.6413 60.9389 37.8069 60.9576 37.9705C60.9856 38.1507 61.0575 38.3212 61.167 38.4671C61.2764 38.613 61.4201 38.7297 61.5854 38.807C61.6535 38.8261 61.7235 38.8372 61.7942 38.8401C61.9159 38.8582 62.04 38.8507 62.1586 38.8181C62.2772 38.7856 62.3877 38.7286 62.483 38.651L81.3401 24.4135C81.4738 24.3186 81.5794 24.1893 81.6458 24.0394C81.7121 23.8895 81.7368 23.7244 81.7172 23.5617Z" fill="#7A5C50"/>
<path d="M10.7073 33.4835L1.94075 29.169C1.83186 29.1106 1.71192 29.0756 1.58867 29.0663C1.46542 29.057 1.3416 29.0736 1.22519 29.1151C1.10878 29.1566 1.00237 29.222 0.912819 29.3071C0.823271 29.3922 0.752575 29.4951 0.705289 29.6092C0.642826 29.7229 0.604311 29.8481 0.592116 29.9772C0.57992 30.1064 0.594303 30.2366 0.634377 30.36C0.674452 30.4833 0.73937 30.5972 0.825137 30.6946C0.910903 30.792 1.0157 30.8708 1.13308 30.9261L9.90223 35.2242C9.9925 35.2668 10.0881 35.2971 10.1864 35.3142C10.3919 35.3424 10.6004 35.2932 10.7715 35.1762C10.9212 35.0724 11.0415 34.9318 11.1208 34.7678C11.2 34.6039 11.2355 34.4223 11.2238 34.2406C11.2106 34.0805 11.156 33.9267 11.0655 33.794C10.975 33.6613 10.8515 33.5543 10.7073 33.4835Z" fill="#7A5C50"/>
<path d="M73.4226 68.9968C73.47 68.6262 73.4859 68.2522 73.4701 67.8789L73.4527 67.3135C73.4429 67.1262 73.4094 66.9465 73.3913 66.7411L73.3134 66.166L73.1783 65.6326C72.9959 64.9187 72.7268 64.2298 72.3768 63.5812C72.0322 62.9335 71.6189 62.3247 71.1439 61.7654C70.9185 61.4821 70.6641 61.2392 70.3912 60.9709C70.1183 60.7026 69.835 60.5002 69.5552 60.2758C69.2753 60.0514 68.9565 59.8603 68.6567 59.6552L67.6986 59.1265L66.6901 58.7023L65.6752 58.3896C65.8857 57.4165 66.0416 56.4324 66.1421 55.4419C66.1883 54.9371 66.2171 54.4353 66.2349 53.9317L66.2415 53.1787L66.2338 52.8005C66.2358 52.6772 66.229 52.5539 66.2134 52.4315C66.2573 52.2787 66.2629 52.1175 66.2295 51.962C66.1962 51.8066 66.125 51.6617 66.0223 51.5403C65.9085 51.4186 65.7616 51.3328 65.5996 51.2933L65.1711 51.2254L63.4892 50.8577L60.1256 50.1562C57.8602 49.7149 55.6053 49.2789 53.3607 48.8484C51.1086 48.4186 48.8457 48.0208 46.5884 47.6238C44.331 47.2269 42.0693 46.8575 39.8012 46.4926C37.5331 46.1277 35.2572 45.8123 32.9883 45.4529C30.7193 45.0936 28.4475 44.8238 26.1718 44.5421C23.8962 44.2605 21.6171 44.0008 19.3371 43.7466L15.928 43.4036C14.7832 43.3067 13.6599 43.1456 12.4963 43.0964L12.5457 43.1042C11.4357 43.0015 10.7237 43.941 10.4288 44.7721C10.0693 45.6114 9.78988 46.4828 9.59419 47.3746C9.21744 49.1534 8.99697 50.9618 8.93532 52.7791C8.86239 54.5906 8.80595 56.4048 8.84551 58.2174C8.8839 60.0385 9.04975 61.8548 9.34184 63.6528C9.64124 65.4414 10.0795 67.204 10.6525 68.9247C10.9376 69.7914 11.271 70.6376 11.6336 71.4772L12.2014 72.6925L12.8296 73.9174C14.5567 77.1445 16.8623 80.0273 19.6316 82.4223C21.0162 83.6209 22.5219 84.6721 24.1244 85.5591C25.7423 86.4444 27.4583 87.1374 29.2375 87.6238C29.6774 87.7582 30.1243 87.8684 30.5762 87.954C31.0267 88.0253 31.452 88.1489 31.9179 88.1946C32.3837 88.2402 32.8353 88.3399 33.2937 88.3618L34.6929 88.4878C36.5299 88.5331 38.3663 88.3748 40.1684 88.0158C43.7788 87.2822 47.1901 85.7849 50.173 83.6246C51.6671 82.5628 53.0481 81.3504 54.294 80.0064C55.4837 78.7463 56.6018 77.4205 57.643 76.0353L58.3461 76.4674C58.6731 76.6429 59.0163 76.7873 59.3505 76.9528C60.0428 77.2438 60.7623 77.4652 61.4985 77.6137C62.9589 77.9127 64.4661 77.8983 65.9204 77.5714C67.3747 77.2466 68.7337 76.5893 69.8907 75.6512C70.4674 75.1858 70.9851 74.6518 71.4322 74.0609C71.663 73.7713 71.87 73.4635 72.0511 73.1405C72.144 72.9808 72.2524 72.8291 72.3343 72.6677L72.5696 72.1422L72.8049 71.6168C72.8801 71.4261 72.9218 71.2696 72.9852 71.0827C73.1147 70.7324 73.2134 70.3714 73.28 70.004C73.3528 69.6723 73.4005 69.3356 73.4226 68.9968ZM62.7534 67.7346C63.034 67.1832 63.2732 66.6117 63.4691 66.0249C63.666 65.4933 63.8359 64.9182 64.029 64.3748C64.2231 64.4574 64.4089 64.5584 64.5838 64.6765C64.7954 64.8055 64.9884 64.9629 65.1573 65.1443C65.4965 65.4943 65.7476 65.9198 65.8899 66.3858C66.1696 67.2949 66.0788 68.2775 65.6371 69.1198C65.5251 69.3198 65.4005 69.5124 65.2641 69.6966C65.1246 69.8724 64.9705 70.0362 64.8036 70.1863C64.636 70.3477 64.451 70.4902 64.252 70.611C64.0616 70.7406 63.8557 70.8459 63.6392 70.9247C63.4202 71.0082 63.1919 71.0646 62.9593 71.0928C62.7229 71.1294 62.4833 71.1405 62.2445 71.1259C61.9979 71.1093 61.7534 71.0706 61.5138 71.0101C61.2823 70.957 61.054 70.8908 60.83 70.8118C61.5738 69.8531 62.22 68.8225 62.7589 67.7355L62.7534 67.7346ZM28.9735 47.1916L38.7112 48.6101L48.4298 50.1494L57.6487 51.6433L55.6838 51.5684L53.2158 51.4701L50.7519 51.3106L48.2932 51.1181L45.8386 50.8644L43.3874 50.5887L40.9406 50.2856L38.4999 49.944L36.0661 49.5585L33.6269 49.1722L31.2044 48.7154L28.7878 48.1863C27.9906 47.9925 27.1588 47.8045 26.3908 47.6041L24.0106 46.9514L21.673 46.2435L21.1366 46.0742L28.9735 47.1916ZM59.4335 69.5665L58.5551 71.0592C58.2484 71.5733 57.9275 72.0345 57.6197 72.5203C56.9753 73.4837 56.3045 74.424 55.6073 75.3415C54.8979 76.2645 54.1929 77.16 53.4228 78.0397C52.3706 79.2109 51.22 80.29 49.9835 81.265C47.4973 83.2034 44.655 84.6362 41.6171 85.4824C40.1045 85.9004 38.5533 86.1637 36.9873 86.2684C35.4279 86.3676 33.8622 86.2989 32.3174 86.0633C31.9285 86.0299 31.5482 85.9415 31.1637 85.8806C30.7831 85.8099 30.4064 85.7202 30.0349 85.6118C29.6581 85.5015 29.2742 85.4013 28.8991 85.28L27.8352 84.8864C26.3833 84.3094 24.9875 83.6005 23.6653 82.7686C22.3576 81.9173 21.125 80.9559 19.9812 79.8949C18.8505 78.8163 17.8034 77.6535 16.849 76.4165C15.0113 73.9771 13.5559 71.2723 12.5328 68.3953L13.8961 68.8195C14.0676 68.8907 14.2597 68.8938 14.4334 68.8283C14.6071 68.7627 14.7491 68.6334 14.8305 68.4667C14.9061 68.2959 14.9114 68.1022 14.8453 67.9275C14.7792 67.7528 14.647 67.6111 14.4772 67.5329L12.0028 66.764C11.7174 65.7881 11.4813 64.7986 11.2954 63.7991C11.739 63.8679 12.1737 63.9858 12.5913 64.1506C13.439 64.4875 14.0265 63.1963 13.1779 62.8649C12.494 62.591 11.775 62.4146 11.042 62.3409C10.9315 61.5807 10.8485 60.8248 10.7855 60.0495L11.5051 60.1635C11.6902 60.1928 11.8793 60.1475 12.0308 60.0375C12.1824 59.9275 12.284 59.7618 12.3133 59.5769C12.3426 59.392 12.2971 59.203 12.187 59.0516C12.0769 58.9001 11.911 58.7986 11.726 58.7692L10.7041 58.6074C10.6677 57.842 10.6477 57.0792 10.6451 56.3135L12.4276 56.6859C13.3225 56.867 13.5434 55.4727 12.6493 55.2861L10.6534 54.8743C10.6578 54.6331 10.6559 54.3964 10.6658 54.156C10.6798 53.6406 10.7049 53.1269 10.7354 52.614L12.0336 53.0222C12.2058 53.0937 12.3987 53.0972 12.5732 53.0318C12.7478 52.9665 12.8909 52.8372 12.9735 52.6703C13.0491 52.4995 13.0544 52.3058 12.9883 52.1311C12.9222 51.9564 12.79 51.8147 12.6202 51.7365L10.8499 51.1804C10.9038 50.6262 10.9758 50.0299 11.0653 49.4645C11.0775 49.3877 11.0888 49.3163 11.101 49.2395C11.7156 49.5592 12.3679 49.8005 13.0427 49.9578C13.9278 50.1655 14.1486 48.7712 13.2636 48.5635C12.6093 48.4087 11.9829 48.1538 11.4065 47.808C11.6273 46.8898 11.9423 45.9969 12.3467 45.1434L15.3278 46.2683L18.4823 47.3306L21.6564 48.3398L24.86 49.2692L28.1058 50.1096L31.3647 50.8678L34.6393 51.5271L37.9269 52.104L41.2293 52.5877L44.5447 52.989L47.8749 53.297L51.2207 53.5062L54.5788 53.6386L57.9177 53.6779L61.246 53.6423L64.2762 53.4977L64.2595 54.9186C64.2111 55.4736 64.1791 56.0313 64.1126 56.6285C64.0462 57.2257 63.9335 57.7593 63.844 58.3246C63.7544 58.89 63.6099 59.4467 63.471 60.0043C63.332 60.5619 63.171 61.1159 63.0054 61.6637L62.3392 63.2744L61.7103 64.8628L61.0099 66.44L60.2382 68.0059L59.4335 69.5665ZM67.5601 74.7925C67.2778 74.9391 66.9834 75.0557 66.6982 75.1849L65.8034 75.4652C65.4958 75.5234 65.1918 75.5934 64.885 75.6461C64.5782 75.6988 64.2664 75.7113 63.9547 75.7239C63.643 75.7364 63.3293 75.7261 63.0228 75.7057C62.7162 75.6853 62.4005 75.6521 62.0946 75.5924C61.7887 75.5327 61.4793 75.495 61.182 75.3804C60.8848 75.2658 60.5879 75.185 60.2962 75.0712C60.0044 74.9575 59.7217 74.8227 59.4398 74.6824L58.7855 74.2974L59.9527 72.4397L60.1631 72.5687C60.2807 72.6392 60.4115 72.6848 60.5474 72.7027L61.0499 72.8723L61.5923 73.0033C62.3046 73.1388 63.0353 73.1479 63.7506 73.03C64.1084 72.9703 64.4593 72.8751 64.7981 72.7457C64.9684 72.6839 65.1343 72.6105 65.2947 72.5261C65.4589 72.4472 65.618 72.3577 65.7707 72.2583C66.087 72.0727 66.3823 71.8535 66.6515 71.6044C66.9136 71.3504 67.1471 71.0685 67.3478 70.7637C67.5552 70.4628 67.7323 70.1422 67.8767 69.8065C68.0292 69.4632 68.141 69.1032 68.2099 68.7339C68.2553 68.5539 68.2844 68.3702 68.2969 68.185C68.3162 67.9989 68.3214 67.8116 68.3124 67.6247C68.3186 67.4347 68.3073 67.2446 68.2784 67.0567C68.2661 66.8615 68.2345 66.668 68.1841 66.479C68.1519 66.294 68.1014 66.1126 68.0333 65.9375C67.9813 65.7576 67.9129 65.5829 67.8288 65.4155C67.7533 65.2444 67.6668 65.0785 67.5696 64.9187C67.4804 64.7548 67.3792 64.5977 67.2667 64.4487C67.1602 64.2957 67.0442 64.1495 66.9193 64.011C66.7988 63.8665 66.6678 63.731 66.5273 63.6057C66.0623 63.1511 65.5199 62.7832 64.9254 62.5192C65.1365 61.8268 65.3365 61.1326 65.5421 60.4392L66.0134 60.5927L66.7686 60.9092C67.0137 61.0324 67.2517 61.1658 67.4905 61.2936L68.1736 61.7451C68.3962 61.9041 68.6052 62.0779 68.8206 62.2471L69.4187 62.8088L69.9525 63.4561L70.4424 64.0964L70.8534 64.8086C70.9652 65.0626 71.0834 65.312 71.1888 65.5707C71.2943 65.8294 71.3324 66.0155 71.3974 66.2452L70.3547 66.0013C69.4705 65.7881 69.2552 67.1832 70.1339 67.3956L71.6091 67.753C71.5952 67.8408 71.6252 67.9356 71.6223 68.0252C71.5788 68.2996 71.6123 68.5863 71.5798 68.8625C71.5473 69.1387 71.4928 69.4114 71.4476 69.6969L70.2714 69.5499C69.3652 69.4402 69.1435 70.8399 70.0497 70.9497L70.9833 71.0638L70.8415 71.3902C70.6995 71.6828 70.5224 71.9474 70.3656 72.2264C70.2915 72.3385 70.2128 72.4442 70.1341 72.5499L68.7223 72.2194C68.5372 72.19 68.3481 72.2354 68.1966 72.3454C68.045 72.4554 67.9434 72.6211 67.9141 72.806C67.8848 72.9909 67.9303 73.1798 68.0404 73.3313C68.1505 73.4828 68.3164 73.5843 68.5014 73.6136L69.0438 73.7446C68.8295 73.9244 68.6004 74.0907 68.398 74.2668C68.1955 74.443 67.8264 74.604 67.5627 74.776L67.5601 74.7925Z" fill="#7A5C50"/>
</svg>
