<svg width="1282" height="566" viewBox="0 0 1282 566" fill="none" xmlns="http://www.w3.org/2000/svg">
<rect width="1282" height="566" fill="#192533"/>
<g opacity="0.3">
<mask id="mask0_724_3579" style="mask-type:luminance" maskUnits="userSpaceOnUse" x="2" y="0" width="850" height="566">
<path d="M851.01 0H2V566H851.01V0Z" fill="white"/>
</mask>
<g mask="url(#mask0_724_3579)">
<path d="M305.052 357.993H358.511C358.628 357.252 359.193 356.706 359.895 356.706C360.675 356.706 361.299 357.408 361.299 358.266C361.299 359.124 360.675 359.826 359.895 359.826C359.193 359.826 358.628 359.26 358.511 358.539H305.325L293.529 383.514H-31.2417V382.987H293.237L305.052 357.993Z" fill="#419586"/>
<path d="M305.052 370.47H398.634C398.751 369.476 399.512 368.696 400.448 368.696C401.461 368.696 402.28 369.613 402.28 370.724C402.28 371.835 401.461 372.752 400.448 372.752C399.512 372.752 398.751 371.972 398.634 370.977H305.325L293.529 395.952H-31.2417V395.426H293.237L305.052 370.47Z" fill="#419586"/>
<path d="M305.052 382.968H358.511C358.628 382.227 359.193 381.681 359.895 381.681C360.675 381.681 361.299 382.383 361.299 383.241C361.299 384.099 360.675 384.8 359.895 384.8C359.193 384.8 358.628 384.235 358.511 383.514H305.325L293.529 408.489H-31.2417V407.962H293.237L305.052 382.968Z" fill="#419586"/>
<path d="M305.052 395.446H497.676C497.793 394.705 498.358 394.159 499.06 394.159C499.84 394.159 500.464 394.861 500.464 395.718C500.464 396.576 499.84 397.278 499.06 397.278C498.358 397.278 497.793 396.713 497.676 395.991H305.325L293.529 420.966H-31.2417V420.44H293.237L305.052 395.446Z" fill="#419586"/>
<path d="M231.16 362.185L250.54 336.215H297.37C297.487 335.104 298.345 334.227 299.378 334.227C300.509 334.227 301.406 335.241 301.406 336.488C301.406 337.736 300.49 338.75 299.378 338.75C298.345 338.75 297.487 337.873 297.37 336.761H250.754L231.375 362.731H-31.2417V362.204H231.16V362.185Z" fill="#419586"/>
<path d="M242.429 542.507L261.809 516.538H308.639C308.756 515.426 309.614 514.549 310.647 514.549C311.778 514.549 312.675 515.563 312.675 516.81C312.675 518.058 311.759 519.072 310.647 519.072C309.614 519.072 308.756 518.195 308.639 517.083H262.023L242.644 543.053H-19.9727V542.526H242.429V542.507Z" fill="#419586"/>
<path d="M330.885 466.783H468.393C468.51 466.295 468.9 465.925 469.387 465.925C469.952 465.925 470.401 466.432 470.401 467.056C470.401 467.68 469.952 468.187 469.387 468.187C468.9 468.187 468.51 467.816 468.393 467.329H330.709L314.02 451.751H-14.5332V451.225H314.196L330.885 466.783Z" fill="#419586"/>
<path d="M330.885 482.361H404.23C404.347 481.249 405.205 480.372 406.238 480.372C407.369 480.372 408.266 481.386 408.266 482.633C408.266 483.881 407.349 484.895 406.238 484.895C405.205 484.895 404.347 484.018 404.23 482.906H330.709L314.02 467.329H-14.5332V466.802H314.196L330.885 482.361Z" fill="#419586"/>
<path d="M330.885 497.938H597.127C597.244 496.573 598.278 495.482 599.545 495.482C600.89 495.482 601.982 496.69 601.982 498.192C601.982 499.693 600.89 500.902 599.545 500.902C598.278 500.902 597.244 499.829 597.127 498.445H330.709L314.02 482.867H-14.5332V482.341H314.196L330.885 497.938Z" fill="#419586"/>
<path d="M290.332 150.395H343.811C343.928 149.654 344.493 149.108 345.195 149.108C345.975 149.108 346.599 149.81 346.599 150.668C346.599 151.526 345.975 152.228 345.195 152.228C344.493 152.228 343.928 151.662 343.811 150.941H290.625L278.83 175.916H-45.9609V175.39H278.518L290.332 150.395Z" fill="#419586"/>
<path d="M290.332 162.873H383.915C384.032 161.879 384.793 161.099 385.728 161.099C386.742 161.099 387.561 162.015 387.561 163.126C387.561 164.257 386.742 165.154 385.728 165.154C384.793 165.154 384.032 164.374 383.915 163.38H290.625L278.83 188.355H-45.9609V187.828H278.518L290.332 162.873Z" fill="#419586"/>
<path d="M290.332 175.37H343.811C343.928 174.629 344.493 174.083 345.195 174.083C345.975 174.083 346.599 174.785 346.599 175.643C346.599 176.501 345.975 177.203 345.195 177.203C344.493 177.203 343.928 176.637 343.811 175.916H290.625L278.83 200.891H-45.9609V200.364H278.518L290.332 175.37Z" fill="#419586"/>
<path d="M290.332 187.848H605.94C606.057 187.107 606.623 186.561 607.324 186.561C608.104 186.561 608.728 187.263 608.728 188.121C608.728 188.979 608.104 189.68 607.324 189.68C606.623 189.68 606.057 189.115 605.94 188.394H290.625L278.83 213.369H-45.9609V212.842H278.518L290.332 187.848Z" fill="#419586"/>
<path d="M216.441 154.587L235.821 128.618H282.651C282.768 127.506 283.626 126.629 284.659 126.629C285.79 126.629 286.687 127.643 286.687 128.891C286.687 130.138 285.77 131.152 284.659 131.152C283.626 131.152 282.768 130.275 282.651 129.164H236.035L216.656 155.133H-45.9609V154.606H216.441V154.587Z" fill="#419586"/>
<path d="M316.165 243.607H324.724C324.841 242.496 325.699 241.619 326.732 241.619C327.863 241.619 328.759 242.633 328.759 243.88C328.759 245.128 327.843 246.142 326.732 246.142C325.699 246.142 324.841 245.265 324.724 244.153H315.989L299.3 228.576H-29.2529V228.049H299.476L316.165 243.607Z" fill="#419586"/>
<path d="M316.165 259.185H453.673C453.79 258.698 454.18 258.327 454.667 258.327C455.233 258.327 455.681 258.834 455.681 259.458C455.681 260.082 455.233 260.589 454.667 260.589C454.18 260.589 453.79 260.218 453.673 259.731H315.989L299.3 244.153H-29.2529V243.627H299.476L316.165 259.185Z" fill="#419586"/>
<path d="M316.165 274.763H389.51C389.627 273.651 390.485 272.774 391.518 272.774C392.649 272.774 393.546 273.788 393.546 275.036C393.546 276.283 392.63 277.297 391.518 277.297C390.485 277.297 389.627 276.42 389.51 275.309H315.989L299.3 259.731H-29.2529V259.205H299.476L316.165 274.763Z" fill="#419586"/>
<path d="M316.165 290.34H582.408C582.525 288.976 583.558 287.884 584.825 287.884C586.17 287.884 587.262 289.093 587.262 290.594C587.262 292.095 586.17 293.304 584.825 293.304C583.558 293.304 582.525 292.231 582.408 290.847H315.989L299.3 275.27H-29.2529V274.743H299.476L316.165 290.34Z" fill="#419586"/>
<path d="M420.587 320.501C419.788 320.501 419.125 321.32 419.047 322.373H383.213L368.317 298.002H166.841L164.599 294.981H-98.0366V295.507H164.365L166.374 298.197V298.49H166.588L183.725 321.476H230.556C230.673 322.587 231.531 323.465 232.564 323.465C233.695 323.465 234.591 322.451 234.591 321.203C234.591 319.955 233.675 318.942 232.564 318.942C231.531 318.942 230.673 319.819 230.556 320.93H183.94L167.192 298.47H368.122L383.018 322.841H419.027C419.125 323.894 419.768 324.713 420.568 324.713C421.425 324.713 422.127 323.757 422.127 322.587C422.147 321.437 421.445 320.501 420.587 320.501Z" fill="#419586"/>
<path d="M345.39 29.7905H353.949C354.066 28.6792 354.924 27.8019 355.957 27.8019C357.088 27.8019 357.985 28.8157 357.985 30.0634C357.985 31.3112 357.068 32.325 355.957 32.325C354.924 32.325 354.066 31.4477 353.949 30.3364H345.214L328.526 14.7588H-0.027832V14.2324H328.701L345.39 29.7905Z" fill="#419586"/>
<path d="M312.772 97.1701H321.331C321.448 96.0588 322.306 95.1814 323.339 95.1814C324.47 95.1814 325.367 96.1953 325.367 97.443C325.367 98.6908 324.451 99.7046 323.339 99.7046C322.306 99.7046 321.448 98.8273 321.331 97.716H312.597L295.908 82.1383H-32.665V81.6119H296.064L312.772 97.1701Z" fill="#419586"/>
<path d="M345.39 45.3681H482.898C483.015 44.8807 483.405 44.5102 483.892 44.5102C484.458 44.5102 484.906 45.0171 484.906 45.641C484.906 46.2649 484.458 46.7718 483.892 46.7718C483.405 46.7718 483.015 46.4014 482.898 45.914H345.214L328.526 30.3363H-0.027832V29.8099H328.701L345.39 45.3681Z" fill="#419586"/>
<path d="M345.39 60.9458H418.735C418.852 59.8345 419.71 58.9572 420.743 58.9572C421.874 58.9572 422.771 59.971 422.771 61.2187C422.771 62.4665 421.855 63.4803 420.743 63.4803C419.71 63.4803 418.852 62.603 418.735 61.4917H345.214L328.526 45.9141H-0.027832V45.3682H328.701L345.39 60.9458Z" fill="#419586"/>
<path d="M345.39 76.5234H611.633C611.75 75.1586 612.783 74.0669 614.05 74.0669C615.396 74.0669 616.487 75.2756 616.487 76.7769C616.487 78.2781 615.396 79.4869 614.05 79.4869C612.783 79.4869 611.75 78.4145 611.633 77.0303H345.214L328.526 61.4527H-0.027832V60.9263H328.701L345.39 76.5234Z" fill="#419586"/>
<path d="M378.905 137.274C378.105 137.274 377.442 138.093 377.364 139.146H341.53L326.635 114.775H125.159L122.917 111.753H-139.719V112.28H122.683L124.691 114.97V115.263H124.905L142.043 138.249H188.873C188.99 139.36 189.848 140.238 190.881 140.238C192.012 140.238 192.909 139.224 192.909 137.976C192.909 136.728 191.993 135.714 190.881 135.714C189.848 135.714 188.99 136.592 188.873 137.703H142.257L125.51 115.243H326.44L341.335 139.614H377.345C377.442 140.667 378.086 141.485 378.885 141.485C379.743 141.485 380.445 140.53 380.445 139.36C380.464 138.21 379.762 137.274 378.905 137.274Z" fill="#419586"/>
</g>
</g>
</svg>
