<svg width="70" height="70" viewBox="0 0 70 70" fill="none" xmlns="http://www.w3.org/2000/svg">
<circle cx="35" cy="35" r="34.5" stroke="#6F4F50"/>
<circle cx="35" cy="35" r="30.5" stroke="#6F4F50" stroke-linecap="round" stroke-linejoin="round" stroke-dasharray="5 5"/>
<path d="M35 61.5C20.3623 61.5 8.5 49.6872 8.5 35.12C8.5 34.7834 8.77987 34.5 9.14339 34.5H60.8566C61.2201 34.5 61.5 34.7834 61.5 35.12C61.5 49.6872 49.6377 61.5 35 61.5Z" fill="#6F4F50" stroke="#6F4F50"/>
<path d="M33.4064 55.2527C33.5149 55.2527 33.6191 55.2133 33.6966 55.143C33.774 55.0727 33.8186 54.977 33.8206 54.8766C33.82 54.7749 33.7771 54.6774 33.7008 54.6042C33.6429 54.5514 33.5694 54.5155 33.4896 54.5013C33.4098 54.487 33.3272 54.495 33.2522 54.5241C33.1772 54.5532 33.1133 54.6023 33.0684 54.665C33.0235 54.7278 32.9997 54.8014 33 54.8766C32.9995 54.926 33.0099 54.975 33.0305 55.0206C33.0511 55.0662 33.0815 55.1074 33.1199 55.1418C33.1962 55.2118 33.299 55.2515 33.4064 55.2527Z" fill="#EDE7D9"/>
<path d="M36.5612 53.8039C36.6153 53.8043 36.669 53.7947 36.7191 53.7757C36.7693 53.7566 36.8147 53.7285 36.8529 53.693C36.8917 53.6587 36.9225 53.6176 36.9435 53.572C36.9646 53.5264 36.9754 53.4774 36.9754 53.4278C36.9752 53.3268 36.9322 53.2298 36.8555 53.1578C36.7771 53.089 36.6732 53.0506 36.5651 53.0506C36.457 53.0506 36.353 53.089 36.2746 53.1578C36.1983 53.231 36.1554 53.3285 36.1548 53.4302C36.1542 53.4796 36.1646 53.5286 36.1852 53.5742C36.2058 53.6198 36.2362 53.661 36.2746 53.6954C36.3514 53.7645 36.4541 53.8033 36.5612 53.8039Z" fill="#EDE7D9"/>
<path d="M47.6536 50.4699C47.7588 50.4703 47.86 50.4322 47.9349 50.3638C47.9756 50.3294 48.0083 50.2878 48.0312 50.2414C48.054 50.195 48.0665 50.1448 48.0678 50.0938C48.0646 49.9915 48.0211 49.8937 47.9454 49.819C47.8603 49.7491 47.749 49.7127 47.6354 49.7178C47.5373 49.72 47.444 49.7571 47.3748 49.8214C47.295 49.893 47.2491 49.991 47.2472 50.0938C47.2475 50.1438 47.2585 50.1931 47.2796 50.2391C47.3006 50.285 47.3313 50.3267 47.3698 50.3616C47.4083 50.3966 47.4538 50.4241 47.5039 50.4427C47.5539 50.4613 47.6075 50.4706 47.6614 50.4699H47.6536Z" fill="#EDE7D9"/>
<path d="M43.6053 52.1935C43.6586 52.1936 43.7114 52.1838 43.7607 52.1648C43.8099 52.1458 43.8545 52.1178 43.8919 52.0827C43.9701 52.0101 44.0158 51.9127 44.0195 51.8102C44.02 51.7602 44.0089 51.7106 43.9868 51.6648C43.9648 51.6191 43.9324 51.5782 43.8919 51.5451C43.8144 51.4746 43.7101 51.435 43.6014 51.435C43.4927 51.435 43.3884 51.4746 43.3109 51.5451C43.2729 51.5797 43.2427 51.621 43.2222 51.6665C43.2016 51.712 43.191 51.7609 43.1911 51.8102C43.1935 51.9071 43.2343 51.9997 43.3057 52.0706C43.3434 52.1096 43.3896 52.1407 43.4412 52.1619C43.4929 52.1831 43.5488 52.1939 43.6053 52.1935Z" fill="#EDE7D9"/>
<path d="M46.3328 54.5464C46.442 54.5428 46.5464 54.5035 46.6272 54.4355C46.7035 54.3623 46.7464 54.2647 46.747 54.1631C46.7483 54.1141 46.7385 54.0655 46.7184 54.0202C46.6982 53.975 46.668 53.9341 46.6298 53.9003C46.5929 53.865 46.5488 53.8368 46.5001 53.8173C46.4514 53.7979 46.3989 53.7876 46.3458 53.787C46.2933 53.7848 46.2409 53.7924 46.1917 53.8094C46.1424 53.8264 46.0974 53.8524 46.0593 53.8858C46.0172 53.9207 45.9835 53.9634 45.9606 54.0112C45.9377 54.059 45.9261 54.1108 45.9264 54.1631C45.9253 54.2126 45.9353 54.2617 45.956 54.3074C45.9766 54.3531 46.0074 54.3942 46.0463 54.4282C46.1217 54.5004 46.2244 54.5428 46.3328 54.5464Z" fill="#EDE7D9"/>
<path d="M47.6614 51.4342C47.6089 51.432 47.5565 51.4396 47.5072 51.4566C47.458 51.4736 47.413 51.4996 47.3748 51.533C47.3329 51.568 47.2993 51.6107 47.2764 51.6585C47.2535 51.7063 47.2418 51.758 47.242 51.8102C47.2408 51.8597 47.2509 51.9089 47.2716 51.9546C47.2922 52.0003 47.3229 52.0414 47.3618 52.0754C47.4372 52.1476 47.54 52.19 47.6484 52.1935C47.7576 52.19 47.8619 52.1507 47.9428 52.0826C48.02 52.0101 48.0631 51.9121 48.0626 51.8102C48.0642 51.7616 48.0545 51.7133 48.0343 51.6684C48.0141 51.6235 47.9838 51.5831 47.9454 51.5499C47.909 51.5138 47.8651 51.4849 47.8162 51.465C47.7674 51.4451 47.7147 51.4346 47.6614 51.4342Z" fill="#EDE7D9"/>
<path d="M40.0259 55.5371C40.08 55.5373 40.1337 55.5276 40.1837 55.5086C40.2338 55.4896 40.2793 55.4616 40.3177 55.4263C40.3566 55.3901 40.3875 55.3473 40.4085 55.3001C40.4295 55.253 40.4402 55.2024 40.4401 55.1514C40.4375 55.0525 40.3936 54.9583 40.3177 54.8887C40.2386 54.8221 40.1355 54.7852 40.0285 54.7852C39.9216 54.7852 39.8185 54.8221 39.7394 54.8887C39.6627 54.9596 39.6196 55.0559 39.6196 55.1563C39.6196 55.2566 39.6627 55.3529 39.7394 55.4238C39.8151 55.4949 39.918 55.5356 40.0259 55.5371Z" fill="#EDE7D9"/>
<path d="M37.585 57.1258C37.638 57.1251 37.6904 57.1147 37.7391 57.0953C37.7878 57.0758 37.832 57.0477 37.8689 57.0125C37.9072 56.977 37.9375 56.9349 37.9581 56.8886C37.9787 56.8422 37.9891 56.7926 37.9887 56.7425C37.9877 56.6411 37.947 56.5434 37.8741 56.4677C37.7953 56.3987 37.6909 56.3602 37.5824 56.3602C37.4738 56.3602 37.3694 56.3987 37.2906 56.4677C37.253 56.5037 37.2237 56.5465 37.2045 56.5933C37.1852 56.6401 37.1764 56.69 37.1786 56.7401C37.176 56.7904 37.1848 56.8407 37.2042 56.8878C37.2236 56.9349 37.2533 56.9777 37.2915 57.0137C37.3296 57.0497 37.3754 57.078 37.4259 57.0968C37.4764 57.1157 37.5305 57.1247 37.585 57.1234V57.1258Z" fill="#EDE7D9"/>
<path d="M40.1015 56.7569C40.0656 56.7937 40.0382 56.8368 40.0207 56.8836C40.0033 56.9304 39.9962 56.98 39.9999 57.0293C39.997 57.0799 40.0054 57.1304 40.0247 57.1778C40.0439 57.2252 40.0736 57.2683 40.1118 57.3046C40.1499 57.3408 40.1958 57.3693 40.2465 57.3884C40.2972 57.4074 40.3516 57.4165 40.4063 57.4151C40.5141 57.4132 40.6169 57.3726 40.6928 57.3018C40.7684 57.2283 40.8104 57.1307 40.81 57.0293C40.8086 56.9287 40.7679 56.832 40.6954 56.7569C40.6161 56.6851 40.5095 56.6448 40.3984 56.6448C40.2874 56.6448 40.1808 56.6851 40.1015 56.7569Z" fill="#EDE7D9"/>
<path d="M43.3031 56.8389C43.4111 56.8364 43.5138 56.7949 43.5893 56.7233C43.6647 56.6517 43.7069 56.5556 43.7069 56.4556C43.7059 56.3542 43.6651 56.2566 43.5923 56.1808C43.5131 56.1123 43.4088 56.0742 43.3005 56.0742C43.1922 56.0742 43.0879 56.1123 43.0087 56.1808C42.9712 56.2169 42.9419 56.2596 42.9226 56.3064C42.9034 56.3532 42.8946 56.4031 42.8967 56.4532C42.8942 56.5035 42.9029 56.5538 42.9223 56.6009C42.9418 56.648 42.9715 56.6909 43.0096 56.7268C43.0478 56.7628 43.0935 56.7911 43.144 56.81C43.1945 56.8288 43.2487 56.8379 43.3031 56.8365V56.8389Z" fill="#EDE7D9"/>
<path d="M43.8137 53.881C43.8119 53.9312 43.8212 53.9812 43.8409 54.0279C43.8606 54.0747 43.8903 54.1173 43.9283 54.1531C43.9663 54.1889 44.0117 54.2173 44.0619 54.2364C44.112 54.2555 44.1659 54.265 44.2201 54.2643C44.2736 54.2639 44.3265 54.2537 44.3757 54.2343C44.4249 54.2148 44.4694 54.1865 44.5067 54.151C44.5833 54.079 44.6263 53.9821 44.6265 53.881C44.6254 53.7796 44.5847 53.682 44.5119 53.6062C44.4323 53.5376 44.3276 53.4994 44.2188 53.4994C44.11 53.4994 44.0053 53.5376 43.9257 53.6062C43.8878 53.6425 43.8584 53.6857 43.8391 53.7329C43.8198 53.7802 43.8112 53.8306 43.8137 53.881Z" fill="#EDE7D9"/>
<path d="M51.9077 46.6418C52.0129 46.6422 52.1141 46.604 52.189 46.5357C52.2293 46.5014 52.2612 46.4596 52.2827 46.4131C52.3043 46.3665 52.315 46.3163 52.3141 46.2657C52.3135 46.164 52.2706 46.0665 52.1942 45.9933C52.154 45.9579 52.1066 45.9303 52.0547 45.9121C52.0028 45.8938 51.9475 45.8854 51.8921 45.8872C51.8403 45.8867 51.7889 45.8958 51.741 45.914C51.6931 45.9322 51.6497 45.9592 51.6133 45.9933C51.537 46.0665 51.4941 46.164 51.4935 46.2657C51.4947 46.3651 51.5377 46.4602 51.6133 46.5309C51.6918 46.6024 51.7976 46.6422 51.9077 46.6418Z" fill="#EDE7D9"/>
<path d="M51.6003 49.9058C51.6545 49.9059 51.7081 49.8956 51.7578 49.8757C51.8076 49.8558 51.8524 49.8267 51.8895 49.7901C51.9634 49.7186 52.0053 49.6239 52.0067 49.5249C52.0083 49.4754 51.9985 49.4261 51.9778 49.3803C51.9572 49.3346 51.9261 49.2935 51.8869 49.2598C51.8104 49.1903 51.7075 49.1513 51.6003 49.1513C51.4931 49.1513 51.3902 49.1903 51.3137 49.2598C51.2339 49.3324 51.1881 49.431 51.1861 49.5346C51.1861 49.6312 51.2273 49.7239 51.3007 49.7925C51.3389 49.8302 51.3854 49.8599 51.4371 49.8794C51.4888 49.899 51.5445 49.908 51.6003 49.9058Z" fill="#EDE7D9"/>
<path d="M50.1831 53.2374C50.2807 53.2356 50.3739 53.1994 50.4436 53.1361C50.4885 53.1036 50.5246 53.0618 50.549 53.0141C50.5735 52.9664 50.5855 52.9141 50.5843 52.8613C50.5838 52.7591 50.5398 52.6612 50.4619 52.5889C50.3776 52.5191 50.2675 52.482 50.1545 52.4852C50.0567 52.4884 49.9637 52.5254 49.894 52.5889C49.8177 52.6621 49.7747 52.7596 49.7741 52.8613C49.7727 52.911 49.7822 52.9605 49.8021 53.0068C49.8221 53.053 49.8519 53.095 49.89 53.1302C49.928 53.1654 49.9734 53.193 50.0233 53.2114C50.0733 53.2299 50.1268 53.2387 50.1805 53.2374H50.1831Z" fill="#EDE7D9"/>
<path d="M54.2601 40.7525C54.3577 40.7507 54.4509 40.7145 54.5206 40.6513C54.5655 40.6187 54.6016 40.5769 54.626 40.5292C54.6504 40.4815 54.6625 40.4292 54.6613 40.3764C54.6608 40.2743 54.6168 40.1764 54.5388 40.104C54.4975 40.0689 54.449 40.0417 54.3963 40.0239C54.3435 40.0061 54.2875 39.9981 54.2314 40.0004C54.1336 40.0035 54.0407 40.0405 53.9709 40.104C53.8946 40.1772 53.8517 40.2748 53.8511 40.3764C53.8502 40.4749 53.8904 40.5698 53.9631 40.6416C54.0019 40.6777 54.0482 40.7062 54.0993 40.7253C54.1503 40.7443 54.205 40.7536 54.2601 40.7525Z" fill="#EDE7D9"/>
<path d="M56.5864 42.6425C56.6398 42.643 56.6928 42.6334 56.742 42.6143C56.7913 42.5952 56.8358 42.5671 56.873 42.5316C56.9114 42.4962 56.9418 42.4541 56.9624 42.4078C56.9829 42.3614 56.9933 42.3117 56.9928 42.2616C56.9921 42.1616 56.9487 42.066 56.8721 41.9955C56.7955 41.9251 56.6918 41.8855 56.5838 41.8855C56.5299 41.8844 56.4764 41.8937 56.4266 41.9128C56.3768 41.9319 56.3319 41.9604 56.2946 41.9964C56.2559 42.0306 56.2251 42.0718 56.2041 42.1174C56.183 42.163 56.1722 42.212 56.1722 42.2616C56.1722 42.3067 56.1822 42.3513 56.2014 42.3928C56.2207 42.4342 56.2489 42.4716 56.2842 42.5026C56.3188 42.5466 56.3643 42.5823 56.4169 42.6066C56.4695 42.6309 56.5276 42.6432 56.5864 42.6425Z" fill="#EDE7D9"/>
<path d="M55.7267 45.7498C55.7806 45.7487 55.8336 45.7377 55.8828 45.7174C55.932 45.6971 55.9764 45.668 56.0133 45.6317C56.0889 45.561 56.1319 45.466 56.1331 45.3665C56.1347 45.3179 56.1251 45.2696 56.1048 45.2247C56.0846 45.1798 56.0543 45.1394 56.0159 45.1062C55.9382 45.0389 55.8358 45.0015 55.7293 45.0015C55.6229 45.0015 55.5205 45.0389 55.4428 45.1062C55.4028 45.1414 55.3706 45.1836 55.3483 45.2304C55.3259 45.2771 55.3138 45.3275 55.3125 45.3786C55.3114 45.4281 55.3215 45.4772 55.3421 45.5229C55.3627 45.5686 55.3935 45.6098 55.4324 45.6438C55.5122 45.7126 55.6176 45.7506 55.7267 45.7498Z" fill="#EDE7D9"/>
<path fill-rule="evenodd" clip-rule="evenodd" d="M34.6085 49.8371C34.7124 49.9414 34.8532 50 35 50C35.1468 50 35.2876 49.9414 35.3915 49.8371L39.8237 45.3797C39.8781 45.3287 39.9218 45.2672 39.952 45.1989C39.9823 45.1305 39.9986 45.0568 39.9999 44.9819C40.0012 44.9071 39.9875 44.8328 39.9597 44.7634C39.9318 44.6941 39.8903 44.6311 39.8377 44.5781C39.7851 44.5252 39.7225 44.4835 39.6535 44.4555C39.5845 44.4275 39.5106 44.4137 39.4362 44.415C39.3618 44.4164 39.2885 44.4327 39.2205 44.4632C39.1525 44.4936 39.0914 44.5375 39.0407 44.5923L35.554 48.0987V37.5572C35.554 37.4094 35.4957 37.2677 35.3918 37.1632C35.2879 37.0587 35.1469 37 35 37C34.8531 37 34.7121 37.0587 34.6082 37.1632C34.5044 37.2677 34.446 37.4094 34.446 37.5572V48.0987L30.9593 44.5923C30.9086 44.5375 30.8475 44.4936 30.7795 44.4632C30.7115 44.4327 30.6382 44.4164 30.5638 44.415C30.4894 44.4137 30.4155 44.4275 30.3465 44.4555C30.2775 44.4835 30.2149 44.5252 30.1623 44.5781C30.1097 44.6311 30.0682 44.6941 30.0403 44.7634C30.0125 44.8328 29.9988 44.9071 30.0001 44.9819C30.0014 45.0568 30.0177 45.1305 30.048 45.1989C30.0782 45.2672 30.1219 45.3287 30.1763 45.3797L34.6085 49.8371Z" fill="#EDE7D9"/>
</svg>
