<svg width="61" height="87" viewBox="0 0 61 87" fill="none" xmlns="http://www.w3.org/2000/svg">
<path d="M26.484 86.1749C19.204 85.8649 10.784 82.4248 2.81404 77.7748C0.594042 76.4748 -0.205963 74.2748 0.0440373 71.4748C1.00404 60.8948 1.59404 50.2748 2.59404 39.7048C3.22404 33.0748 4.31404 26.4948 5.23404 19.8948C5.44404 18.3748 5.89403 16.8848 5.99403 15.3648C6.05403 14.3348 5.68403 13.2848 5.52403 12.2448C5.38403 11.3248 4.96404 10.2948 5.21404 9.49482C5.79404 7.68482 6.63404 5.92481 7.57404 4.26481C7.80404 3.85481 8.82403 3.69482 9.45403 3.74482C11.454 3.91482 13.104 3.38484 14.164 1.63484C15.384 -0.365161 17.214 -0.135167 19.024 0.284833C23.684 1.34483 28.344 2.37482 32.954 3.61482C39.774 5.44482 46.564 7.38483 53.3241 9.40483C55.494 10.0548 56.374 11.6448 55.764 13.8348C55.234 15.7248 56.194 16.5948 57.494 17.3848C60.294 19.0748 60.804 20.6748 59.394 23.6848C58.714 25.1248 58.124 26.6048 56.454 27.2848C56.084 27.4348 55.804 28.0648 55.664 28.5248C50.714 46.0348 44.184 62.9948 37.894 80.0348C36.054 85.0148 34.004 86.3349 26.484 86.1749ZM13.584 4.65483C12.274 4.99483 10.964 5.34482 9.43404 5.74482C16.714 11.9448 25.314 14.9148 33.784 18.1748C24.444 16.4948 16.034 12.8548 8.92404 6.31483C8.40404 7.20483 7.99403 7.85482 7.63403 8.52482C6.45403 10.7648 6.59404 11.4248 8.64404 12.9748C9.25404 13.4348 9.88405 13.9048 10.5741 14.2248C14.1041 15.8548 17.604 17.5648 21.204 19.0148C29.894 22.5248 38.834 25.0948 48.264 25.4648C50.604 25.5548 52.994 25.5248 55.294 25.1548C57.424 24.8148 58.454 21.3548 57.134 19.6748C53.814 20.8048 47.304 20.7748 44.274 19.2348C48.054 19.2348 51.834 19.2348 55.224 19.2348C54.714 17.5448 53.974 16.1348 53.934 14.6948C53.854 12.0948 53.664 11.4148 51.294 10.3248C50.334 9.88484 49.324 9.50483 48.304 9.25483C45.104 8.47483 41.884 7.80484 38.674 7.04484C32.084 5.48484 25.504 3.85484 18.904 2.32484C16.514 1.77484 14.924 2.56482 13.544 4.70482L13.584 4.65483ZM7.26404 14.6148C7.06404 16.8248 6.88403 19.1048 6.63403 21.3848C6.00403 27.1948 5.21404 32.9849 4.73404 38.8049C3.80404 50.1549 3.06403 61.5248 2.16403 72.8848C2.04403 74.4248 2.53404 75.5049 3.82404 76.0549C9.07404 78.2949 14.264 80.7548 19.674 82.5148C22.914 83.5748 26.514 83.6448 29.964 83.8748C32.334 84.0348 34.104 82.7648 35.024 80.4748C35.684 78.8348 36.4641 77.2448 37.0741 75.5848C42.7941 60.0948 48.494 44.5948 54.194 29.0948C54.344 28.6948 54.394 28.2548 54.504 27.7748C37.374 28.2148 22.034 22.8548 7.26404 14.6148Z" fill="#6F4F50"/>
<path d="M25.0438 61.4849C22.0038 61.4049 19.8038 59.7849 17.8638 58.0249C12.3338 53.0349 12.8938 43.8849 18.8038 39.2049C20.6438 37.7449 22.7738 37.3649 24.9538 37.4249C26.7538 37.4749 28.5938 37.7349 30.3138 38.2449C35.3638 39.7249 37.9238 43.8649 36.4938 49.6949C35.5238 53.6549 33.6938 57.1649 30.4238 59.5949C28.9738 60.6749 26.8638 60.8849 25.0438 61.4849Z" fill="#6F4F50"/>
<path d="M12.1636 21.3148C10.7536 21.0548 9.34359 20.7848 7.93359 20.5248C7.97359 20.3248 8.00359 20.1248 8.04359 19.9248C9.46359 20.1548 10.8736 20.3848 12.2936 20.6148C12.2436 20.8448 12.2036 21.0748 12.1636 21.3148Z" fill="#6F4F50"/>
<path d="M13.5439 4.69479C17.0439 6.04479 20.544 7.41478 24.054 8.74478C29.564 10.8448 35.1039 12.8648 41.0439 13.3448C42.8439 13.4848 44.664 13.3648 46.474 13.3648C46.484 13.5648 46.494 13.7548 46.494 13.9548C45.024 14.0248 43.514 14.3448 42.094 14.1348C38.264 13.5648 34.324 13.1848 30.694 11.9548C25.134 10.0748 19.794 7.54478 14.374 5.27478C14.074 5.15478 13.844 4.86479 13.584 4.65479L13.5439 4.69479Z" fill="#6F4F50"/>
<path d="M41.9746 8.93483C45.2246 8.47483 48.0046 9.52484 50.6546 10.9748C51.4846 11.4348 51.5646 12.2248 50.4646 12.6548C49.0546 13.2048 42.8846 11.0348 42.0746 9.71483C41.9946 9.59483 42.0246 9.39483 41.9746 8.93483Z" fill="#6F4F50"/>
<path d="M28.9835 7.59479C24.9435 6.11479 20.8935 4.64479 16.8535 3.16479C16.9135 2.99479 16.9735 2.82479 17.0335 2.65479C21.0735 4.10479 25.1135 5.54478 29.1635 6.99478C29.1035 7.19478 29.0435 7.39479 28.9835 7.59479Z" fill="#6F4F50"/>
</svg>
