<svg width="153" height="104" viewBox="0 0 153 104" fill="none" xmlns="http://www.w3.org/2000/svg">
<path d="M65.2326 18.4607L62.4647 12.6621C61.9057 11.4903 60.1614 12.5139 60.7204 13.679L63.4883 19.4844C64.0473 20.6562 65.7916 19.6325 65.2326 18.4607Z" fill="#6F4F50"/>
<path d="M81.4432 17.383C80.1361 11.6137 78.2987 5.97745 75.9544 0.546252C75.4358 -0.672727 73.6983 0.364415 74.2034 1.54972C76.4727 6.83076 78.2448 12.3118 79.4968 17.9218C79.7797 19.1879 81.7327 18.6491 81.4432 17.383Z" fill="#6F4F50"/>
<path d="M92.9258 4.18306V16.3055C92.9258 16.5734 93.0322 16.8304 93.2217 17.0198C93.4111 17.2093 93.6681 17.3157 93.936 17.3157C94.2039 17.3157 94.4609 17.2093 94.6503 17.0198C94.8398 16.8304 94.9462 16.5734 94.9462 16.3055V4.18306C94.9462 3.91513 94.8398 3.65818 94.6503 3.46873C94.4609 3.27928 94.2039 3.17285 93.936 3.17285C93.6681 3.17285 93.4111 3.27928 93.2217 3.46873C93.0322 3.65818 92.9258 3.91513 92.9258 4.18306Z" fill="#6F4F50"/>
<path d="M120.006 3.67118L111.992 15.8408C111.271 16.9251 113.022 17.942 113.736 16.8577L121.757 4.71505C122.471 3.60383 120.72 2.59363 120.006 3.67118Z" fill="#6F4F50"/>
<path d="M133.705 15.2347L127.771 20.9659C126.835 21.8683 128.263 23.2961 129.199 22.3936L135.139 16.6624C136.089 15.7532 134.654 14.3255 133.705 15.2347Z" fill="#6F4F50"/>
<g opacity="0.7" clip-path="url(#clip0_452_13327)">
<path d="M68.1839 86.5286C68.2674 86.4012 68.3166 86.2543 68.3268 86.102C68.337 85.9498 68.3078 85.7976 68.242 85.6601C68.1763 85.5226 68.0762 85.4046 67.9516 85.3175C67.827 85.2305 67.682 85.1774 67.5309 85.1634L54.6739 84.2049C50.4441 83.8853 46.5321 83.4496 42.7762 81.3001C40.0584 79.7683 37.4672 78.0198 35.0273 76.0717C35.1313 75.8393 35.2295 75.5837 35.3336 75.3223C36.7183 74.3489 37.7361 72.9346 38.2228 71.308C38.4308 70.8548 38.6234 70.3959 38.8006 69.9311C39.3173 68.9619 39.7336 67.9418 40.043 66.887C41.4702 61.8793 39.4651 54.8208 36.2754 50.7775C35.9287 50.336 34.9175 50.5103 34.669 50.9169C30.8957 56.7263 27.7349 64.2147 29.3933 71.0001C28.7384 70.3533 28.099 69.6968 27.4749 69.0307C27.4466 68.9962 27.4214 68.9593 27.3998 68.9203C26.481 67.5202 25.6663 66.0679 24.8977 64.6329C24.9029 64.4533 24.8601 64.2755 24.7737 64.1182C24.6873 63.9608 24.5605 63.8296 24.4066 63.7383C22.465 60.2526 20.4021 56.9761 16.4497 55.0765C11.6825 52.7934 6.17564 52.7004 1.02129 52.6539C0.66881 52.6539 -0.226845 52.9212 0.0505188 53.415C2.29415 57.6089 5.64473 61.0995 9.7338 63.503C13.8229 65.9064 18.492 67.1296 23.2278 67.038C24.3834 68.382 25.5777 69.6988 26.8104 70.9884C27.6299 72.0801 28.5177 73.1182 29.4685 74.0965C21.8525 73.8815 13.8667 81.5616 7.86872 84.6289C7.75936 84.6858 7.6709 84.7762 7.61625 84.8871C7.5616 84.998 7.5436 85.1236 7.56488 85.2455C7.58617 85.3674 7.64562 85.4793 7.73457 85.5648C7.82353 85.6504 7.93733 85.7051 8.05941 85.7211C12.1632 86.5903 16.4163 86.4341 20.4461 85.2663C24.4759 84.0985 28.1592 81.9547 31.1731 79.0229L32.1092 78.5581C32.5959 78.3188 33.0651 78.045 33.5134 77.739C35.5288 79.2869 37.6884 80.6351 39.9621 81.7649C40.7672 82.2606 41.5781 82.7293 42.3948 83.1708C45.1552 84.5912 48.1636 85.4593 51.2531 85.7269C56.6714 86.8905 62.1929 87.4997 67.7332 87.5453C68.5768 87.5627 69.1546 86.6506 68.1839 86.5286ZM12.659 63.5466C12.8671 63.6163 13.0751 63.6744 13.2889 63.7325C14.227 64.1375 15.1925 64.4753 16.1781 64.7433C16.6746 64.9775 17.1839 65.1831 17.7036 65.3591C15.9602 64.9456 14.2682 64.3377 12.659 63.5466Z" fill="#6F4F50"/>
</g>
<g clip-path="url(#clip1_452_13327)">
<path d="M86.4746 42.6473C88.2965 42.4645 90.0637 42.2513 91.8613 42.1294C91.5212 42.1294 91.1872 42.1294 90.835 42.1294C89.3703 42.1877 87.9124 42.3609 86.4746 42.6473Z" fill="#6F4F50"/>
<path d="M151.942 52.5306C151.091 50.0567 149.98 48.1495 147.557 47.0101C147.259 46.8699 146.95 46.7542 146.664 46.6445C146.213 46.4681 145.748 46.3315 145.273 46.2362C142.237 45.566 139.079 46.1875 136.164 47.3879C136.103 47.369 136.049 47.3305 136.012 47.2782C135.993 47.248 135.979 47.2151 135.97 47.1807C136.006 46.9431 136.03 46.6993 136.061 46.4861C136.164 45.7427 136.279 45.0115 136.352 44.2681C136.455 43.0255 136.426 41.7756 136.267 40.539V40.4842C136.266 39.9292 136.161 39.3793 135.958 38.8634C135.961 38.8167 135.961 38.7699 135.958 38.7232H135.897C135.729 38.351 135.525 37.996 135.29 37.663C135.156 37.4324 135.008 37.2106 134.846 36.9988C134.386 36.431 133.841 35.9378 133.231 35.5364L132.921 35.2988C132.495 34.9088 132.014 34.5843 131.494 34.336C131.026 34.0557 130.534 33.7815 130.006 33.5073C129.968 33.4653 129.923 33.4302 129.872 33.4038C129.642 33.288 129.411 33.1966 129.18 33.0991C126.876 32.0389 124.489 31.1688 122.044 30.4973C122.004 30.4555 121.95 30.4296 121.893 30.4241H121.716C113.992 28.2488 103.765 26.9388 92.6148 26.9388C86.6515 26.926 80.6943 27.321 74.7846 28.1209H74.6996C74.0321 28.0227 73.3558 28.0003 72.6833 28.0538C71.8756 28.2001 71.0983 28.5108 70.3027 28.7241L69.7562 28.8338L69.1489 28.9191C68.2411 29.0968 67.3448 29.3288 66.4646 29.6137L65.827 29.7722C65.6124 29.829 65.4039 29.9001 65.2015 29.9854C62.1048 30.7149 59.0833 31.7349 56.177 33.0321C54.8644 33.5352 53.6357 34.2358 52.5333 35.1099C50.2438 36.7551 48.9684 38.5648 48.9684 40.472C48.8719 47.0439 49.8484 53.5873 51.8592 59.8426C52.0309 60.5697 52.2459 61.286 52.5029 61.9874C52.7865 62.9813 53.1272 63.9578 53.5232 64.9122C53.7236 65.3509 53.9604 65.7774 54.2033 66.1979C54.507 66.923 54.8106 67.6481 55.1629 68.3732L55.4179 68.9825C55.6365 69.5004 55.843 70.0245 56.0738 70.5363C55.9783 70.5439 55.8854 70.5709 55.8005 70.6155C54.507 71.2858 52.9401 71.5356 51.5859 72.0901C50.4384 72.6604 49.3705 73.3795 48.4097 74.2288C47.1176 74.7986 45.9033 75.5317 44.7963 76.4102C43.272 77.6654 42.1606 79.7372 42.4825 81.7784C42.6704 82.8289 43.2261 83.7775 44.0493 84.4534C44.3595 84.9188 44.6983 85.3645 45.0635 85.7878C45.5836 86.7103 46.2597 87.5351 47.0615 88.2251C47.7177 88.9171 48.4154 89.5682 49.1506 90.175C50.7478 91.4775 52.4099 92.6977 54.1305 93.831C55.9488 95.1476 57.8723 96.3113 59.8815 97.3102C61.9038 98.2242 64.0172 98.9493 66.0699 99.8024C68.0063 100.566 70.037 101.062 72.1064 101.277C74.572 101.594 77.0073 102.106 79.4851 102.392C81.8657 102.672 84.2463 102.934 86.6269 103.202C91.169 103.745 95.7519 103.86 100.315 103.544C104.791 103.209 109.382 102.934 113.779 102.008C116.002 101.551 118.115 100.716 120.326 100.18C121.261 99.9608 122.214 99.8328 123.156 99.644C124.194 99.4307 124.887 98.8823 125.828 98.4253C127.65 97.5844 129.666 97.1701 131.47 96.2926C132.253 95.9149 132.933 95.3543 133.717 94.9521C134.642 94.4692 135.513 93.8891 136.316 93.2216C139.583 90.5528 143.482 87.4757 145.352 83.5699C145.369 83.5406 145.383 83.51 145.395 83.4785C145.715 83.0992 145.937 82.6471 146.043 82.1618C146.149 81.6764 146.135 81.1725 146.002 80.6938C146.07 79.9675 146.058 79.236 145.966 78.5124C145.68 76.983 144.186 76.3737 142.96 75.6364C143.458 75.1916 143.937 74.7285 144.411 74.2593C145.146 73.5159 145.887 72.7786 146.597 72.017C147.223 71.5202 147.817 70.985 148.377 70.4144C150.56 68.0055 151.962 64.9882 152.397 61.762C152.488 61.3903 152.573 61.0186 152.634 60.6469C153.098 57.9265 152.86 55.1323 151.942 52.5306ZM151.65 61.0612C151.099 63.4923 150.125 65.8068 148.771 67.8979C147.921 69.1922 146.945 70.3985 145.856 71.499C145.395 71.8646 144.927 72.218 144.484 72.5775C142.814 73.9242 141.447 75.6242 139.68 76.8429C139.61 76.8896 139.552 76.953 139.512 77.0273C139.472 77.1017 139.45 77.1848 139.449 77.2694C136.684 79.2908 133.607 80.8429 130.34 81.8637C128.03 82.5601 125.671 83.0795 123.283 83.4175C123.029 83.5524 122.745 83.6215 122.457 83.6186H121.698H121.455C121.279 83.6186 121.103 83.6552 120.921 83.6734L120.884 83.6369C120.865 83.6499 120.849 83.6664 120.836 83.6856H120.702L120.095 84.0451C120.01 84.0939 119.931 84.1548 119.846 84.2096C120.04 84.0878 119.81 84.2096 119.737 84.301C119.677 84.3764 119.612 84.4476 119.542 84.5143L119.433 84.6971H119.5L119.463 84.7459L119.305 84.8677C119.172 85.0244 119.003 85.1475 118.814 85.2272C118.516 85.4466 118.206 85.6659 117.927 85.8914C117.162 86.5007 116.56 87.2258 115.765 87.7681L115.376 88.018C113.591 89.0007 111.703 89.7814 109.747 90.3456C108.763 90.6746 107.761 91.0219 106.753 91.3266C105.471 91.5764 104.208 91.9359 102.921 92.1675C101.888 92.2772 100.856 92.2894 99.8234 92.3808C98.8032 92.3442 97.7829 92.265 96.7869 92.3076C95.0136 92.3868 93.2585 92.3076 91.4852 92.3929L90.5439 92.4417C90.0034 92.3625 89.4569 92.2711 88.9042 92.2284C87.0216 92.0822 85.1694 91.6617 83.311 91.3327C82.9709 91.2048 82.6309 91.0768 82.2847 90.9732C81.9385 90.8696 81.6774 90.7904 81.3312 90.7112C81.2968 90.6679 81.252 90.634 81.2011 90.6127C81.1501 90.5914 81.0946 90.5834 81.0397 90.5893H80.9851H80.9426C80.3353 90.437 79.7705 90.2968 79.1753 90.1506C78.2432 89.935 77.3278 89.652 76.4364 89.3036C76.0781 89.1026 75.7259 88.8954 75.3737 88.6943C73.8068 87.695 72.2825 86.6287 70.7157 85.6477C69.0517 84.5874 67.2298 83.5699 65.8938 82.0892C64.5708 80.4954 63.3536 78.8161 62.25 77.0622C61.5152 76.0203 60.7743 75.0758 60.0394 74.0582C58.8977 71.7245 57.9139 69.2994 56.6143 67.0509C55.6194 65.1704 54.7531 63.2242 54.0211 61.2257C53.2237 59.4286 52.5342 57.5851 51.9563 55.7052C51.7559 54.974 51.592 54.2489 51.4401 53.5177C50.9604 50.9159 50.5353 48.308 50.2255 45.6878C50.2318 45.6515 50.2318 45.6145 50.2255 45.5782C50.2255 44.9688 50.2255 44.3595 50.262 43.7502C50.5406 44.0959 50.8429 44.4217 51.1668 44.7251C51.6151 45.3902 52.1714 45.9752 52.8126 46.4556C53.5676 46.973 54.3835 47.3946 55.2418 47.7108L55.7459 47.9241C55.7741 47.9535 55.8081 47.9768 55.8457 47.9925C55.8833 48.0083 55.9237 48.0161 55.9645 48.0155C56.8124 48.4035 57.6824 48.7413 58.5698 49.027C58.7884 49.094 59.007 49.1427 59.2317 49.1915C61.3997 49.9863 63.612 50.6536 65.8573 51.1901C66.3625 51.3931 66.8849 51.5502 67.4181 51.6593C67.8675 51.7385 68.3169 51.7933 68.7602 51.836C75.1555 53.0889 81.6435 53.8063 88.1573 53.9808C89.5905 54.0905 91.0115 54.1636 92.463 54.1758C92.9935 54.1592 93.5227 54.1124 94.048 54.0357C95.2262 54.0357 96.4043 54.0357 97.5643 53.9625H97.6189C98.5321 54.0336 99.4484 54.056 100.364 54.0296C100.832 53.9856 101.297 53.9082 101.755 53.798C102.7 53.7807 103.643 53.7034 104.579 53.5665H104.803C105.137 53.5665 105.477 53.5665 105.811 53.5299C106.219 53.5298 106.626 53.491 107.026 53.4141C107.111 53.3933 107.194 53.3668 107.275 53.3349C107.998 53.2923 108.72 53.2374 109.443 53.1338C110.166 53.0303 110.737 52.9084 111.374 52.7682C115.187 52.2192 118.957 51.4048 122.658 50.3309C123.603 50.1164 124.53 49.8312 125.433 49.4779L125.931 49.2524C126.277 49.1245 126.629 49.0026 126.963 48.8685L127.225 48.765L127.109 48.5029C126.932 48.0911 126.69 47.7106 126.393 47.3757L126.302 47.2721H126.223V47.1807L126.156 47.1137C126.005 46.96 125.844 46.8155 125.676 46.681L125.299 46.4312L125.221 46.8943C125.183 46.6849 125.122 46.4804 125.038 46.285L125.008 46.2058L124.935 46.157C124.285 45.7627 123.614 45.4047 122.925 45.0846L122.603 44.9262L121.613 44.4448C121.872 44.7484 122.111 45.0679 122.33 45.4015L122.482 45.633L122.518 45.6757C122.546 45.7244 122.571 45.7753 122.591 45.828C122.593 45.8421 122.593 45.8565 122.591 45.8706C122.597 45.907 122.597 45.944 122.591 45.9803V46.0169C122.585 46.1138 122.556 46.2078 122.506 46.2911C122.448 46.3843 122.368 46.4612 122.272 46.5145C122.176 46.5678 122.069 46.5957 121.959 46.5957C121.85 46.5957 121.742 46.5678 121.647 46.5145C121.551 46.4612 121.471 46.3843 121.413 46.2911C121.291 46.0839 121.146 45.9011 121.012 45.6817L120.921 45.5782C120.818 45.438 120.714 45.304 120.599 45.176L120.453 45.0176C120.451 45.0076 120.451 44.9971 120.453 44.9871L120.411 44.9384L120.283 44.7982C120.144 44.6459 119.992 44.5057 119.84 44.3656L119.755 44.2986C119.609 44.1645 119.457 44.0366 119.299 43.9147H119.336C119.269 43.8599 119.19 43.8111 119.117 43.7563L119.032 43.6953C118.941 43.6229 118.846 43.5557 118.747 43.4943C118.65 43.4272 118.552 43.3602 118.449 43.2993C118.395 43.2592 118.338 43.2226 118.279 43.1896L118.224 43.153C117.208 42.5673 116.123 42.1109 114.994 41.7942L114.805 41.7394C114.52 41.6541 114.198 41.581 113.937 41.5139H113.87H113.822C113.524 41.4469 113.214 41.3799 112.917 41.325H112.838L112.449 41.2458H112.486H112.401L111.599 41.1118L111.259 41.0569L111.034 41.0265H111.125L110.311 40.9168C109.832 40.8559 109.352 40.7949 108.878 40.7462L108.538 40.7035L107.518 40.5878L106.862 40.5085L105.726 40.344C105.653 40.3357 105.582 40.3107 105.52 40.2709H105.465C105.425 40.2405 105.39 40.2034 105.362 40.1612C105.344 40.1347 105.33 40.1061 105.319 40.0759C105.299 40.0335 105.285 39.9884 105.277 39.9419C105.271 39.8913 105.271 39.8401 105.277 39.7895C105.274 39.7673 105.274 39.7448 105.277 39.7225C105.271 39.6883 105.271 39.6532 105.277 39.6189C105.344 39.4675 105.459 39.343 105.605 39.2655C105.168 39.2229 104.724 39.1802 104.293 39.1497L104.22 38.9974H104.05C103.165 38.9774 102.282 39.0716 101.421 39.2777C103.437 38.7232 105.672 39.0096 107.852 39.4239C108.781 39.5397 109.734 39.6494 110.694 39.7834L111.301 39.8809C111.599 39.9236 111.909 39.9662 112.2 40.0211H112.249C112.735 40.1064 113.214 40.1978 113.688 40.3014C115.14 40.6012 116.552 41.0695 117.897 41.6967L118.243 41.8673C118.648 42.0762 119.042 42.3081 119.421 42.562L119.633 42.6351L119.822 42.1172C118.771 41.6906 117.635 41.2824 116.269 40.8376L115.923 40.7279L114.168 40.1551C115.382 40.5167 116.556 40.8965 117.69 41.2946C119.978 42.0135 122.16 43.0383 124.176 44.3412L124.225 44.3717L123.97 44.2072L123.66 44.6581L123.708 44.7007C122.715 43.9613 121.612 43.3816 120.441 42.9824C120.125 42.8545 119.834 42.7448 119.506 42.6412C120.224 43.1328 120.877 43.7143 121.449 44.3717C122.348 44.8043 123.156 45.2187 123.927 45.633L124.935 46.1753V46.2362L125.002 46.2789C125.221 46.4251 125.423 46.5775 125.609 46.7359L126.156 47.1807V47.2416L126.229 47.3208C126.57 47.6939 126.849 48.1198 127.055 48.5822L127.158 48.8259L127.407 48.7223C128.894 48.1258 130.327 47.3999 131.688 46.5531C131.811 46.5227 131.922 46.4545 132.004 46.3581L132.198 46.218C132.68 46.0037 133.14 45.7424 133.571 45.438C133.979 45.1455 134.358 44.8128 134.7 44.4448L134.846 44.3108C135.326 44.6703 134.755 46.419 134.901 47.5463C134.901 47.5768 134.901 47.6072 134.87 47.6316C134.865 47.672 134.865 47.713 134.87 47.7535C134.87 47.7535 134.87 47.8022 134.87 47.8266V47.9363V48.1861C135.013 48.2691 135.141 48.3763 135.247 48.5029L135.466 48.4115C136.036 48.6614 136.808 48.4115 137.379 48.2653C138.502 47.9911 139.613 47.7352 140.749 47.5219C143.124 47.0771 145.577 47.1198 147.672 48.509C148.711 49.1976 149.099 50.3919 149.664 51.4521C150.193 52.4331 150.649 53.4513 151.031 54.4987C151.334 55.534 151.494 56.6064 151.504 57.6855C151.553 58.4838 151.705 59.2515 151.741 60.0436C151.79 60.3605 151.741 60.72 151.65 61.0612ZM124.322 45.1029C124.235 45.009 124.144 44.9195 124.048 44.8348C124.142 44.9256 124.232 45.0212 124.316 45.1212L124.322 45.1029ZM50.1466 80.4257L50.1041 80.3891C50.1041 80.3891 50.1405 80.4074 50.1466 80.4257ZM50.7539 78.683C50.7657 78.7379 50.784 78.7911 50.8085 78.8415C50.766 78.8049 50.7539 78.7318 50.7478 78.683H50.7539ZM76.7583 90.7782H76.5458C76.5488 90.7397 76.5488 90.701 76.5458 90.6624L76.7583 90.7782ZM70.4181 87.2015C70.3835 87.2203 70.3509 87.2427 70.321 87.2685L70.0659 87.0247L70.2481 87.0796L70.4181 87.2015ZM49.9462 79.4203L49.8308 79.4995L49.8612 79.4569L49.9401 79.3777C49.9401 79.3777 49.9462 79.4081 49.9462 79.4203ZM51.0211 79.8103L50.9543 79.9139C50.9543 79.9139 50.9543 79.9139 50.9543 79.8651L51.0211 79.8103ZM115.801 90.108C115.796 90.1565 115.796 90.2056 115.801 90.2542L115.376 90.3822C115.158 90.4248 114.945 90.4736 114.726 90.5284L115.801 90.108ZM121.48 90.2725H121.516H121.279H121.48ZM124.297 86.7749L124.231 86.6957C124.18 86.5899 124.1 86.501 124 86.4398C124.237 86.4398 124.48 86.4398 124.723 86.4398C124.595 86.5312 124.443 86.6531 124.297 86.7749ZM117.733 88.1764C117.933 88.0119 118.121 87.8412 118.303 87.6706C118.364 87.7524 118.449 87.8123 118.546 87.8412L117.733 88.1764ZM123.235 90.047C123.812 89.8947 124.389 89.7424 124.965 89.5717C124.956 89.6303 124.956 89.6899 124.965 89.7485C124.413 89.8581 123.806 89.9556 123.235 90.047ZM130.868 87.6828C130.978 87.6398 131.072 87.5631 131.136 87.4635C131.172 87.4935 131.213 87.5181 131.257 87.5366L130.729 87.762L130.225 87.957C130.225 87.957 130.225 87.957 130.225 87.9083L130.868 87.6828ZM139.905 79.8956H139.802L139.947 79.8286L139.905 79.8956ZM133.771 81.6261H133.704L133.923 81.5347L133.789 81.6139L133.771 81.6261ZM125.542 84.0634C125.522 84.0453 125.497 84.0327 125.47 84.0268L125.816 83.9659L125.542 84.0634ZM122.196 84.6057H122.075H121.947L122.342 84.557L122.196 84.6057ZM60.5435 32.636C62.1225 32.179 63.5071 31.2163 65.0679 30.741C66.6286 30.2657 68.1468 29.8514 69.6833 29.5223C69.9202 29.4736 70.1509 29.4187 70.3817 29.3578H70.4606C71.0679 29.2786 71.7117 29.2177 72.3372 29.1628C75.0397 28.9435 77.7482 29.1933 80.4082 28.6693C81.811 28.3951 83.2564 28.2245 84.6592 28.0173C85.98 27.9015 87.3075 27.8832 88.6309 27.9624L97.1331 27.9929C99.9327 27.9929 102.793 27.8771 105.52 28.6022C106.611 28.8232 107.714 28.9758 108.824 29.0592C110.111 29.242 111.392 29.4005 112.68 29.5345C114.007 29.757 115.319 30.0602 116.609 30.4424C118.012 30.7593 119.318 31.2955 120.739 31.5575C122.167 31.751 123.573 32.0857 124.935 32.5568C126.186 33.0443 127.468 33.3245 128.7 33.8181C129.21 34.1167 129.696 34.4579 130.225 34.7382C131.006 35.1359 131.76 35.5837 132.484 36.0787C132.599 36.2067 132.708 36.3346 132.836 36.4626C133.486 37.0329 134.065 37.6794 134.561 38.3881C134.943 39.0859 135.186 39.8516 135.277 40.6426C135.277 40.8924 135.277 41.1422 135.277 41.3738C135.277 41.6053 135.277 41.6967 135.277 41.8673C135.137 42.5373 134.818 43.1564 134.354 43.6588L133.607 44.195C133.014 44.619 132.374 44.9727 131.7 45.2491C131.014 44.7556 130.413 44.0914 129.672 43.6405C128.634 43.0312 127.559 42.4523 126.508 41.843C125.537 41.2844 124.521 40.8075 123.472 40.4171C121.925 39.6741 120.293 39.1237 118.613 38.778L117.854 38.5892C116.841 38.1233 115.768 37.8013 114.666 37.6325C113.609 37.2869 112.529 37.0141 111.435 36.816C108.757 36.3651 105.969 36.097 103.285 35.9142C97.6789 35.6094 92.0579 35.7255 86.469 36.2615C81.0402 36.6635 75.6775 37.7045 70.491 39.363C69.8837 39.558 69.3311 39.7591 68.7481 39.9723C68.131 39.9584 67.5157 40.0448 66.9262 40.2282C66.8815 40.2465 66.8418 40.2751 66.8104 40.3118C66.7789 40.3485 66.7566 40.3922 66.7454 40.4392C66.7341 40.4863 66.7341 40.5353 66.7455 40.5824C66.7569 40.6294 66.7793 40.673 66.8108 40.7096C65.2622 41.3189 63.7318 41.977 62.2621 42.6717C60.8392 43.3063 59.4841 44.0842 58.2176 44.9932C57.7924 45.3101 57.3673 45.6391 57.003 45.9864C56.7744 46.1959 56.5707 46.431 56.3957 46.6871C55.3027 46.2923 54.264 45.7599 53.3045 45.1029C52.0705 44.2153 51.1226 42.9846 50.5778 41.5627C50.311 41.0321 50.1756 40.4447 50.183 39.8505C50.2316 39.6067 50.2923 39.3691 50.3591 39.1315C50.3768 39.0817 50.3971 39.0328 50.4199 38.9852C50.7589 38.2515 51.2097 37.5752 51.7559 36.9805C52.158 36.54 52.5946 36.1324 53.0616 35.7619C54.5032 34.7579 56.077 33.9602 57.7378 33.3916L58.175 33.2392C58.9645 33.0321 59.754 32.8615 60.5435 32.636ZM128.518 46.742C128.527 46.6978 128.527 46.6521 128.518 46.6079L128.779 46.547C128.803 46.5646 128.827 46.5809 128.852 46.5957L128.518 46.742ZM126.089 45.1394H126.162C126.162 45.1394 126.162 45.1882 126.162 45.2187C126.13 45.194 126.1 45.1676 126.071 45.1394H126.089ZM112.364 38.2357C112.121 38.1992 111.896 38.1626 111.72 38.12L110.852 37.9067C111.356 38.0164 111.854 38.12 112.346 38.2357H112.364ZM58.667 47.3391C59.0192 47.2721 59.3714 47.1868 59.7176 47.0893C59.6774 47.1175 59.6424 47.1526 59.6143 47.1929C59.5632 47.2287 59.52 47.2749 59.4876 47.3284C59.4552 47.3819 59.4342 47.4416 59.4261 47.5036H59.171C58.9949 47.4488 58.8248 47.394 58.667 47.3391ZM79.5701 39.0644C80.0741 38.9365 80.5782 38.8207 81.0823 38.711C81.4547 38.6298 81.8252 38.5567 82.1936 38.4917L82.5883 38.4246L83.5904 38.2662L84.0276 38.2053C84.3677 38.1626 84.7017 38.1261 85.0418 38.0956L85.4487 38.0529C85.9224 38.0103 86.39 37.9737 86.8637 37.9494C86.9587 37.9371 87.0553 37.9492 87.1444 37.9847C87.2334 38.0202 87.312 38.0778 87.3727 38.1522C87.4335 38.2265 87.4744 38.3151 87.4915 38.4097C87.5087 38.5043 87.5017 38.6017 87.471 38.6927C87.4605 38.7326 87.4463 38.7714 87.4285 38.8085C87.3933 38.8881 87.3414 38.9592 87.2765 39.0171C87.2115 39.0749 87.135 39.118 87.052 39.1436H87.2099C89.469 38.9304 92.1047 38.8634 94.4974 39.9114L94.4428 39.948C92.1715 38.9426 89.7059 38.9791 87.8111 39.1254H87.6836L87.6107 39.2533H86.9366H86.6633L85.9953 39.3264C84.5803 39.4971 83.1774 39.6677 81.7928 39.8627C80.6754 40.0861 79.5701 40.3603 78.477 40.6852H78.4223L78.1186 40.7827C77.7482 40.8924 77.3778 41.0143 77.0134 41.1361C76.8919 41.1788 76.7644 41.2093 76.6368 41.258L76.479 41.3129C75.9749 41.4896 75.4708 41.6724 74.9729 41.8734H74.9H74.8514C73.5518 42.3853 72.2704 42.958 71.0072 43.5917C77.6349 40.7722 84.8205 39.5212 92.0075 39.9358C84.6281 39.5194 77.2547 40.8533 70.4849 43.8294L69.8776 44.1523C69.7951 44.1973 69.7041 44.2243 69.6104 44.2315C68.7298 44.6337 67.8675 45.0541 67.0233 45.5111L66.9505 45.5477L66.8837 45.6696C66.8169 45.7975 66.744 45.9194 66.6833 46.0473L66.4161 46.6567C66.4525 46.5592 66.4889 46.4556 66.5375 46.3459L66.8351 45.6147L66.1488 46.0047C65.0375 46.614 63.9565 47.3087 62.9302 48.0155L62.9605 47.9728C64.2142 47.1086 65.5137 46.3133 66.8533 45.5903L66.9201 45.5599V45.5233L67.9586 44.9993C68.4687 44.7393 68.9849 44.4895 69.5072 44.2498C69.3948 44.2388 69.2874 44.1983 69.1956 44.1324C69.1037 44.0666 69.0308 43.9776 68.984 43.8745C68.9373 43.7715 68.9183 43.6579 68.9292 43.5451C68.94 43.4324 68.9802 43.3245 69.0456 43.2322C68.5358 43.6376 68.0733 44.0996 67.6671 44.6093L67.2359 45.1273C67.4346 44.8379 67.6559 44.5649 67.8979 44.3108L68.8817 43.2383L69.3311 43.0434H69.3797C70.9586 41.9942 72.6983 41.212 74.5295 40.7279C75.3797 40.3989 76.2421 40.1186 77.1105 39.8139H77.153C77.5417 39.6859 77.9304 39.5702 78.3251 39.4544C78.7199 39.3386 79.1511 39.168 79.5701 39.0644ZM113.645 45.828C113.661 45.8731 113.686 45.9145 113.718 45.9499H113.512L113.645 45.828ZM82.3211 51.2693C81.6713 51.1596 81.0215 51.0317 80.3778 50.8976L79.7341 50.7696H79.6308C78.9385 50.6234 78.2523 50.465 77.566 50.3005C75.5619 49.7927 73.566 49.222 71.5781 48.5882C70.7279 48.3201 69.8716 48.0459 69.0214 47.7596C68.908 47.723 68.8079 47.6539 68.7334 47.5607C68.6588 47.4676 68.6133 47.3545 68.6023 47.2355C68.5995 47.2235 68.5995 47.211 68.6023 47.199C68.5898 47.1284 68.5898 47.0562 68.6023 46.9857C68.6221 46.8872 68.6659 46.7951 68.7299 46.7176L68.5355 46.5957L68.7299 46.7115C68.7775 46.6516 68.8374 46.6027 68.9055 46.568C68.9736 46.5334 69.0483 46.5137 69.1246 46.5104L69.1489 46.4373L69.6044 46.3764L69.3432 46.0047C69.2582 45.8828 69.1732 45.761 69.1003 45.633L68.9728 45.4075L68.742 45.5233C67.4302 46.1814 66.7258 46.742 66.5922 47.3513C66.5622 47.4596 66.5581 47.5734 66.5802 47.6835C66.6024 47.7936 66.6502 47.8969 66.7197 47.985H66.659C66.5532 47.8543 66.4878 47.6955 66.4707 47.528L66.4343 47.3208L66.246 47.2721L66.2824 47.132L67.1387 46.4373C68.3898 45.3649 70.9586 44.5057 72.0518 44.1341L72.3858 44.0244C73.2117 43.738 74.0437 43.4821 74.8818 43.2444C74.3656 43.3968 73.8554 43.5552 73.3453 43.7258L73.1935 43.7745C71.8552 44.1857 70.5396 44.6678 69.2521 45.2187L68.9788 45.3466L69.1307 45.6086C69.3866 46.0436 69.7129 46.4328 70.0963 46.7603L70.904 47.0223L71.3716 47.1746L72.3129 47.4671L73.0842 47.7047L73.6915 47.8936L74.6449 48.1678L74.8757 48.2348L75.149 48.3141L75.3008 48.3567C75.8474 48.509 76.4 48.6553 76.9466 48.7954L77.402 48.832L78.4223 48.9234C79.5762 49.0331 80.7341 49.1245 81.896 49.1976C80.3717 49.1062 78.8596 48.9904 77.3656 48.8503H77.2684L77.0437 48.8746C77.651 49.0209 78.1915 49.1549 78.7685 49.289C79.3272 49.4169 79.892 49.5388 80.4507 49.6546L80.5964 49.685L80.7908 49.7277L81.3312 49.8313H81.2766C81.4102 49.8617 81.5499 49.88 81.6835 49.9044C82.1875 50.0019 82.6916 50.0872 83.2017 50.1725H83.2867C83.9386 50.2781 84.5884 50.3695 85.2362 50.4467C87.0155 50.4467 88.801 50.3675 90.5621 50.2944L92.2018 50.2273V49.9531V49.685C89.9548 49.6241 87.8536 49.551 85.8252 49.4596C88.2544 49.5632 90.6836 49.6241 93.0278 49.685L94.71 49.7643L94.5217 50.1603H94.959C96.04 50.1603 96.9873 50.1603 97.8679 50.1908C95.4387 50.1299 92.9245 50.2273 90.4711 50.3248C89.1654 50.3797 87.8536 50.4345 86.5418 50.465V50.5929C86.9609 50.6356 87.3738 50.6661 87.7929 50.6965H87.6957H87.969C88.1998 50.6965 88.4305 50.7087 88.6613 50.7331L89.2686 50.7696H89.797C90.7747 50.8001 91.7524 50.7696 92.7302 50.7696H92.9185H93.216C93.6351 50.7696 94.048 50.7209 94.461 50.6843H94.6796H94.965C95.378 50.6417 95.7849 50.599 96.1796 50.5442C96.2829 50.5442 96.3922 50.5442 96.4954 50.5076C97.0359 50.4345 97.5825 50.3492 98.123 50.2517C99.0886 50.075 100.048 49.8678 101.014 49.6424C101.336 49.5571 101.657 49.4718 101.979 49.3743C102.054 49.3626 102.13 49.3626 102.204 49.3743C102.266 49.3814 102.325 49.4 102.38 49.4291H102.41C102.462 49.4586 102.509 49.4956 102.55 49.5388C102.59 49.587 102.622 49.6403 102.647 49.6972C102.677 49.7583 102.696 49.8244 102.702 49.8922C102.714 49.9587 102.714 50.0268 102.702 50.0933C102.693 50.1574 102.672 50.2193 102.641 50.2761C102.604 50.3345 102.559 50.3877 102.508 50.4345C102.44 50.4842 102.364 50.5214 102.283 50.5442C101.481 50.7818 100.674 50.9829 99.8538 51.1535L98.9064 51.312L98.2991 51.4216C97.9712 51.4765 97.6493 51.5374 97.3214 51.5862L96.6108 51.6836L96.0035 51.7629C95.4812 51.8238 94.965 51.8725 94.4428 51.9152H94.1513C93.544 51.9578 92.9367 51.9883 92.3597 52.0066H91.7524C91.3273 52.0066 90.9022 52.0066 90.4771 52.0066H89.803C89.3354 52.0066 88.8739 51.9761 88.4123 51.9457H87.969C86.0762 51.8161 84.1912 51.5903 82.3211 51.2693ZM67.576 43.8538C65.7525 44.7338 64.0263 45.804 62.4261 47.0466V46.9796C64.4231 45.4843 66.5876 44.2287 68.8756 43.2383L67.576 43.8538ZM104.579 51.0987H104.172C104.451 51.0499 104.743 51.0012 105.04 50.9342L104.603 51.1231L104.579 51.0987ZM78.2583 46.7846L78.9567 46.6689L79.0478 46.7664C78.7745 46.7785 78.5073 46.7846 78.2583 46.7846ZM100.546 44.4692H100.589L100.777 44.3351H100.813L100.904 44.3778L100.595 44.4996L100.546 44.4692ZM98.4206 44.0427C98.3817 44.0242 98.341 44.0099 98.2991 44H98.5117L98.4206 44.0427ZM78.4102 45.6208C77.1782 46.3207 76.0007 47.113 74.8878 47.9911L74.9486 48.0642H74.8696L74.821 48.0277C75.9541 47.1342 77.154 46.3296 78.4102 45.6208ZM104.178 44.5545C103.06 44.7007 101.888 44.1706 100.759 43.6588C100.37 43.4882 99.9752 43.3054 99.5866 43.1591C100.06 43.3236 100.552 43.5125 101.074 43.7258L101.445 43.8781C102.287 44.3244 103.226 44.5547 104.178 44.5484V44.5545ZM98.378 43.3907C98.251 43.4692 98.1009 43.5015 97.9529 43.4821C96.6807 43.3142 95.3977 43.2429 94.1148 43.2688H93.8658L93.0399 43.2993H92.4326H92.3415C91.2666 43.3602 90.1978 43.4577 89.1229 43.5735H88.9407L86.7665 43.8111L85.8556 43.9086L84.641 44.0244L83.8758 44.0914C83.3414 44.1341 82.813 44.1645 82.2786 44.1889C81.9203 44.1889 81.5681 44.2255 81.2098 44.2315H81.1673L80.7118 44.4204L81.1369 44.2255C81.021 44.2184 80.9102 44.1753 80.8199 44.1021C80.7296 44.0289 80.6642 43.9294 80.6329 43.8172C78.3343 44.6455 76.1955 45.8658 74.3109 47.4244H74.2562C76.1787 45.8664 78.3543 44.6524 80.6875 43.8355C80.6662 43.7351 80.6662 43.6312 80.6875 43.5308C80.6875 43.5003 80.6875 43.4699 80.6875 43.4394V43.3907C80.6842 43.3746 80.6842 43.358 80.6875 43.3419C80.6875 43.3419 80.6875 43.3054 80.7239 43.2871C80.7449 43.2522 80.7693 43.2196 80.7968 43.1896C80.8279 43.1624 80.8626 43.1398 80.9001 43.1226L80.9669 43.0738C81.0429 43.0463 81.1229 43.0319 81.2037 43.0312C81.5681 43.0312 81.9325 43.0312 82.2968 42.9946C82.73 42.9946 83.1612 42.9702 83.5904 42.9215C84.5499 42.6717 85.5398 42.4523 86.5844 42.2695L87.0155 42.2025L87.3678 42.172L87.3313 41.6236C84.9831 41.5837 82.6355 41.7324 80.311 42.0684C83.4357 41.5974 86.6028 41.4748 89.7544 41.7028L89.8395 41.8613H90.0156C93.1253 41.5596 96.2631 41.7653 99.3072 42.4706C98.9489 42.3853 98.5663 42.3061 98.1412 42.2269V42.2756H98.3234C98.4204 42.2826 98.5129 42.3189 98.5889 42.3799C98.6648 42.4408 98.7204 42.5234 98.7485 42.6168C98.7485 42.6168 98.7485 42.6168 98.7485 42.6534C98.7671 42.7993 98.7418 42.9475 98.6758 43.0789C98.6098 43.2103 98.5061 43.3189 98.378 43.3907ZM113.111 49.1549C113.096 49.1801 113.084 49.2066 113.075 49.2341C112.753 49.3012 112.467 49.3682 112.176 49.4352H112.048C112.498 49.222 112.947 49.0087 113.396 48.8259C113.299 48.9417 113.202 49.0452 113.111 49.1549ZM116.366 47.3635L116.202 47.2538L116.427 47.1685C116.395 47.2292 116.374 47.2953 116.366 47.3635ZM108.745 46.1022H108.781L108.666 46.2119C108.612 46.2747 108.574 46.3501 108.556 46.4312L107.676 46.5348C108.049 46.4359 108.408 46.2906 108.745 46.1022ZM94.3213 37.1207L94.048 37.0841C94.0176 37.0454 93.9806 37.0124 93.9387 36.9866H95.0926L94.3213 37.1207ZM81.8353 37.9067H81.641L82.2483 37.8214L81.8353 37.9067ZM78.4041 38.4429C77.4263 38.644 76.4486 38.8634 75.4891 39.1315L74.5417 39.2899C75.8777 38.9426 77.2259 38.6501 78.5863 38.4003L78.4041 38.4429ZM117.429 48.2653C117.43 48.1588 117.398 48.0547 117.338 47.9667C117.812 47.9241 118.285 47.8631 118.753 47.7961C118.297 47.9119 117.854 48.0642 117.429 48.2653ZM119.22 30.2779L119.123 30.2474H119.22V30.2779ZM78.0944 28.4499C77.4871 28.4804 76.8798 28.4865 76.2725 28.4865C77.7786 28.2976 79.3089 28.1392 80.9061 27.999C79.9816 28.2154 79.0414 28.3581 78.0944 28.4255V28.4499ZM54.4523 74.6371C54.4181 74.6315 54.3833 74.6315 54.3491 74.6371L54.5191 74.5579L54.4523 74.6371ZM59.6629 89.8703L60.3492 90.0348L59.6629 89.8764V89.8703ZM67.327 91.4668C67.6713 91.5192 68.0106 91.6007 68.3412 91.7105L66.6711 91.3936C66.8857 91.4139 67.1043 91.4383 67.327 91.4668ZM87.9751 93.831L88.3273 93.8797H87.9326L87.9751 93.831ZM102.113 93.7457C102.133 93.7898 102.16 93.8308 102.192 93.8675C101.755 93.8675 101.323 93.9163 100.886 93.9285C101.281 93.8736 101.688 93.8127 102.095 93.7457H102.113ZM134.846 92.9779C134.172 93.432 133.468 93.8391 132.739 94.1965C131.916 94.7258 131.057 95.1982 130.17 95.6102C128.47 96.2744 126.526 96.7436 124.929 97.6393C124.108 98.1497 123.197 98.4972 122.245 98.6629C121.419 98.8031 120.593 98.9554 119.779 99.1565C117.654 99.6683 115.613 100.467 113.469 100.905C109.218 101.777 104.846 102.033 100.558 102.374C96.1837 102.7 91.7885 102.62 87.4285 102.136C83.0256 101.667 78.6045 101.216 74.238 100.436C72.3493 100.101 70.4181 100.016 68.572 99.4612C66.5314 98.8518 64.6002 97.8586 62.6022 97.1213C59.7435 96.0031 57.0279 94.5466 54.513 92.7829C54.4797 92.7092 54.4245 92.6475 54.3551 92.6062C54.0454 92.4295 53.7479 92.2345 53.4381 92.0334C52.9827 91.7166 52.5393 91.3876 52.0899 91.0585C51.3369 90.4492 50.6081 89.8398 49.9097 89.1513C49.019 88.2414 48.1445 87.3274 47.2862 86.4093L47.2073 86.3667C47.1887 86.358 47.1721 86.3456 47.1587 86.3301L47.0797 86.2509C47.0007 86.2332 46.9275 86.1954 46.8672 86.1412C46.5259 85.7921 46.2093 85.4195 45.9198 85.0261C45.8105 84.8921 45.7073 84.7519 45.6101 84.6057L45.5676 84.5448L45.3186 84.1426C45.2457 84.0147 45.1728 83.8867 45.106 83.7587L45.0028 83.6064C44.8798 83.3691 44.7703 83.125 44.6748 82.8752L44.6445 82.8326C44.4013 82.5173 44.2331 82.1505 44.1526 81.7601C44.1062 81.7659 44.0593 81.7659 44.0129 81.7601C44.0129 80.8705 43.9765 80.0906 44.5473 79.3228C44.9238 78.8239 45.3293 78.3478 45.7619 77.897C46.966 76.8041 48.2601 75.8155 49.6304 74.9417C50.0616 74.6371 50.4563 74.3324 50.845 74.0582C51.9122 73.5952 53.0027 73.1884 54.1122 72.8396C54.6527 72.5532 55.1932 72.2668 55.7398 71.9865C55.8211 71.944 55.9132 71.927 56.0042 71.9379C56.0952 71.9488 56.1809 71.987 56.2499 72.0474L56.7904 71.9377C56.8511 72.0434 56.9119 72.1409 56.9726 72.2302C56.8836 72.1744 56.7799 72.1468 56.675 72.151C56.7054 72.1785 56.7301 72.2116 56.7479 72.2485L56.9422 72.6324C56.9982 72.7317 57.0168 72.8479 56.9945 72.9597C56.9722 73.0716 56.9105 73.1717 56.8208 73.2417C56.8208 73.2417 56.8208 73.2417 56.7783 73.2844C56.4442 73.455 56.1042 73.6195 55.7641 73.7779L55.5515 73.8754L54.6649 74.2654L54.3187 74.4055L51.9503 75.3926H51.8835L51.0089 75.7826L50.4685 76.0446H50.4381L50.0373 76.2518L49.8612 76.3432C49.6547 76.4468 49.4482 76.5626 49.2539 76.6783C49.0595 76.7941 48.7134 76.9891 48.4522 77.1658C48.2943 77.2694 48.1486 77.3791 48.0089 77.4826L47.8753 77.5923L47.6202 77.8117L47.4927 77.9396C47.4212 78.0062 47.3543 78.0774 47.2923 78.1529L47.1769 78.2809L47.0129 78.5063L46.9279 78.6221C46.8591 78.7277 46.7984 78.8313 46.7457 78.9329V78.9694C46.6911 79.0852 46.6425 79.201 46.6 79.3106C46.5575 79.4203 46.6 79.3898 46.6 79.4264C46.6 79.463 46.5575 79.5422 46.5453 79.597C46.4017 80.203 46.4354 80.8378 46.6425 81.425C46.2903 82.3817 47.2498 83.1921 47.9057 83.7953C49.1749 84.9043 50.6385 85.7939 51.9199 86.8785C52.7978 87.5798 53.8019 88.1052 54.8774 88.4262C55.4301 88.7857 55.9888 89.1391 56.5536 89.4803C56.6264 89.4803 56.6993 89.5352 56.7722 89.5717H56.8451H57.1123C57.2823 89.6327 57.4584 89.6814 57.6345 89.7302C57.8852 89.8465 58.1479 89.9344 58.418 89.9922L58.8491 90.1323C58.8914 90.1382 58.9344 90.1382 58.9767 90.1323C59.0292 90.1526 59.0845 90.1649 59.1406 90.1689V90.2725C63.1063 91.2413 67.1509 92.0456 71.2501 92.7098C79.1897 93.9349 87.2114 94.546 95.2444 94.5378C100.431 94.5378 105.623 94.2758 110.773 93.7639C111.882 93.6258 112.998 93.4918 114.119 93.3618C120.277 92.6367 126.593 91.8811 132.678 89.6449C133.893 89.2549 135.071 88.8527 136.231 88.3653C136.769 88.1778 137.252 87.8572 137.634 87.433L137.779 87.3538L137.743 87.2868L137.804 87.1771L138.593 86.9333C139.109 86.6531 139.62 86.3728 140.118 86.0681C140.137 86.0356 140.161 86.0067 140.19 85.9828C140.53 85.7025 140.907 85.4222 141.277 85.1419C142.304 83.6125 143.354 81.8454 143.142 80.3038C142.703 79.7436 142.338 79.1293 142.055 78.4759L141.812 78.287C141.715 78.2232 141.644 78.1263 141.613 78.0143C141.582 77.9023 141.592 77.7827 141.642 77.6776C141.754 77.4033 141.947 77.1697 142.194 77.0074H142.231C142.26 76.9678 142.298 76.9348 142.341 76.9105C142.384 76.8861 142.431 76.8708 142.48 76.8657C142.529 76.8605 142.579 76.8656 142.626 76.8805C142.673 76.8955 142.716 76.92 142.753 76.9525L142.814 77.0074C142.923 76.979 143.038 76.9943 143.136 77.05C143.469 77.2688 143.76 77.5477 143.992 77.8726C144.059 77.9518 144.107 78.031 144.168 78.1042C144.391 78.4655 144.57 78.8521 144.703 79.2558C144.854 79.6043 144.95 79.9743 144.988 80.3526C144.988 80.4562 144.988 80.5598 144.988 80.6633C144.994 80.7811 144.994 80.899 144.988 81.0168C144.997 81.2771 144.986 81.5378 144.958 81.7967C144.923 82.0699 144.856 82.338 144.757 82.5949C144.715 82.7152 144.666 82.8332 144.612 82.9483C144.615 82.9644 144.615 82.981 144.612 82.9971C144.538 83.1466 144.455 83.2911 144.363 83.4297L144.314 83.5028C144.223 83.6369 144.126 83.7648 144.029 83.8867L143.956 83.9659C143.852 84.0939 143.743 84.2218 143.628 84.3437C143.421 84.6301 143.203 84.9104 142.972 85.1907L143.087 85.1358C140.705 88.1191 137.924 90.758 134.822 92.9779H134.846ZM142.249 76.526C142.201 76.5172 142.152 76.5172 142.103 76.526H142.024L142.116 76.4468L142.249 76.526Z" fill="#6F4F50"/>
<path d="M142.631 52.5307H142.534C141.647 52.3812 140.743 52.3627 139.85 52.4758C138.864 52.5433 137.885 52.69 136.923 52.9146C136.158 53.0913 135.399 53.3167 134.645 53.5239C134.579 53.6945 134.518 53.8712 134.457 54.0479C134.457 54.0479 134.457 54.0906 134.457 54.1149L134.396 54.2977L134.251 54.706C134.251 55.1813 134.178 55.6626 134.117 56.144C134.014 56.7533 133.905 57.32 133.807 57.9171C133.522 58.7641 133.2 59.5928 132.927 60.4459C132.907 60.4889 132.897 60.5356 132.897 60.583C132.897 60.6303 132.907 60.677 132.927 60.7201C132.32 62.152 131.998 63.6753 131.536 65.1438L131.299 65.8567C131.166 66.1797 131.032 66.466 130.905 66.8255C130.51 67.8553 130.17 68.9704 129.757 70.0428C129.726 70.1098 129.702 70.1769 129.678 70.2439C129.442 70.8595 129.159 71.4563 128.834 72.0292C128.542 72.535 128.226 73.0102 127.935 73.5221C127.564 74.168 127.103 75.3196 126.459 75.74C126.354 75.8108 126.273 75.9129 126.228 76.032C126.184 76.1511 126.177 76.2813 126.21 76.4042C126.471 77.7264 128.73 77.1476 129.55 76.8856C130.605 76.522 131.6 76.0024 132.502 75.344C133.188 74.8687 133.862 74.4422 134.567 74.0339C135.672 73.4672 136.753 72.8518 137.797 72.2059C138.131 71.9927 138.459 71.7794 138.781 71.5539C139.783 70.8715 140.749 70.1586 141.672 69.3969C144.764 66.9694 146.792 63.4286 147.326 59.5258C147.721 56.1135 146.196 52.9816 142.631 52.5307ZM130.079 72.7056C129.993 72.6058 129.948 72.4776 129.951 72.3461L130.109 72.0353C130.126 72.012 130.147 71.9915 130.17 71.9744C130.282 71.9146 130.4 71.8676 130.522 71.8342C130.574 71.7894 130.635 71.7573 130.702 71.7404C130.768 71.7235 130.838 71.7222 130.905 71.7367H130.983C131.238 71.7365 131.491 71.7693 131.737 71.8342C132.092 71.93 132.441 72.0481 132.781 72.1876L134.154 72.5837C134.217 72.6027 134.275 72.636 134.324 72.6812C134.364 72.693 134.402 72.7138 134.433 72.7421C133.88 73.0529 133.34 73.3515 132.805 73.7171C132.306 73.7406 131.808 73.6632 131.34 73.4894C130.871 73.3156 130.442 73.0491 130.079 72.7056ZM135.72 72.0292H135.678C134.749 71.8159 133.899 71.3711 132.969 71.1579C132.228 70.9812 131.457 70.7801 130.698 70.646C131.087 69.6589 131.427 68.6474 131.791 67.6847C132.605 65.552 133.613 63.5169 134.403 61.3842C134.844 60.242 135.17 59.058 135.374 57.8501C135.421 57.5781 135.449 57.3033 135.459 57.0275C135.532 56.8143 135.611 56.6071 135.678 56.4182C135.811 56.0099 135.939 55.6078 136.067 55.1995C136.133 54.9863 136.17 54.6999 136.237 54.4501C136.399 54.4064 136.56 54.3535 136.716 54.2916C137.65 53.9139 138.631 53.6638 139.631 53.5483C141.174 53.4081 143.318 53.5483 144.453 54.7182C145.723 56.0404 145.668 58.3741 145.631 60.0864C145.565 62.2799 144.526 63.7423 143.202 65.3571C142.255 66.4904 141.295 67.6299 140.293 68.7145C138.981 70.0879 137.432 71.211 135.72 72.0292Z" fill="#6F4F50"/>
<path d="M58.3086 61.5306C57.233 59.0323 56.4189 56.4286 55.8794 53.7616C55.764 53.1949 54.9381 53.4752 55.0353 54.0236C55.4915 56.7068 56.2494 59.3294 57.2944 61.8413C57.7681 62.9635 58.3201 64.0508 58.9463 65.0951C59.7184 66.1893 60.3623 67.369 60.8653 68.611C61.0779 69.2812 62.001 68.9461 61.8856 68.288C61.6973 67.2522 60.9443 66.2468 60.3916 65.3632C59.6103 64.1352 58.9143 62.8546 58.3086 61.5306Z" fill="#6F4F50"/>
<path d="M61.5154 61.9388C61.2968 61.5183 60.7016 61.9388 60.9081 62.3226C62.1227 64.7599 62.985 67.1668 64.8677 69.2141C65.3171 69.7077 66.0822 68.9217 65.5782 68.4525C63.6409 66.6001 62.73 64.2603 61.5154 61.9388Z" fill="#6F4F50"/>
<path d="M128.5 64.7171C128.591 64.449 128.142 64.2723 128.033 64.5404C127.273 66.4232 127.152 68.5011 126.52 70.4326C126.162 71.5682 125.677 72.6597 125.075 73.6865C124.808 74.1374 124.51 74.5639 124.243 75.0087C124.109 75.2281 123.69 76.337 123.387 76.4162C122.779 76.5747 123.101 77.5374 123.672 77.3242C124.243 77.1109 124.443 76.4589 124.741 75.8679C125.442 74.6691 126.081 73.4345 126.654 72.1692C127.577 69.7502 127.68 67.1544 128.5 64.7171Z" fill="#6F4F50"/>
</g>
<defs>
<clipPath id="clip0_452_13327">
<rect width="68.6939" height="37.0408" fill="white" transform="translate(-0.000976562 50.5103)"/>
</clipPath>
<clipPath id="clip1_452_13327">
<rect width="110.449" height="76.7755" fill="white" transform="translate(42.4277 26.939)"/>
</clipPath>
</defs>
</svg>
